<svg id="Capa_1" style="enable-background:new 0 0 482.974 482.974; fill: #b1afb3;" enable-background="new 0 0 512 512" height="512" viewBox="0 0 512 512" width="512" xmlns="http://www.w3.org/2000/svg"><g><path d="m185.81 239.822c6.568 6.805 15.327 10.556 24.666 10.562h.023c9.344 0 18.116-3.748 24.702-10.555 2.881-2.977 2.803-7.725-.173-10.605-2.976-2.881-7.725-2.803-10.604.173-3.736 3.86-8.681 5.986-13.926 5.986-.004 0-.009 0-.013 0-5.236-.003-10.167-2.127-13.885-5.979-2.876-2.981-7.624-3.065-10.604-.188-2.979 2.878-3.063 7.626-.186 10.606z"/><path d="m163.087 181.654c2.746-2.668 7.232-2.662 10.001.013 1.455 1.407 3.334 2.107 5.21 2.107 1.963 0 3.922-.766 5.394-2.289 2.878-2.979 2.797-7.727-.182-10.605-8.529-8.243-22.378-8.237-30.872.013-2.971 2.886-3.041 7.634-.155 10.606 2.887 2.971 7.634 3.04 10.604.155z"/><path d="m244.278 183.773c1.876 0 3.754-.7 5.21-2.107 2.768-2.674 7.254-2.681 10.001-.013 2.97 2.886 7.719 2.816 10.604-.155 2.885-2.972 2.815-7.72-.156-10.606-8.494-8.25-22.342-8.254-30.871-.013-2.979 2.879-3.06 7.627-.182 10.605 1.471 1.524 3.431 2.289 5.394 2.289z"/><path d="m491.209 369.872c-1.575-3.831-5.956-5.66-9.788-4.084-3.831 1.576-5.659 5.958-4.084 9.789 13.548 32.951 6.045 70.509-19.118 95.686-16.567 16.592-38.592 25.732-62.018 25.737-.006 0-.012 0-.017 0-23.434 0-45.472-9.14-62.056-25.737-34.219-34.272-34.219-90.036-.002-124.306 9.488-9.495 20.764-16.537 33.06-20.835.129-.041.257-.08.384-.127 9.088-3.13 18.723-4.776 28.614-4.776h.017c23.426.004 45.451 9.144 62.018 25.737 2.926 2.931 7.675 2.934 10.605.007s2.934-7.676.007-10.607c-19.399-19.429-45.192-30.132-72.627-30.137-.007 0-.014 0-.021 0-10.307 0-20.383 1.51-29.976 4.425-15.322-10.733-33.191-18.612-50.887-22.436-2.974-2.233-8.465-6.504-14.695-11.351-5.107-3.973-10.669-8.299-15.917-12.339 16.609-16.177 29.466-36.324 35.346-56.832 6.742-1.385 13.564-5.097 19.083-10.546 6.827-6.741 10.743-15.214 10.743-23.247v-10.517c0-9.982-8.112-18.102-18.085-18.102h-8.323v-.182-15.279-34.558c0-20.235-7.856-39.482-22.716-55.66-12.939-14.086-31.201-25.632-51.422-32.512-18.935-6.444-38.965-8.586-56.394-6.033-18.336 2.684-33.297 10.304-43.492 22.107-20.717 2.979-51.589 18.733-50.534 86.314.01.67.02 1.219.02 1.632v17.179 16.992h-8.295c-9.988 0-18.114 8.12-18.114 18.102v10.517c0 8.032 3.916 16.506 10.742 23.247 5.519 5.45 12.341 9.162 19.083 10.547 5.97 20.82 19.129 41.271 36.106 57.568-5.02 3.869-10.275 7.959-15.106 11.718-6.16 4.795-11.591 9.022-14.54 11.235-18.779 4.058-37.767 12.686-53.652 24.426-3.331 2.462-4.036 7.158-1.574 10.49 1.471 1.99 3.739 3.043 6.037 3.043 1.548 0 3.111-.478 4.451-1.469 13.719-10.139 29.994-17.688 46.163-21.451l44.194 32.915c.166.124.337.241.514.351 1.656 1.032 2.74 1.878 3.611 2.559 2.685 2.097 4.99 2.921 7.031 2.921 3.412 0 6.086-2.306 8.562-4.833 1.293-1.32 3.146-3.205 5.966-5.739l4.218 16.59-25.621 85.488.012-.044c-.923 2.493-.751 4.854.489 7.147l14.069 26.675h-78.85v-48.827c0-4.142-3.358-7.5-7.499-7.5-4.142 0-7.499 3.358-7.499 7.5v48.827h-46.96c-.827 0-1.619.014-2.375.027-.641.012-1.398.026-2.068.019-.019-.315-.031-.691-.031-1.135v-79.714c0-13.777 4.604-27.107 13.685-39.618 2.433-3.353 1.688-8.043-1.664-10.476-3.354-2.434-8.043-1.689-10.474 1.664-10.979 15.126-16.545 31.42-16.545 48.429v79.714c0 3.605.428 8.817 4.13 12.455 3.335 3.277 7.456 3.682 11.322 3.682.645 0 1.284-.011 1.91-.022.671-.012 1.375-.024 2.11-.024h153.227c.007 0 .015.001.022.001.008 0 .016-.001.025-.001h50.943c.008 0 .016.001.025.001.007 0 .014-.001.022-.001h87.207c19.371 19.171 44.997 29.724 72.243 29.723h.021c27.435-.005 53.228-10.708 72.625-30.135 29.45-29.468 38.234-73.428 22.377-111.994zm-177.315-66.626c12.087 2.813 24.227 7.745 35.332 14.296-9.37 4.83-18.039 11.138-25.709 18.814-35.501 35.556-39.532 90.871-12.101 130.922h-62.271l14.012-26.606c1.271-2.352 1.448-4.702.518-7.238l-25.601-85.42 4.542-17.834c3.631 3.173 5.871 5.452 7.367 6.979 2.476 2.527 5.15 4.833 8.562 4.833 2.041 0 4.346-.825 7.031-2.921.871-.68 1.955-1.527 3.611-2.559.176-.11.348-.227.514-.351zm-115.952 37.429-5.272-20.738 19.396-17.865 18.007 16.586-5.607 22.017zm93.475-51.978c3.051 2.374 5.846 4.548 8.273 6.426l-38.706 28.828c-.66.417-1.256.814-1.793 1.184-1.675-1.677-3.969-3.89-7.259-6.738l-8.345-7.687c-.036-.034-.072-.066-.108-.099l-14.653-13.496c3.605-.9 7.331-2.075 11.252-3.543 11.627-4.34 22.865-10.893 33.134-18.973 5.872 4.504 12.341 9.535 18.205 14.098zm40.379-128.424c1.702 0 3.087 1.391 3.087 3.102v10.517c0 3.989-2.348 8.689-6.282 12.572-1.652 1.631-3.477 3.017-5.357 4.109.147-1.875.228-3.725.228-5.541v-24.76h8.324zm-177.801-122.549c2.088-.185 4.004-1.235 5.282-2.897 10.9-14.167 29.151-19.825 48.422-19.825 12.41 0 25.245 2.348 36.806 6.281 29.51 10.041 63.97 35.439 63.97 73.972v34.556 7.779h-11.749c-16.417 0-26.903-9.848-39.046-21.251-14.521-13.638-30.98-29.095-60.134-29.095h-33.117c-24.541 0-28.506 19.354-31.4 33.485-3.118 15.224-5.487 23.576-19.097 24.464v-16.913-17.179c0-.473-.009-1.1-.021-1.866-.484-30.962 6.077-68.501 40.084-71.511zm-66.472 136.168v-10.517c0-1.681 1.427-3.102 3.115-3.102h8.295v24.76c0 1.819.082 3.673.229 5.552-1.879-1.096-3.704-2.488-5.357-4.12-3.933-3.885-6.282-8.584-6.282-12.573zm28.108 25.311c-.005-.024-.012-.047-.018-.071-1.116-4.913-1.682-9.658-1.682-14.1v-24.821c26.575-1.262 30.9-22.363 33.79-36.471 3.262-15.923 5.411-21.495 16.707-21.495h33.117c23.216 0 36.162 12.158 49.868 25.029 13.252 12.447 26.957 25.317 49.312 25.317h11.749v32.442c0 4.442-.565 9.186-1.681 14.099-.002.007-.004.014-.005.021-.003.015-.008.03-.011.045-7.608 33.325-38.524 67.847-71.95 80.325-8.842 3.311-16.343 4.853-23.609 4.853-7.292 0-14.791-1.541-23.618-4.857-33.433-12.47-64.359-46.99-71.969-80.316zm56.57 119.195c-3.29 2.848-5.585 5.061-7.26 6.738-.537-.371-1.132-.767-1.792-1.184l-38.707-28.829c2.386-1.849 5.13-3.984 8.121-6.313 5.608-4.365 11.793-9.178 17.488-13.551 10.042 7.776 20.982 14.09 32.292 18.309 4.418 1.659 8.587 2.926 12.622 3.863l-15.674 14.437c-.05.045-.1.09-.148.137zm1.462 117.454 24.029-80.177h27.022l24.03 80.178-16.549 31.423h-41.957z"/><path d="m396.188 459.542c4.142 0 7.499-3.358 7.499-7.5v-67.741l16.236 16.26c1.465 1.467 3.385 2.2 5.306 2.2 1.918 0 3.836-.731 5.299-2.193 2.93-2.927 2.933-7.676.007-10.607l-29.041-29.085c-.005-.005-.011-.01-.016-.015-.123-.122-.23-.218-.33-.3-1.323-1.17-3.056-1.886-4.961-1.886-1.942 0-3.706.745-5.038 1.956-.083.068-.172.147-.266.242l-29.068 29.085c-2.927 2.93-2.926 7.678.003 10.607 1.464 1.463 3.382 2.195 5.301 2.195 1.92 0 3.839-.733 5.304-2.198l16.265-16.274v67.753c.001 4.143 3.358 7.501 7.5 7.501z"/></g></svg>