<svg xmlns="http://www.w3.org/2000/svg" width="21" height="24" viewBox="0 0 42 48">
                                            <path id="Fabric_Icons" data-name="Fabric Icons" d="M7.172-19.8a20.078,20.078,0,0,1,5.754,3.082,20.356,20.356,0,0,1,4.359,4.582,20.892,20.892,0,0,1,2.754,5.7A21.6,21.6,0,0,1,21,0H18a18.381,18.381,0,0,0-1.371-7.137,17.473,17.473,0,0,0-3.785-5.707,17.473,17.473,0,0,0-5.707-3.785A18.381,18.381,0,0,0,0-18a18.268,18.268,0,0,0-4.828.633,18.086,18.086,0,0,0-4.324,1.793,17.55,17.55,0,0,0-3.633,2.789,17.55,17.55,0,0,0-2.789,3.633,18.086,18.086,0,0,0-1.793,4.324A18.268,18.268,0,0,0-18,0h-3a21.093,21.093,0,0,1,.984-6.457,20.888,20.888,0,0,1,2.789-5.66,20.6,20.6,0,0,1,4.371-4.547,21.27,21.27,0,0,1,5.73-3.117,14.738,14.738,0,0,1-3.281-2.391A14.893,14.893,0,0,1-12.879-25.3a15.364,15.364,0,0,1-1.57-3.68A14.766,14.766,0,0,1-15-33a14.668,14.668,0,0,1,1.172-5.848,15.089,15.089,0,0,1,3.211-4.77,15.089,15.089,0,0,1,4.77-3.211A14.668,14.668,0,0,1,0-48a14.668,14.668,0,0,1,5.848,1.172,15.089,15.089,0,0,1,4.77,3.211,15.089,15.089,0,0,1,3.211,4.77A14.668,14.668,0,0,1,15-33a14.64,14.64,0,0,1-.551,4.008,15.2,15.2,0,0,1-1.57,3.656,15.517,15.517,0,0,1-2.461,3.129A14.512,14.512,0,0,1,7.172-19.8ZM-12-33a11.553,11.553,0,0,0,.949,4.664,12.242,12.242,0,0,0,2.578,3.809,12.242,12.242,0,0,0,3.809,2.578A11.553,11.553,0,0,0,0-21a11.553,11.553,0,0,0,4.664-.949,12.242,12.242,0,0,0,3.809-2.578,12.242,12.242,0,0,0,2.578-3.809A11.553,11.553,0,0,0,12-33a11.553,11.553,0,0,0-.949-4.664,12.242,12.242,0,0,0-2.578-3.809,12.242,12.242,0,0,0-3.809-2.578A11.553,11.553,0,0,0,0-45a11.553,11.553,0,0,0-4.664.949,12.242,12.242,0,0,0-3.809,2.578,12.242,12.242,0,0,0-2.578,3.809A11.553,11.553,0,0,0-12-33Z" transform="translate(21 48)" fill="#f8f8f8"></path>
                                        </svg>