  <svg
                  xmlns="http://www.w3.org/2000/svg"
                  width="16"
                  height="16"
                  viewBox="0 0 31.998 32"
                >
                  <path
                    id="Fabric_Icons"
                    data-name="Fabric Icons"
                    d="M0-26.766a5.3,5.3,0,0,0,.391,2,5.113,5.113,0,0,0,1.141,1.719L22.11-2.469,32,0,29.531-9.891,8.955-30.469a5.113,5.113,0,0,0-1.719-1.141,5.3,5.3,0,0,0-2-.391,5.042,5.042,0,0,0-2.031.414,5.333,5.333,0,0,0-1.664,1.125A5.335,5.335,0,0,0,.416-28.8,5.042,5.042,0,0,0,0-26.766Zm26.9,17.078a7.134,7.134,0,0,0-2.851,1.742,7.134,7.134,0,0,0-1.742,2.852L5.424-22,10-26.578ZM29.25-2.75,24.11-4.031a5.033,5.033,0,0,1,.508-1.359,5.014,5.014,0,0,1,.852-1.141,5.015,5.015,0,0,1,1.141-.852,5.031,5.031,0,0,1,1.359-.508ZM4-23.422q-.391-.391-.75-.734a5.566,5.566,0,0,1-.641-.727,3.345,3.345,0,0,1-.445-.828A3,3,0,0,1,2-26.75a3.088,3.088,0,0,1,.258-1.258,3.356,3.356,0,0,1,.7-1.031,3.356,3.356,0,0,1,1.031-.7A3.088,3.088,0,0,1,5.252-30a3,3,0,0,1,1.039.164,3.346,3.346,0,0,1,.828.445,5.567,5.567,0,0,1,.727.641q.344.359.734.75Z"
                    transform="translate(-0.002 32)"
                    fill="#0078d4"
                  />
                </svg>