  <svg
    xmlns="http://www.w3.org/2000/svg"
    width="16"
    height="14"
    viewBox="0 0 32 28"
  >
    <path
      id="Fabric_Icons"
      data-name="Fabric Icons"
      d="M25-14a6.836,6.836,0,0,1,2.727.547,7.05,7.05,0,0,1,2.227,1.5,7.05,7.05,0,0,1,1.5,2.227A6.836,6.836,0,0,1,32-7a6.836,6.836,0,0,1-.547,2.727,7.05,7.05,0,0,1-1.5,2.227,7.05,7.05,0,0,1-2.227,1.5A6.836,6.836,0,0,1,25,0a6.836,6.836,0,0,1-2.727-.547,7.05,7.05,0,0,1-2.227-1.5,7.05,7.05,0,0,1-1.5-2.227A6.836,6.836,0,0,1,18-7a6.836,6.836,0,0,1,.547-2.727,7.05,7.05,0,0,1,1.5-2.227,7.05,7.05,0,0,1,2.227-1.5A6.836,6.836,0,0,1,25-14ZM20-7a4.9,4.9,0,0,0,.391,1.945,5.018,5.018,0,0,0,1.07,1.594,5.018,5.018,0,0,0,1.594,1.07A4.9,4.9,0,0,0,25-2a4.976,4.976,0,0,0,1.438-.211,4.882,4.882,0,0,0,1.313-.617L20.828-9.75a4.882,4.882,0,0,0-.617,1.313A4.976,4.976,0,0,0,20-7Zm9.172,2.75a4.882,4.882,0,0,0,.617-1.312A4.976,4.976,0,0,0,30-7a4.76,4.76,0,0,0-.4-1.937,5.153,5.153,0,0,0-1.078-1.586A5.153,5.153,0,0,0,26.938-11.6,4.76,4.76,0,0,0,25-12a4.976,4.976,0,0,0-1.437.211,4.882,4.882,0,0,0-1.312.617ZM.016-15.969,0-15.922V-16Zm29.844.234a10.677,10.677,0,0,0-.984-3.016,11.478,11.478,0,0,0-1.734-2.531A12.954,12.954,0,0,0,24.828-23.3a15.023,15.023,0,0,0-2.734-1.477,16.224,16.224,0,0,0-3-.914A15.588,15.588,0,0,0,16-26a15.692,15.692,0,0,0-3.4.375,15.909,15.909,0,0,0-3.25,1.094,14.817,14.817,0,0,0-2.9,1.766,12.445,12.445,0,0,0-2.336,2.375,10.864,10.864,0,0,0-1.555,2.938A10.393,10.393,0,0,0,2-14H0a12.286,12.286,0,0,1,.633-3.984A12.848,12.848,0,0,1,2.391-21.4,14.389,14.389,0,0,1,5.039-24.18a16.911,16.911,0,0,1,3.3-2.078,17.638,17.638,0,0,1,3.727-1.3A17.659,17.659,0,0,1,16-28a17.419,17.419,0,0,1,3.9.445,18.064,18.064,0,0,1,3.711,1.281A16.868,16.868,0,0,1,26.9-24.227a14.227,14.227,0,0,1,2.648,2.75,13.013,13.013,0,0,1,1.773,3.383A12.391,12.391,0,0,1,32-14.141,10.5,10.5,0,0,0,29.859-15.734ZM16-18a3.893,3.893,0,0,0-1.555.313,4.04,4.04,0,0,0-1.273.859,4.04,4.04,0,0,0-.859,1.273A3.893,3.893,0,0,0,12-14a3.893,3.893,0,0,0,.266,1.43,4.119,4.119,0,0,0,.727,1.211,4.018,4.018,0,0,0,1.094.883,3.786,3.786,0,0,0,1.383.445,9.745,9.745,0,0,0-.406,1.953,5.8,5.8,0,0,1-2.016-.7,6.146,6.146,0,0,1-1.6-1.32,6.009,6.009,0,0,1-1.062-1.789A5.849,5.849,0,0,1,10-14a5.847,5.847,0,0,1,.469-2.328,6.048,6.048,0,0,1,1.289-1.914,6.072,6.072,0,0,1,1.906-1.289A5.831,5.831,0,0,1,16-20a5.9,5.9,0,0,1,1.734.258,5.965,5.965,0,0,1,1.563.734,6.124,6.124,0,0,1,1.289,1.148,6.084,6.084,0,0,1,.93,1.484,9.317,9.317,0,0,0-1.8.891,4.272,4.272,0,0,0-.609-1.031,3.891,3.891,0,0,0-.859-.8,4,4,0,0,0-1.062-.508A3.978,3.978,0,0,0,16-18Z"
      transform="translate(0 28)"
      fill="#0078d4"
    />
  </svg>