<svg xmlns="http://www.w3.org/2000/svg" width="36" height="27" viewBox="0 0 36 27">
  <path id="Fabric_Icons" data-name="Fabric Icons" d="M18-29.25v22.5H-18v-22.5H-6.75V-31.5a2.18,2.18,0,0,1,.176-.879,2.287,2.287,0,0,1,.483-.712,2.287,2.287,0,0,1,.712-.483A2.18,2.18,0,0,1-4.5-33.75h9a2.18,2.18,0,0,1,.879.176,2.287,2.287,0,0,1,.712.483,2.287,2.287,0,0,1,.483.712,2.18,2.18,0,0,1,.176.879v2.25Zm-22.5,0h9V-31.5h-9ZM-15.75-27v3.252L-4.5-18.141V-20.25h9v2.109l11.25-5.607V-27Zm13.5,9v2.25h4.5V-18Zm18,9V-21.252L4.5-15.609V-13.5h-9v-2.109l-11.25-5.643V-9Z" transform="translate(18 33.75)" fill="#71afe5"/>
</svg>
