<svg xmlns="http://www.w3.org/2000/svg" width="103.34" height="98.667" viewBox="0 0 103.34 98.667">
  <path id="Fabric_Icons" data-name="Fabric Icons" d="M-10.312-67.354l-19.6-19.6,4.834-4.834,14.771,14.771,28.521-28.521,4.834,4.834ZM48.125-41.465a10.331,10.331,0,0,1,.081,1.558q.027,1.45.027,3.733v5.183q0,2.9-.027,5.989t-.027,6.1q0,3.008-.027,5.505t-.027,4.243v2.283H-55V-9.158q0-1.746-.027-4.243t-.027-5.505q0-3.008-.027-6.1t-.027-5.989v-5.183q0-2.283.027-3.733A10.331,10.331,0,0,1-55-41.465l12.783-38.35,5.425,5.479L-47.8-41.25h22.451l6.875,13.75H11.6l6.875-13.75H40.928L26.479-84.7,31.9-90.127Zm-6.875,7.09H22.773L15.9-20.625H-22.773l-6.875-13.75H-48.125V-13.75H41.25Z" transform="translate(55.107 105.542)" fill="#f8f8f8"/>
</svg>
