<svg xmlns="http://www.w3.org/2000/svg" width="48" height="48" viewBox="0 0 48 48">
  <path id="Fabric_Icons" data-name="Fabric Icons" d="M31.5-48a16.3,16.3,0,0,1,4.383.586A16.3,16.3,0,0,1,39.82-45.75a16.713,16.713,0,0,1,3.34,2.59,16.713,16.713,0,0,1,2.59,3.34,16.3,16.3,0,0,1,1.664,3.938A16.3,16.3,0,0,1,48-31.5a16.3,16.3,0,0,1-.586,4.383A16.3,16.3,0,0,1,45.75-23.18a16.713,16.713,0,0,1-2.59,3.34,16.713,16.713,0,0,1-3.34,2.59,16.3,16.3,0,0,1-3.937,1.664A16.3,16.3,0,0,1,31.5-15a16.171,16.171,0,0,1-5.613-.984,16.849,16.849,0,0,1-4.934-2.836L2.555-.445A1.442,1.442,0,0,1,1.5,0,1.442,1.442,0,0,1,.445-.445,1.442,1.442,0,0,1,0-1.5,1.442,1.442,0,0,1,.445-2.555l18.375-18.4a16.849,16.849,0,0,1-2.836-4.934A16.171,16.171,0,0,1,15-31.5a16.3,16.3,0,0,1,.586-4.383A16.3,16.3,0,0,1,17.25-39.82a16.712,16.712,0,0,1,2.59-3.34,16.713,16.713,0,0,1,3.34-2.59,16.3,16.3,0,0,1,3.938-1.664A16.3,16.3,0,0,1,31.5-48Zm0,30a13.061,13.061,0,0,0,5.25-1.066,13.708,13.708,0,0,0,4.289-2.895,13.708,13.708,0,0,0,2.895-4.289A13.061,13.061,0,0,0,45-31.5a13.061,13.061,0,0,0-1.066-5.25,13.708,13.708,0,0,0-2.895-4.289,13.708,13.708,0,0,0-4.289-2.895A13.061,13.061,0,0,0,31.5-45a13.061,13.061,0,0,0-5.25,1.066,13.708,13.708,0,0,0-4.289,2.895,13.708,13.708,0,0,0-2.895,4.289A13.061,13.061,0,0,0,18-31.5a13.061,13.061,0,0,0,1.066,5.25,13.708,13.708,0,0,0,2.895,4.289,13.708,13.708,0,0,0,4.289,2.895A13.061,13.061,0,0,0,31.5-18Z" transform="translate(0 48)" fill="#0078d4"/>
</svg>
