<svg xmlns="http://www.w3.org/2000/svg" width="45" height="42" viewBox="0 0 45 42">
  <path id="Fabric_Icons" data-name="Fabric Icons" d="M45-42V-3H0V-42H6v-3h9a12.55,12.55,0,0,1,3.973.633,11.613,11.613,0,0,1,3.527,1.9,11.613,11.613,0,0,1,3.527-1.9A12.55,12.55,0,0,1,30-45h9v3ZM30-42a9.434,9.434,0,0,0-3.187.551A9.16,9.16,0,0,0,24-39.844v29.391a11.955,11.955,0,0,1,2.906-1.16A12.526,12.526,0,0,1,30-12h6V-42ZM9-12h6a12.526,12.526,0,0,1,3.094.387A11.956,11.956,0,0,1,21-10.453V-39.844a9.159,9.159,0,0,0-2.812-1.605A9.434,9.434,0,0,0,15-42H9ZM3-6H21.891a13.208,13.208,0,0,0-1.523-1.277,10.114,10.114,0,0,0-1.605-.937A8.3,8.3,0,0,0,17-8.8,9.522,9.522,0,0,0,15-9H6V-39H3ZM42-39H39V-9H30a9.522,9.522,0,0,0-2,.2,8.3,8.3,0,0,0-1.758.586,10.114,10.114,0,0,0-1.605.938A13.208,13.208,0,0,0,23.109-6H42Z" transform="translate(0 45)" fill="#deecf9"/>
</svg>
