<svg xmlns="http://www.w3.org/2000/svg" width="48" height="48" viewBox="0 0 48 48">
  <path id="Fabric_Icons" data-name="Fabric Icons" d="M24-48a23.641,23.641,0,0,1,6.375.855,23.765,23.765,0,0,1,5.73,2.426,24.317,24.317,0,0,1,4.852,3.762,24.317,24.317,0,0,1,3.762,4.852,23.765,23.765,0,0,1,2.426,5.73A23.641,23.641,0,0,1,48-24a23.641,23.641,0,0,1-.855,6.375,23.765,23.765,0,0,1-2.426,5.73,24.317,24.317,0,0,1-3.762,4.852,24.316,24.316,0,0,1-4.852,3.762,23.765,23.765,0,0,1-5.73,2.426A23.641,23.641,0,0,1,24,0a23.641,23.641,0,0,1-6.375-.855,23.765,23.765,0,0,1-5.73-2.426A24.316,24.316,0,0,1,7.043-7.043a24.316,24.316,0,0,1-3.762-4.852,23.765,23.765,0,0,1-2.426-5.73A23.641,23.641,0,0,1,0-24a23.641,23.641,0,0,1,.855-6.375,23.765,23.765,0,0,1,2.426-5.73,24.316,24.316,0,0,1,3.762-4.852,24.317,24.317,0,0,1,4.852-3.762,23.765,23.765,0,0,1,5.73-2.426A23.641,23.641,0,0,1,24-48ZM38.133-31.945l-3.187-3.187L19.5-19.687l-6.445-6.445L9.867-22.945,19.5-13.312Z" transform="translate(0 48)" fill="#107c10"/>
</svg>
