<svg xmlns="http://www.w3.org/2000/svg" width="35.982" height="36" viewBox="0 0 35.982 36">
  <path id="Fabric_Icons" data-name="Fabric Icons" d="M28.248-14.678a3.9,3.9,0,0,1,1.485.29,3.774,3.774,0,0,1,1.257.835l3.867,3.867a3.774,3.774,0,0,1,.835,1.257,3.9,3.9,0,0,1,.29,1.485,3.9,3.9,0,0,1-.29,1.485A3.774,3.774,0,0,1,34.857-4.2l-.246.246q-.949.949-1.74,1.688a9.218,9.218,0,0,1-1.652,1.239A7.319,7.319,0,0,1,29.3-.264,10.473,10.473,0,0,1,26.789,0a15.906,15.906,0,0,1-4.518-.686,25.064,25.064,0,0,1-4.614-1.9,33.083,33.083,0,0,1-4.5-2.883A39,39,0,0,1,8.991-9.114,40.017,40.017,0,0,1,5.379-13.3a32.778,32.778,0,0,1-2.848-4.5A25.238,25.238,0,0,1,.668-22.377,15.759,15.759,0,0,1,0-26.807a10.591,10.591,0,0,1,.255-2.5,7.144,7.144,0,0,1,.756-1.9,9.176,9.176,0,0,1,1.23-1.644q.729-.782,1.679-1.731l.281-.281A3.916,3.916,0,0,1,5.449-35.7,3.78,3.78,0,0,1,6.943-36a3.8,3.8,0,0,1,1.485.3,3.89,3.89,0,0,1,1.257.844l3.867,3.867a3.774,3.774,0,0,1,.835,1.257,3.9,3.9,0,0,1,.29,1.485,3.43,3.43,0,0,1-.264,1.38,4.986,4.986,0,0,1-.65,1.1,6.506,6.506,0,0,1-.853.9q-.466.4-.853.791a5.169,5.169,0,0,0-.65.782,1.508,1.508,0,0,0-.264.853,1.558,1.558,0,0,0,.475,1.143L21.3-11.619a1.558,1.558,0,0,0,1.143.475,1.508,1.508,0,0,0,.853-.264,5.168,5.168,0,0,0,.782-.65q.387-.387.791-.853a6.506,6.506,0,0,1,.9-.853,4.986,4.986,0,0,1,1.1-.65A3.43,3.43,0,0,1,28.248-14.678ZM26.789-2.25a8.03,8.03,0,0,0,2.118-.237,5.47,5.47,0,0,0,1.538-.686,7.943,7.943,0,0,0,1.336-1.116q.65-.668,1.494-1.512a1.558,1.558,0,0,0,.475-1.143A1.529,1.529,0,0,0,33.5-7.69a6.6,6.6,0,0,0-.659-.905q-.4-.475-.905-.976t-.984-.949q-.483-.448-.9-.826t-.642-.606a1.578,1.578,0,0,0-1.16-.475,1.467,1.467,0,0,0-.844.264,5.425,5.425,0,0,0-.773.65q-.387.387-.8.853a6.929,6.929,0,0,1-.905.853,4.986,4.986,0,0,1-1.1.65,3.43,3.43,0,0,1-1.38.264,3.9,3.9,0,0,1-1.485-.29,3.774,3.774,0,0,1-1.257-.835L10.02-19.705a3.774,3.774,0,0,1-.835-1.257,3.9,3.9,0,0,1-.29-1.485,3.43,3.43,0,0,1,.264-1.38,4.986,4.986,0,0,1,.65-1.1,6.928,6.928,0,0,1,.853-.905q.466-.413.853-.8a5.425,5.425,0,0,0,.65-.773,1.467,1.467,0,0,0,.264-.844,1.578,1.578,0,0,0-.475-1.16q-.229-.229-.606-.642t-.826-.9q-.448-.483-.949-.984T8.6-32.836A6.6,6.6,0,0,0,7.69-33.5a1.529,1.529,0,0,0-.747-.255,1.558,1.558,0,0,0-1.143.475q-.844.844-1.5,1.494a8.957,8.957,0,0,0-1.125,1.336,5.191,5.191,0,0,0-.7,1.538,7.95,7.95,0,0,0-.237,2.1,13.817,13.817,0,0,0,.642,4.061,22.84,22.84,0,0,0,1.775,4.184A31.863,31.863,0,0,0,7.33-14.44,36.729,36.729,0,0,0,10.705-10.6a37.79,37.79,0,0,0,3.858,3.34,31.846,31.846,0,0,0,4.113,2.646,22.678,22.678,0,0,0,4.148,1.74A13.694,13.694,0,0,0,26.789-2.25Z" transform="translate(0 36)" fill="#a6a6a6"/>
</svg>
