<svg xmlns="http://www.w3.org/2000/svg" width="42.609" height="48" viewBox="0 0 42.609 48">
  <path id="Fabric_Icons" data-name="Fabric Icons" d="M-14.109-24a1.442,1.442,0,0,0-1.055.445,1.442,1.442,0,0,0-.445,1.055,1.442,1.442,0,0,0,.445,1.055A1.442,1.442,0,0,0-14.109-21a1.442,1.442,0,0,0,1.055-.445,1.442,1.442,0,0,0,.445-1.055,1.442,1.442,0,0,0-.445-1.055A1.442,1.442,0,0,0-14.109-24Zm19.5,6h-3V0h3Zm-27-30V0h3V-45h21v18h3V-48ZM15.258-24H-3.609v3H15.258l-4.922,4.945,2.109,2.109L21-22.5l-8.555-8.555-2.109,2.109Z" transform="translate(21.609 48)" fill="#f8f8f8"/>
</svg>
