<svg xmlns="http://www.w3.org/2000/svg" width="95.792" height="71.844" viewBox="0 0 95.792 71.844">
  <path id="Fabric_Icons" data-name="Fabric Icons" d="M40.792-91.151v59.87H-55v-59.87h29.935v-5.987a5.8,5.8,0,0,1,.468-2.339,6.084,6.084,0,0,1,1.286-1.894,6.084,6.084,0,0,1,1.894-1.286,5.8,5.8,0,0,1,2.339-.468H4.87a5.8,5.8,0,0,1,2.339.468A6.084,6.084,0,0,1,9.1-101.371a6.084,6.084,0,0,1,1.286,1.894,5.8,5.8,0,0,1,.468,2.339v5.987Zm-59.87,0H4.87v-5.987H-19.078Zm-29.935,5.987v8.653L-19.078-61.59V-67.2H4.87v5.613L34.8-76.511v-8.653Zm35.922,23.948v5.987H-1.117v-5.987ZM34.8-37.268v-32.6L4.87-54.855v5.613H-19.078v-5.613L-49.013-69.869v32.6Z" transform="translate(55 103.125)" fill="#ffb900"/>
</svg>
