<svg xmlns="http://www.w3.org/2000/svg" width="110.092" height="103.909" viewBox="0 0 110.092 103.909">
  <path id="Контур_8516" data-name="Контур 8516" d="M52.658,102.944a3.187,3.187,0,0,1,0-4.566L74.78,76.205a18.337,18.337,0,0,1-2.69-5.327,19.574,19.574,0,0,1-.913-5.936,19.01,19.01,0,0,1,1.521-7.56,19.63,19.63,0,0,1,10.377-10.4,19.614,19.614,0,0,1,15.144,0,19.381,19.381,0,0,1,6.191,4.186,19.888,19.888,0,0,1,4.16,6.215,19.6,19.6,0,0,1,0,15.146,19.944,19.944,0,0,1-4.16,6.189A19.321,19.321,0,0,1,98.219,82.9a18.972,18.972,0,0,1-7.56,1.522,19.632,19.632,0,0,1-5.936-.913,18.407,18.407,0,0,1-5.327-2.69L57.225,102.944a3.184,3.184,0,0,1-4.567,0ZM85.611,52.968a13.087,13.087,0,0,0-6.926,6.926,13.076,13.076,0,0,0,0,10.1,13.087,13.087,0,0,0,6.926,6.926,13.054,13.054,0,0,0,10.1,0,13.087,13.087,0,0,0,6.926-6.926,13.054,13.054,0,0,0,0-10.1,13.087,13.087,0,0,0-6.926-6.926,13.076,13.076,0,0,0-10.1,0ZM62.883,77.932H0V12.988H32.471V6.494a6.345,6.345,0,0,1,.507-2.536A6.61,6.61,0,0,1,36.429.507,6.312,6.312,0,0,1,38.965,0H64.942A6.315,6.315,0,0,1,67.48.507a6.615,6.615,0,0,1,3.449,3.451,6.312,6.312,0,0,1,.507,2.536v6.494h32.473V39.225h-6.5V36.073L64.942,52.36v6.088H38.965V52.36L6.494,36.073V71.436h62.7l-6.3,6.5ZM45.461,51.954H58.448V45.461H45.461Zm19.482-6.9L97.413,28.869V19.483H6.494v9.385L38.965,45.055V38.967l25.977,0ZM38.965,12.988H64.942V6.494H38.965Z" fill="#f8f8f8"/>
</svg>
