<svg xmlns="http://www.w3.org/2000/svg" width="33.75" height="33.75" viewBox="0 0 33.75 33.75">
  <path id="Fabric_Icons" data-name="Fabric Icons" d="M-1.125-2.25a16.716,16.716,0,0,1-4.491-.6,16.947,16.947,0,0,1-4.034-1.7,16.794,16.794,0,0,1-3.419-2.637A16.794,16.794,0,0,1-15.706-10.6a16.947,16.947,0,0,1-1.7-4.034,16.716,16.716,0,0,1-.6-4.491,16.716,16.716,0,0,1,.6-4.491,16.947,16.947,0,0,1,1.7-4.034,16.794,16.794,0,0,1,2.637-3.419A16.794,16.794,0,0,1-9.65-33.706a16.947,16.947,0,0,1,4.034-1.7A16.716,16.716,0,0,1-1.125-36a16.716,16.716,0,0,1,4.491.6,16.947,16.947,0,0,1,4.034,1.7,16.794,16.794,0,0,1,3.419,2.637,16.794,16.794,0,0,1,2.637,3.419,16.947,16.947,0,0,1,1.7,4.034,16.716,16.716,0,0,1,.6,4.491,16.716,16.716,0,0,1-.6,4.491,16.947,16.947,0,0,1-1.7,4.034,16.794,16.794,0,0,1-2.637,3.419A16.794,16.794,0,0,1,7.4-4.544a16.947,16.947,0,0,1-4.034,1.7A16.716,16.716,0,0,1-1.125-2.25Zm0-31.5a14.2,14.2,0,0,0-3.885.527A14.982,14.982,0,0,0-8.5-31.746a14.537,14.537,0,0,0-2.962,2.285A14.537,14.537,0,0,0-13.746-26.5,14.941,14.941,0,0,0-15.223-23a14.227,14.227,0,0,0-.527,3.876,14.227,14.227,0,0,0,.527,3.876,14.941,14.941,0,0,0,1.477,3.5,14.537,14.537,0,0,0,2.285,2.962A14.537,14.537,0,0,0-8.5-6.5,14.982,14.982,0,0,0-5.01-5.027,14.2,14.2,0,0,0-1.125-4.5a14.227,14.227,0,0,0,3.876-.527A14.941,14.941,0,0,0,6.249-6.5,14.537,14.537,0,0,0,9.211-8.789,14.537,14.537,0,0,0,11.5-11.751a14.982,14.982,0,0,0,1.477-3.489,14.2,14.2,0,0,0,.527-3.885A14.227,14.227,0,0,0,12.973-23,14.941,14.941,0,0,0,11.5-26.5a14.537,14.537,0,0,0-2.285-2.962,14.537,14.537,0,0,0-2.962-2.285,14.941,14.941,0,0,0-3.5-1.477A14.227,14.227,0,0,0-1.125-33.75ZM-2.25-22.5H0v11.25H-2.25Zm0-4.5H0v2.25H-2.25Z" transform="translate(18 36)" fill="#f8f8f8"/>
</svg>
