<svg xmlns="http://www.w3.org/2000/svg" width="104" height="104" viewBox="0 0 104 104">
  <path id="Fabric_Icons" data-name="Fabric Icons" d="M46.617-8.48a33.726,33.726,0,0,0-.787,3.936A35.721,35.721,0,0,0,45.5-.508,50.3,50.3,0,0,1,33.109-3.555,50.335,50.335,0,0,1,22.166-9.42a52.759,52.759,0,0,1-9.141-8.227A52.1,52.1,0,0,1,6.043-27.777a53.122,53.122,0,0,1-4.469-11.6A50.446,50.446,0,0,1,0-52,51.221,51.221,0,0,1,1.854-65.812a52.587,52.587,0,0,1,5.23-12.441,51.638,51.638,0,0,1,8.125-10.537,51.638,51.638,0,0,1,10.537-8.125,52.7,52.7,0,0,1,12.416-5.23A51.136,51.136,0,0,1,52-104a50.945,50.945,0,0,1,13.787,1.854A52.068,52.068,0,0,1,78.2-96.891,52.365,52.365,0,0,1,88.74-88.74,52.365,52.365,0,0,1,96.891-78.2a52.068,52.068,0,0,1,5.256,12.416A50.946,50.946,0,0,1,104-52h-3.605q-.711-1.168-1.5-2.285a18.9,18.9,0,0,0-1.752-2.133A38.387,38.387,0,0,0,95.57-65H33.363q-.406,3.25-.635,6.475T32.5-52q0,3.3.229,6.525T33.363-39H52a21.022,21.022,0,0,0,.254,3.25q.254,1.625.66,3.25H34.48q.609,2.895,1.65,6.348a55.511,55.511,0,0,0,2.539,6.779,39.244,39.244,0,0,0,3.479,6.2A19.48,19.48,0,0,0,46.617-8.48ZM93.082-71.5a45.825,45.825,0,0,0-4.7-7.719,46.914,46.914,0,0,0-6.068-6.627,45.571,45.571,0,0,0-7.236-5.332,43.432,43.432,0,0,0-8.2-3.783,41.1,41.1,0,0,1,3.275,5.383,58.683,58.683,0,0,1,2.59,5.865A62.131,62.131,0,0,1,74.7-77.619q.812,3.072,1.422,6.119ZM52-97.5a8.592,8.592,0,0,0-4.7,1.371,16.439,16.439,0,0,0-3.961,3.605,29.408,29.408,0,0,0-3.25,5.053,59.039,59.039,0,0,0-2.564,5.713q-1.117,2.895-1.879,5.586T34.48-71.5H69.52q-.406-1.98-1.168-4.672t-1.879-5.586a59.042,59.042,0,0,0-2.564-5.713,29.408,29.408,0,0,0-3.25-5.053,16.227,16.227,0,0,0-3.986-3.605A8.633,8.633,0,0,0,52-97.5ZM37.172-95.012a44.151,44.151,0,0,0-8.227,3.783A45.021,45.021,0,0,0,21.684-85.9a47.373,47.373,0,0,0-6.094,6.652A43.4,43.4,0,0,0,10.918-71.5H27.879q.559-2.793,1.4-5.967t2.006-6.3a60.358,60.358,0,0,1,2.641-6.043A31.708,31.708,0,0,1,37.172-95.012ZM6.5-52A44.883,44.883,0,0,0,8.379-39H26.813q-.406-3.25-.609-6.475T26-52q0-3.3.2-6.525T26.813-65H8.379A44.884,44.884,0,0,0,6.5-52Zm4.316,19.5a46.734,46.734,0,0,0,4.7,7.744,44.375,44.375,0,0,0,6.094,6.627,46.915,46.915,0,0,0,7.287,5.307,44.15,44.15,0,0,0,8.227,3.783,41.1,41.1,0,0,1-3.275-5.383,60.008,60.008,0,0,1-2.59-5.84,63.958,63.958,0,0,1-1.98-6.094q-.838-3.1-1.447-6.145Zm78.66,9.191A27.271,27.271,0,0,1,95.469-19.2a25.861,25.861,0,0,1,4.6,5.484,26,26,0,0,1,2.92,6.525A25.507,25.507,0,0,1,104,0H97.5a19,19,0,0,0-1.523-7.566,19.655,19.655,0,0,0-4.189-6.221,19.655,19.655,0,0,0-6.221-4.189A19,19,0,0,0,78-19.5a18.949,18.949,0,0,0-7.592,1.523,19.734,19.734,0,0,0-6.2,4.189,19.655,19.655,0,0,0-4.189,6.221A19,19,0,0,0,58.5,0H52a25.506,25.506,0,0,1,1.016-7.186,26.547,26.547,0,0,1,2.895-6.525A25.251,25.251,0,0,1,60.48-19.2a27.27,27.27,0,0,1,5.992-4.113,18.758,18.758,0,0,1-5.891-6.881A19.339,19.339,0,0,1,58.5-39a19,19,0,0,1,1.523-7.566,19.655,19.655,0,0,1,4.189-6.221,19.734,19.734,0,0,1,6.2-4.189A18.949,18.949,0,0,1,78-58.5a19,19,0,0,1,7.566,1.523,19.655,19.655,0,0,1,6.221,4.189,19.655,19.655,0,0,1,4.189,6.221A19,19,0,0,1,97.5-39a19.15,19.15,0,0,1-2.107,8.811A18.987,18.987,0,0,1,89.477-23.309ZM78-26a12.651,12.651,0,0,0,5.053-1.016,13.13,13.13,0,0,0,4.139-2.793,13.13,13.13,0,0,0,2.793-4.139A12.651,12.651,0,0,0,91-39a12.651,12.651,0,0,0-1.016-5.053,13.13,13.13,0,0,0-2.793-4.139,13.13,13.13,0,0,0-4.139-2.793A12.651,12.651,0,0,0,78-52a12.651,12.651,0,0,0-5.053,1.016,13.13,13.13,0,0,0-4.139,2.793,13.13,13.13,0,0,0-2.793,4.139A12.651,12.651,0,0,0,65-39a12.651,12.651,0,0,0,1.016,5.053,13.129,13.129,0,0,0,2.793,4.139,13.129,13.129,0,0,0,4.139,2.793A12.651,12.651,0,0,0,78-26Z" transform="translate(0 104)" fill="#107c10"/>
</svg>
