<svg xmlns="http://www.w3.org/2000/svg" width="28" height="32" viewBox="0 0 28 32">
  <path id="Fabric_Icons" data-name="Fabric Icons" d="M20.781-13.2a13.385,13.385,0,0,1,3.836,2.055,13.571,13.571,0,0,1,2.906,3.055,13.928,13.928,0,0,1,1.836,3.8A14.4,14.4,0,0,1,30,0H28a12.254,12.254,0,0,0-.914-4.758,11.649,11.649,0,0,0-2.523-3.8,11.649,11.649,0,0,0-3.8-2.523A12.254,12.254,0,0,0,16-12a12.179,12.179,0,0,0-3.219.422,12.057,12.057,0,0,0-2.883,1.2A11.7,11.7,0,0,0,7.477-8.523,11.7,11.7,0,0,0,5.617-6.1a12.057,12.057,0,0,0-1.2,2.883A12.179,12.179,0,0,0,4,0H2a14.062,14.062,0,0,1,.656-4.3A13.925,13.925,0,0,1,4.516-8.078,13.73,13.73,0,0,1,7.43-11.109a14.18,14.18,0,0,1,3.82-2.078,9.826,9.826,0,0,1-2.187-1.594,9.928,9.928,0,0,1-1.648-2.086A10.242,10.242,0,0,1,6.367-19.32,9.844,9.844,0,0,1,6-22a9.779,9.779,0,0,1,.781-3.9,10.06,10.06,0,0,1,2.141-3.18,10.06,10.06,0,0,1,3.18-2.141A9.779,9.779,0,0,1,16-32a9.779,9.779,0,0,1,3.9.781,10.06,10.06,0,0,1,3.18,2.141,10.06,10.06,0,0,1,2.141,3.18A9.779,9.779,0,0,1,26-22a9.76,9.76,0,0,1-.367,2.672,10.132,10.132,0,0,1-1.047,2.438A10.345,10.345,0,0,1,22.945-14.8,9.674,9.674,0,0,1,20.781-13.2ZM8-22a7.7,7.7,0,0,0,.633,3.109,8.161,8.161,0,0,0,1.719,2.539,8.161,8.161,0,0,0,2.539,1.719A7.7,7.7,0,0,0,16-14a7.7,7.7,0,0,0,3.109-.633,8.161,8.161,0,0,0,2.539-1.719,8.161,8.161,0,0,0,1.719-2.539A7.7,7.7,0,0,0,24-22a7.7,7.7,0,0,0-.633-3.109,8.161,8.161,0,0,0-1.719-2.539,8.161,8.161,0,0,0-2.539-1.719A7.7,7.7,0,0,0,16-30a7.7,7.7,0,0,0-3.109.633,8.162,8.162,0,0,0-2.539,1.719,8.161,8.161,0,0,0-1.719,2.539A7.7,7.7,0,0,0,8-22Z" transform="translate(-2 32)" fill="#f8f8f8"/>
</svg>
