<svg xmlns="http://www.w3.org/2000/svg" width="22.5" height="36" viewBox="0 0 22.5 36">
  <path id="Fabric_Icons" data-name="Fabric Icons" d="M18-36a11.012,11.012,0,0,1,2.988.4,11.411,11.411,0,0,1,2.689,1.134A11.2,11.2,0,0,1,25.954-32.7a11.2,11.2,0,0,1,1.758,2.276,11.411,11.411,0,0,1,1.134,2.689,11.013,11.013,0,0,1,.4,2.988,9.021,9.021,0,0,1-.29,2.312,11.4,11.4,0,0,1-.835,2.188L18,0,7.875-20.25a11.4,11.4,0,0,1-.835-2.188,9.021,9.021,0,0,1-.29-2.312,11.012,11.012,0,0,1,.4-2.988,11.411,11.411,0,0,1,1.134-2.689A11.2,11.2,0,0,1,10.046-32.7a11.2,11.2,0,0,1,2.276-1.758A11.411,11.411,0,0,1,15.012-35.6,11.013,11.013,0,0,1,18-36Zm8.367,14.871q0-.018.009-.018t.009-.018a7.634,7.634,0,0,0,.668-1.74,7.582,7.582,0,0,0,.229-1.846,8.983,8.983,0,0,0-.729-3.6,9.418,9.418,0,0,0-2-2.953,9.418,9.418,0,0,0-2.953-2,8.983,8.983,0,0,0-3.6-.729,8.983,8.983,0,0,0-3.6.729,9.418,9.418,0,0,0-2.953,2,9.418,9.418,0,0,0-2,2.953,8.983,8.983,0,0,0-.729,3.6A7.582,7.582,0,0,0,8.947-22.9a7.634,7.634,0,0,0,.668,1.74q0,.018.009.018t.009.018L18-4.395ZM18-31.359a6.441,6.441,0,0,1,2.575.519,6.669,6.669,0,0,1,2.1,1.415,6.669,6.669,0,0,1,1.415,2.1,6.441,6.441,0,0,1,.519,2.575,6.441,6.441,0,0,1-.519,2.575,6.669,6.669,0,0,1-1.415,2.1,6.669,6.669,0,0,1-2.1,1.415A6.441,6.441,0,0,1,18-18.141a6.441,6.441,0,0,1-2.575-.519,6.669,6.669,0,0,1-2.1-1.415,6.669,6.669,0,0,1-1.415-2.1,6.441,6.441,0,0,1-.519-2.575,6.441,6.441,0,0,1,.519-2.575,6.669,6.669,0,0,1,1.415-2.1,6.669,6.669,0,0,1,2.1-1.415A6.441,6.441,0,0,1,18-31.359Zm0,11.25a4.561,4.561,0,0,0,1.811-.36,4.648,4.648,0,0,0,1.477-.993,4.648,4.648,0,0,0,.993-1.477,4.561,4.561,0,0,0,.36-1.811,4.561,4.561,0,0,0-.36-1.811,4.648,4.648,0,0,0-.993-1.477,4.648,4.648,0,0,0-1.477-.993A4.561,4.561,0,0,0,18-29.391a4.561,4.561,0,0,0-1.811.36,4.648,4.648,0,0,0-1.477.993,4.648,4.648,0,0,0-.993,1.477,4.561,4.561,0,0,0-.36,1.811,4.561,4.561,0,0,0,.36,1.811,4.648,4.648,0,0,0,.993,1.477,4.648,4.648,0,0,0,1.477.993A4.561,4.561,0,0,0,18-20.109Z" transform="translate(-6.75 36)" fill="#a6a6a6"/>
</svg>
