<svg xmlns="http://www.w3.org/2000/svg" width="110" height="82.5" viewBox="0 0 110 82.5">
  <path id="Fabric_Icons" data-name="Fabric Icons" d="M44.365-73.047a20.247,20.247,0,0,1,4.4,3.3,20.787,20.787,0,0,1,3.357,4.3,21.29,21.29,0,0,1,2.122,5A19.936,19.936,0,0,1,55-55H48.125a13.158,13.158,0,0,0-1.1-5.317,14.083,14.083,0,0,0-2.954-4.377,14.083,14.083,0,0,0-4.377-2.954,13.158,13.158,0,0,0-5.317-1.1,13.1,13.1,0,0,0-5.344,1.1,14.171,14.171,0,0,0-4.351,2.954,14.083,14.083,0,0,0-2.954,4.377A13.158,13.158,0,0,0,20.625-55,20.307,20.307,0,0,1,18.4-45.708a20.43,20.43,0,0,1-6.15,7.3,27.783,27.783,0,0,1,6.311,4.377,28,28,0,0,1,4.807,5.8,27.6,27.6,0,0,1,3.062,6.875,26.978,26.978,0,0,1,1.074,7.6H20.625a19.817,19.817,0,0,0-1.638-8,21.069,21.069,0,0,0-4.431-6.553A21.069,21.069,0,0,0,8-32.737a19.817,19.817,0,0,0-8-1.638,19.817,19.817,0,0,0-8,1.638,21.069,21.069,0,0,0-6.553,4.431,21.069,21.069,0,0,0-4.431,6.553,19.817,19.817,0,0,0-1.638,8H-27.5a26.978,26.978,0,0,1,1.074-7.6,27.6,27.6,0,0,1,3.062-6.875,28,28,0,0,1,4.807-5.8A27.783,27.783,0,0,1-12.246-38.4a20.43,20.43,0,0,1-6.15-7.3A20.307,20.307,0,0,1-20.625-55a13.158,13.158,0,0,0-1.1-5.317,14.083,14.083,0,0,0-2.954-4.377,14.083,14.083,0,0,0-4.377-2.954,13.158,13.158,0,0,0-5.317-1.1,13.1,13.1,0,0,0-5.344,1.1,14.171,14.171,0,0,0-4.351,2.954,14.083,14.083,0,0,0-2.954,4.377A13.158,13.158,0,0,0-48.125-55H-55a19.936,19.936,0,0,1,.752-5.452,21.29,21.29,0,0,1,2.122-5,20.787,20.787,0,0,1,3.357-4.3,20.247,20.247,0,0,1,4.4-3.3A13.762,13.762,0,0,1-47.131-77.4a13.555,13.555,0,0,1-.994-5.1,13.158,13.158,0,0,1,1.1-5.317,14.083,14.083,0,0,1,2.954-4.377,14.171,14.171,0,0,1,4.351-2.954,13.1,13.1,0,0,1,5.344-1.1,13.158,13.158,0,0,1,5.317,1.1,14.083,14.083,0,0,1,4.377,2.954,14.083,14.083,0,0,1,2.954,4.377,13.158,13.158,0,0,1,1.1,5.317,13.555,13.555,0,0,1-.994,5.1,13.762,13.762,0,0,1-2.766,4.351,20.051,20.051,0,0,1,7.2,6.66,20.92,20.92,0,0,1,7.439-6.768A20.074,20.074,0,0,1,0-75.625a20.074,20.074,0,0,1,9.749,2.471,20.92,20.92,0,0,1,7.439,6.768,20.051,20.051,0,0,1,7.2-6.66A13.762,13.762,0,0,1,21.619-77.4a13.555,13.555,0,0,1-.994-5.1,13.158,13.158,0,0,1,1.1-5.317,14.083,14.083,0,0,1,2.954-4.377,14.171,14.171,0,0,1,4.351-2.954,13.1,13.1,0,0,1,5.344-1.1,13.158,13.158,0,0,1,5.317,1.1,14.083,14.083,0,0,1,4.377,2.954,14.083,14.083,0,0,1,2.954,4.377,13.158,13.158,0,0,1,1.1,5.317,13.555,13.555,0,0,1-.994,5.1A13.762,13.762,0,0,1,44.365-73.047ZM-41.25-82.5a6.662,6.662,0,0,0,.537,2.686,6.987,6.987,0,0,0,1.477,2.175,6.987,6.987,0,0,0,2.175,1.477,6.662,6.662,0,0,0,2.686.537,6.662,6.662,0,0,0,2.686-.537,6.987,6.987,0,0,0,2.175-1.477,6.987,6.987,0,0,0,1.477-2.175A6.662,6.662,0,0,0-27.5-82.5a6.662,6.662,0,0,0-.537-2.686,6.987,6.987,0,0,0-1.477-2.175,6.987,6.987,0,0,0-2.175-1.477,6.662,6.662,0,0,0-2.686-.537,6.662,6.662,0,0,0-2.686.537,6.987,6.987,0,0,0-2.175,1.477,6.987,6.987,0,0,0-1.477,2.175A6.662,6.662,0,0,0-41.25-82.5ZM0-41.25a13.158,13.158,0,0,0,5.317-1.1,14.083,14.083,0,0,0,4.377-2.954,14.171,14.171,0,0,0,2.954-4.351A13.1,13.1,0,0,0,13.75-55a13.158,13.158,0,0,0-1.1-5.317,14.083,14.083,0,0,0-2.954-4.377,14.083,14.083,0,0,0-4.377-2.954A13.158,13.158,0,0,0,0-68.75a13.1,13.1,0,0,0-5.344,1.1,14.171,14.171,0,0,0-4.351,2.954,14.083,14.083,0,0,0-2.954,4.377A13.158,13.158,0,0,0-13.75-55a13.1,13.1,0,0,0,1.1,5.344,14.171,14.171,0,0,0,2.954,4.351,14.171,14.171,0,0,0,4.351,2.954A13.1,13.1,0,0,0,0-41.25ZM27.5-82.5a6.662,6.662,0,0,0,.537,2.686,6.987,6.987,0,0,0,1.477,2.175,6.987,6.987,0,0,0,2.175,1.477,6.662,6.662,0,0,0,2.686.537,6.662,6.662,0,0,0,2.686-.537,6.987,6.987,0,0,0,2.175-1.477,6.987,6.987,0,0,0,1.477-2.175A6.662,6.662,0,0,0,41.25-82.5a6.662,6.662,0,0,0-.537-2.686,6.987,6.987,0,0,0-1.477-2.175,6.987,6.987,0,0,0-2.175-1.477,6.662,6.662,0,0,0-2.686-.537,6.662,6.662,0,0,0-2.686.537,6.987,6.987,0,0,0-2.175,1.477,6.987,6.987,0,0,0-1.477,2.175A6.662,6.662,0,0,0,27.5-82.5Z" transform="translate(55 96.25)" fill="#ffb900"/>
</svg>
