<svg xmlns="http://www.w3.org/2000/svg" width="28" height="17.5" viewBox="0 0 28 17.5">
  <path id="Fabric_Icons" data-name="Fabric Icons" d="M14-17.5a5.117,5.117,0,0,1,2.037.41,5.292,5.292,0,0,1,1.675,1.128,5.292,5.292,0,0,1,1.128,1.675,5.117,5.117,0,0,1,.41,2.037,5.1,5.1,0,0,1-.41,2.044,5.313,5.313,0,0,1-1.128,1.668A5.292,5.292,0,0,1,16.037-7.41,5.117,5.117,0,0,1,14-7a5.1,5.1,0,0,1-2.044-.41,5.313,5.313,0,0,1-1.668-1.128A5.313,5.313,0,0,1,9.16-10.206a5.1,5.1,0,0,1-.41-2.044,5.117,5.117,0,0,1,.41-2.037,5.292,5.292,0,0,1,1.128-1.675,5.313,5.313,0,0,1,1.668-1.128A5.1,5.1,0,0,1,14-17.5Zm0,8.75a3.406,3.406,0,0,0,1.36-.273,3.535,3.535,0,0,0,1.114-.752,3.535,3.535,0,0,0,.752-1.114,3.406,3.406,0,0,0,.273-1.36,3.406,3.406,0,0,0-.273-1.36,3.535,3.535,0,0,0-.752-1.114,3.535,3.535,0,0,0-1.114-.752A3.406,3.406,0,0,0,14-15.75a3.406,3.406,0,0,0-1.36.273,3.535,3.535,0,0,0-1.114.752,3.535,3.535,0,0,0-.752,1.114,3.406,3.406,0,0,0-.273,1.36,3.406,3.406,0,0,0,.273,1.36,3.535,3.535,0,0,0,.752,1.114,3.535,3.535,0,0,0,1.114.752A3.406,3.406,0,0,0,14-8.75ZM14-24.5a15.846,15.846,0,0,1,3.883.485,15.141,15.141,0,0,1,3.637,1.429,13.77,13.77,0,0,1,3.1,2.331,11.692,11.692,0,0,1,2.263,3.192,11.5,11.5,0,0,1,.834,2.345A10.652,10.652,0,0,1,28-12.25H26.25a9.094,9.094,0,0,0-.492-3.021,9.506,9.506,0,0,0-1.36-2.57,10.889,10.889,0,0,0-2.044-2.078,12.965,12.965,0,0,0-2.536-1.545,13.888,13.888,0,0,0-2.851-.957A13.762,13.762,0,0,0,14-22.75a13.762,13.762,0,0,0-2.967.328,13.888,13.888,0,0,0-2.851.957A12.965,12.965,0,0,0,5.646-19.92,10.889,10.889,0,0,0,3.6-17.842a9.506,9.506,0,0,0-1.36,2.57A9.094,9.094,0,0,0,1.75-12.25H0a10.652,10.652,0,0,1,.287-2.468,11.5,11.5,0,0,1,.834-2.345,11.692,11.692,0,0,1,2.263-3.192,13.77,13.77,0,0,1,3.1-2.331,15.141,15.141,0,0,1,3.637-1.429A15.846,15.846,0,0,1,14-24.5Z" transform="translate(0 24.5)" fill="#f8f8f8"/>
</svg>
