<svg xmlns="http://www.w3.org/2000/svg" width="103.907" height="96.195" viewBox="0 0 103.907 96.195">
  <path id="Объединение_41" data-name="Объединение 41" d="M19.483,89.7,6.494,96.2V72.958A19.536,19.536,0,0,1,1.7,66.388a19.458,19.458,0,0,1-.178-15.5A19.635,19.635,0,0,1,11.9,40.487a18.954,18.954,0,0,1,7.586-1.522,18.713,18.713,0,0,1,7.56,1.549A19.706,19.706,0,0,1,37.418,50.888a18.7,18.7,0,0,1,1.547,7.56,19.165,19.165,0,0,1-1.7,7.94,19.542,19.542,0,0,1-4.8,6.571V96.2Zm6.494-4.059V76.815a18.269,18.269,0,0,1-6.241,1.117,20.32,20.32,0,0,1-6.748-1.117v8.828l6.5-3.247ZM14.435,46.474A13.087,13.087,0,0,0,7.509,53.4a13.054,13.054,0,0,0,0,10.1,13.087,13.087,0,0,0,6.926,6.926,13.076,13.076,0,0,0,10.1,0A13.087,13.087,0,0,0,31.457,63.5a13.076,13.076,0,0,0,0-10.1,13.087,13.087,0,0,0-6.926-6.926,13.076,13.076,0,0,0-10.1,0Zm89.47,37.951H39.485V77.932H97.413V32.471H71.436V6.494H6.494V37.628L0,41.5V0H76.054l27.853,27.855v56.57ZM77.932,25.977H92.8L77.932,11.112Z" fill="#f8f8f8"/>
</svg>
