<svg xmlns="http://www.w3.org/2000/svg" width="48" height="48" viewBox="0 0 48 48">
  <path id="Fabric_Icons" data-name="Fabric Icons" d="M0-48a23.641,23.641,0,0,1,6.375.855,24.271,24.271,0,0,1,5.742,2.414,23.833,23.833,0,0,1,4.863,3.75,23.833,23.833,0,0,1,3.75,4.863,24.271,24.271,0,0,1,2.414,5.742A23.641,23.641,0,0,1,24-24a23.641,23.641,0,0,1-.855,6.375,24.271,24.271,0,0,1-2.414,5.742A23.833,23.833,0,0,1,16.98-7.02a23.833,23.833,0,0,1-4.863,3.75A24.271,24.271,0,0,1,6.375-.855,23.641,23.641,0,0,1,0,0,23.641,23.641,0,0,1-6.375-.855,24.271,24.271,0,0,1-12.117-3.27,23.833,23.833,0,0,1-16.98-7.02a23.833,23.833,0,0,1-3.75-4.863,24.322,24.322,0,0,1-2.414-5.73A23.6,23.6,0,0,1-24-24a23.641,23.641,0,0,1,.855-6.375,24.271,24.271,0,0,1,2.414-5.742,23.833,23.833,0,0,1,3.75-4.863,23.833,23.833,0,0,1,4.863-3.75,24.322,24.322,0,0,1,5.73-2.414A23.6,23.6,0,0,1,0-48ZM18.961-33A20.032,20.032,0,0,0,16.8-36.574a21.348,21.348,0,0,0-2.812-3.059,21.76,21.76,0,0,0-3.352-2.461,20.182,20.182,0,0,0-3.773-1.758,19.928,19.928,0,0,1,1.523,2.484A25.478,25.478,0,0,1,9.6-38.66a28.227,28.227,0,0,1,.9,2.824q.375,1.43.656,2.836ZM21-24a20.715,20.715,0,0,0-.867-6H11.625q.188,1.5.281,2.988T12-24q0,1.523-.094,3.012T11.625-18h8.508A20.715,20.715,0,0,0,21-24ZM0-3a3.926,3.926,0,0,0,2.145-.633A7.78,7.78,0,0,0,3.984-5.3,13.16,13.16,0,0,0,5.5-7.629,27.249,27.249,0,0,0,6.68-10.266q.516-1.336.867-2.578T8.086-15H-8.086q.188.914.539,2.156t.867,2.578A27.249,27.249,0,0,0-5.5-7.629,13.16,13.16,0,0,0-3.984-5.3a7.78,7.78,0,0,0,1.84,1.664A3.926,3.926,0,0,0,0-3ZM8.6-18q.188-1.5.293-2.988T9-24q0-1.523-.105-3.012T8.6-30H-8.6q-.187,1.5-.293,2.988T-9-24q0,1.523.105,3.012T-8.6-18ZM-21-24a20.715,20.715,0,0,0,.867,6h8.508q-.187-1.5-.281-2.988T-12-24q0-1.523.094-3.012T-11.625-30h-8.508A20.715,20.715,0,0,0-21-24ZM0-45a3.926,3.926,0,0,0-2.145.633A7.78,7.78,0,0,0-3.984-42.7,13.16,13.16,0,0,0-5.5-40.371,27.249,27.249,0,0,0-6.68-37.734Q-7.2-36.4-7.547-35.156T-8.086-33H8.086q-.187-.914-.539-2.156T6.68-37.734A27.249,27.249,0,0,0,5.5-40.371,13.16,13.16,0,0,0,3.984-42.7a7.78,7.78,0,0,0-1.84-1.664A3.926,3.926,0,0,0,0-45Zm-6.867,1.148a20.182,20.182,0,0,0-3.773,1.758,21.76,21.76,0,0,0-3.352,2.461A21.348,21.348,0,0,0-16.8-36.574,20.032,20.032,0,0,0-18.961-33h7.8q.281-1.406.656-2.836a28.227,28.227,0,0,1,.9-2.824,25.478,25.478,0,0,1,1.207-2.707A19.928,19.928,0,0,1-6.867-43.852ZM-18.961-15A20.032,20.032,0,0,0-16.8-11.426a21.348,21.348,0,0,0,2.813,3.059,21.76,21.76,0,0,0,3.352,2.461A20.182,20.182,0,0,0-6.867-4.148,19.928,19.928,0,0,1-8.391-6.633,25.478,25.478,0,0,1-9.6-9.34a28.227,28.227,0,0,1-.9-2.824q-.375-1.43-.656-2.836ZM6.867-4.148a20.182,20.182,0,0,0,3.773-1.758,21.76,21.76,0,0,0,3.352-2.461A21.348,21.348,0,0,0,16.8-11.426,20.032,20.032,0,0,0,18.961-15h-7.8q-.281,1.406-.656,2.836A28.227,28.227,0,0,1,9.6-9.34,25.478,25.478,0,0,1,8.391-6.633,19.928,19.928,0,0,1,6.867-4.148Z" transform="translate(24 48)" fill="#f8f8f8"/>
</svg>
