<svg xmlns="http://www.w3.org/2000/svg" width="27.998" height="26.25" viewBox="0 0 27.998 26.25">
  <path id="Fabric_Icons" data-name="Fabric Icons" d="M17.5-17.5h-1.75v1.75H17.5ZM12.251-7H10.5v1.75h1.75ZM7-17.5H5.251v1.75H7Zm5.25,0H10.5v1.75h1.75ZM17.5-14h-1.75v1.75H17.5Zm5.25,0H21v1.75h1.75ZM7-14H5.251v1.75H7Zm5.25,0H10.5v1.75h1.75Zm5.25,3.5h-1.75v1.75H17.5Zm5.25,0H21v1.75h1.75ZM7-10.5H5.251v1.75H7Zm5.25,0H10.5v1.75h1.75ZM17.5-7h-1.75v1.75H17.5Zm5.25,0H21v1.75h1.75ZM0-26.25v24.5H28v-24.5H22.75V-28H21v1.75H7V-28H5.251v1.75ZM26.25-24.5V-21H1.751v-3.5h3.5v1.75H7V-24.5H21v1.75h1.75V-24.5Zm-24.5,21V-19.25h24.5V-3.5Z" transform="translate(-0.002 28)" fill="#f8f8f8"/>
</svg>
