<svg xmlns="http://www.w3.org/2000/svg" width="110" height="110" viewBox="0 0 110 110">
  <path id="Fabric_Icons" data-name="Fabric Icons" d="M-55-55a54.086,54.086,0,0,0,1.96,14.636,55.738,55.738,0,0,0,5.532,13.132,54.617,54.617,0,0,0,8.594,11.145A54.617,54.617,0,0,0-27.769-7.493,55.621,55.621,0,0,0-14.609-1.96,54.176,54.176,0,0,0,0,0,54.086,54.086,0,0,0,14.636-1.96,55.738,55.738,0,0,0,27.769-7.493a54.617,54.617,0,0,0,11.145-8.594,54.617,54.617,0,0,0,8.594-11.145A55.621,55.621,0,0,0,53.04-40.391,54.176,54.176,0,0,0,55-55a3.3,3.3,0,0,0-1.021-2.417,3.3,3.3,0,0,0-2.417-1.021,3.3,3.3,0,0,0-2.417,1.021A3.3,3.3,0,0,0,48.125-55a47.079,47.079,0,0,1-1.719,12.783A48.244,48.244,0,0,1,41.545-30.75,48.492,48.492,0,0,1,34-21a48.492,48.492,0,0,1-9.749,7.546A48.129,48.129,0,0,1,12.756-8.594,47.17,47.17,0,0,1,0-6.875,47.17,47.17,0,0,1-12.756-8.594,48.129,48.129,0,0,1-24.25-13.455,48.492,48.492,0,0,1-34-21a48.492,48.492,0,0,1-7.546-9.749,48.129,48.129,0,0,1-4.861-11.494A47.17,47.17,0,0,1-48.125-55a47.17,47.17,0,0,1,1.719-12.756A48.129,48.129,0,0,1-41.545-79.25,48.492,48.492,0,0,1-34-89a48.492,48.492,0,0,1,9.749-7.546,48.129,48.129,0,0,1,11.494-4.861A47.169,47.169,0,0,1,0-103.125a3.3,3.3,0,0,0,2.417-1.021,3.3,3.3,0,0,0,1.021-2.417,3.3,3.3,0,0,0-1.021-2.417A3.3,3.3,0,0,0,0-110a54.176,54.176,0,0,0-14.609,1.96,55.621,55.621,0,0,0-13.159,5.532,54.617,54.617,0,0,0-11.145,8.594,54.617,54.617,0,0,0-8.594,11.145A55.621,55.621,0,0,0-53.04-69.609,54.177,54.177,0,0,0-55-55ZM0-20.625a3.3,3.3,0,0,0,2.417-1.021,3.3,3.3,0,0,0,1.021-2.417,3.3,3.3,0,0,0-1.021-2.417A3.3,3.3,0,0,0,0-27.5a26.477,26.477,0,0,1-10.688-2.175,28.055,28.055,0,0,1-8.728-5.908,28.055,28.055,0,0,1-5.908-8.728A26.477,26.477,0,0,1-27.5-55a26.477,26.477,0,0,1,2.175-10.688,28.055,28.055,0,0,1,5.908-8.728,28.055,28.055,0,0,1,8.728-5.908A26.477,26.477,0,0,1,0-82.5a3.3,3.3,0,0,0,2.417-1.021,3.3,3.3,0,0,0,1.021-2.417,3.3,3.3,0,0,0-1.021-2.417A3.3,3.3,0,0,0,0-89.375a33.615,33.615,0,0,0-13.4,2.686,34.58,34.58,0,0,0-10.93,7.358A34.58,34.58,0,0,0-31.689-68.4,33.615,33.615,0,0,0-34.375-55a33.615,33.615,0,0,0,2.686,13.4,34.58,34.58,0,0,0,7.358,10.93A34.58,34.58,0,0,0-13.4-23.311,33.615,33.615,0,0,0,0-20.625Z" transform="translate(55 110)" fill="#f8f8f8"/>
</svg>
