<svg xmlns="http://www.w3.org/2000/svg" width="31.5" height="36" viewBox="0 0 31.5 36">
  <path id="Fabric_Icons" data-name="Fabric Icons" d="M5.379-14.854a15.058,15.058,0,0,1,4.315,2.312,15.267,15.267,0,0,1,3.27,3.437,15.669,15.669,0,0,1,2.065,4.271A16.2,16.2,0,0,1,15.75,0H13.5a13.786,13.786,0,0,0-1.028-5.353,13.1,13.1,0,0,0-2.839-4.28,13.1,13.1,0,0,0-4.28-2.839A13.786,13.786,0,0,0,0-13.5a13.7,13.7,0,0,0-3.621.475,13.565,13.565,0,0,0-3.243,1.345A13.163,13.163,0,0,0-9.589-9.589a13.163,13.163,0,0,0-2.092,2.725,13.565,13.565,0,0,0-1.345,3.243A13.7,13.7,0,0,0-13.5,0h-2.25a15.82,15.82,0,0,1,.738-4.843A15.666,15.666,0,0,1-12.92-9.088,15.447,15.447,0,0,1-9.642-12.5a15.953,15.953,0,0,1,4.3-2.338A11.054,11.054,0,0,1-7.8-16.629a11.169,11.169,0,0,1-1.854-2.347,11.523,11.523,0,0,1-1.178-2.76,11.075,11.075,0,0,1-.413-3.015,11,11,0,0,1,.879-4.386,11.317,11.317,0,0,1,2.408-3.577,11.317,11.317,0,0,1,3.577-2.408A11,11,0,0,1,0-36a11,11,0,0,1,4.386.879,11.317,11.317,0,0,1,3.577,2.408,11.317,11.317,0,0,1,2.408,3.577,11,11,0,0,1,.879,4.386,10.98,10.98,0,0,1-.413,3.006A11.4,11.4,0,0,1,9.659-19a11.638,11.638,0,0,1-1.846,2.347A10.884,10.884,0,0,1,5.379-14.854ZM-9-24.75a8.665,8.665,0,0,0,.712,3.5A9.182,9.182,0,0,0-6.354-18.4,9.182,9.182,0,0,0-3.5-16.462,8.665,8.665,0,0,0,0-15.75a8.665,8.665,0,0,0,3.5-.712A9.182,9.182,0,0,0,6.354-18.4a9.182,9.182,0,0,0,1.934-2.856A8.665,8.665,0,0,0,9-24.75a8.665,8.665,0,0,0-.712-3.5A9.182,9.182,0,0,0,6.354-31.1,9.182,9.182,0,0,0,3.5-33.038,8.665,8.665,0,0,0,0-33.75a8.665,8.665,0,0,0-3.5.712A9.182,9.182,0,0,0-6.354-31.1a9.182,9.182,0,0,0-1.934,2.856A8.665,8.665,0,0,0-9-24.75Z" transform="translate(15.75 36)" fill="#f8f8f8"/>
</svg>
