<svg xmlns="http://www.w3.org/2000/svg" width="48" height="27" viewBox="0 0 48 27">
  <path id="Fabric_Icons" data-name="Fabric Icons" d="M30-36a1.41,1.41,0,0,1,.68.164L48-27.187V-24a1.442,1.442,0,0,0-1.055.445A1.441,1.441,0,0,0,46.5-22.5v3a10.129,10.129,0,0,1-.832,4.09,10.7,10.7,0,0,1-2.25,3.328,10.7,10.7,0,0,1-3.328,2.25A10.129,10.129,0,0,1,36-9a10.129,10.129,0,0,1-4.09-.832,10.7,10.7,0,0,1-3.328-2.25,10.7,10.7,0,0,1-2.25-3.328A10.129,10.129,0,0,1,25.5-19.5a1.442,1.442,0,0,0-.445-1.055A1.442,1.442,0,0,0,24-21a1.442,1.442,0,0,0-1.055.445A1.442,1.442,0,0,0,22.5-19.5a10.129,10.129,0,0,1-.832,4.09,10.7,10.7,0,0,1-2.25,3.328,10.7,10.7,0,0,1-3.328,2.25A10.129,10.129,0,0,1,12-9a10.129,10.129,0,0,1-4.09-.832,10.7,10.7,0,0,1-3.328-2.25,10.7,10.7,0,0,1-2.25-3.328A10.129,10.129,0,0,1,1.5-19.5v-3a1.442,1.442,0,0,0-.445-1.055A1.442,1.442,0,0,0,0-24v-3.187l17.32-8.648A1.41,1.41,0,0,1,18-36a1.442,1.442,0,0,1,1.055.445q.234.234.574.527a8.065,8.065,0,0,1,.645.621,4.1,4.1,0,0,1,.516.68A1.394,1.394,0,0,1,21-33a1.442,1.442,0,0,1-.445,1.055A1.442,1.442,0,0,1,19.5-31.5a1.4,1.4,0,0,1-1-.387q-.41-.387-.809-.785L6.352-27H18a4.716,4.716,0,0,1,1.535.223,5.217,5.217,0,0,1,1.148.551,5.564,5.564,0,0,1,.9.727q.4.4.762.727a4.177,4.177,0,0,0,.762.551A1.794,1.794,0,0,0,24-24a1.794,1.794,0,0,0,.891-.223,4.177,4.177,0,0,0,.762-.551q.363-.328.762-.727a5.564,5.564,0,0,1,.9-.727,5.217,5.217,0,0,1,1.148-.551A4.716,4.716,0,0,1,30-27H41.648L30.3-32.672q-.4.4-.809.785a1.4,1.4,0,0,1-1,.387,1.442,1.442,0,0,1-1.055-.445A1.442,1.442,0,0,1,27-33a1.394,1.394,0,0,1,.211-.727,4.1,4.1,0,0,1,.516-.68,8.066,8.066,0,0,1,.645-.621q.34-.293.574-.527A1.442,1.442,0,0,1,30-36ZM19.5-21a2.932,2.932,0,0,0-.234-1.16,3.012,3.012,0,0,0-.645-.961,3.012,3.012,0,0,0-.961-.645A2.933,2.933,0,0,0,16.5-24H6a1.442,1.442,0,0,0-1.055.445A1.442,1.442,0,0,0,4.5-22.5v3a7.347,7.347,0,0,0,.586,2.918,7.527,7.527,0,0,0,1.605,2.391,7.527,7.527,0,0,0,2.391,1.605A7.347,7.347,0,0,0,12-12a7.263,7.263,0,0,0,2.906-.586,7.563,7.563,0,0,0,2.379-1.605A7.69,7.69,0,0,0,18.9-16.582a7.223,7.223,0,0,0,.6-2.918ZM36-12a7.263,7.263,0,0,0,2.906-.586,7.563,7.563,0,0,0,2.379-1.605A7.69,7.69,0,0,0,42.9-16.582a7.223,7.223,0,0,0,.6-2.918q0-.516-.023-1.1t-.023-1.172a11.419,11.419,0,0,1,.059-1.16A4.173,4.173,0,0,1,43.758-24H31.5a2.932,2.932,0,0,0-1.16.234,3.012,3.012,0,0,0-.961.645,3.012,3.012,0,0,0-.645.961A2.932,2.932,0,0,0,28.5-21v1.5a7.347,7.347,0,0,0,.586,2.918,7.527,7.527,0,0,0,1.605,2.391,7.527,7.527,0,0,0,2.391,1.605A7.347,7.347,0,0,0,36-12Z" transform="translate(0 36)" fill="#f8f8f8"/>
</svg>
