<svg xmlns="http://www.w3.org/2000/svg" width="28" height="28" viewBox="0 0 28 28">
  <path id="Fabric_Icons" data-name="Fabric Icons" d="M18.375-28a9.508,9.508,0,0,1,2.557.342,9.51,9.51,0,0,1,2.3.971,9.749,9.749,0,0,1,1.948,1.511,9.749,9.749,0,0,1,1.511,1.948,9.51,9.51,0,0,1,.971,2.3A9.508,9.508,0,0,1,28-18.375a9.508,9.508,0,0,1-.342,2.557,9.51,9.51,0,0,1-.971,2.3,9.749,9.749,0,0,1-1.511,1.948,9.749,9.749,0,0,1-1.948,1.511,9.509,9.509,0,0,1-2.3.971,9.508,9.508,0,0,1-2.557.342A9.433,9.433,0,0,1,15.1-9.324a9.828,9.828,0,0,1-2.878-1.654L1.49-.26A.841.841,0,0,1,.875,0,.841.841,0,0,1,.26-.26.841.841,0,0,1,0-.875.841.841,0,0,1,.26-1.49L10.979-12.223A9.828,9.828,0,0,1,9.324-15.1a9.433,9.433,0,0,1-.574-3.274,9.508,9.508,0,0,1,.342-2.557,9.509,9.509,0,0,1,.971-2.3,9.749,9.749,0,0,1,1.511-1.948,9.749,9.749,0,0,1,1.948-1.511,9.51,9.51,0,0,1,2.3-.971A9.508,9.508,0,0,1,18.375-28Zm0,17.5a7.619,7.619,0,0,0,3.063-.622,8,8,0,0,0,2.5-1.688,8,8,0,0,0,1.688-2.5,7.619,7.619,0,0,0,.622-3.062,7.619,7.619,0,0,0-.622-3.062,8,8,0,0,0-1.688-2.5,8,8,0,0,0-2.5-1.688,7.619,7.619,0,0,0-3.062-.622,7.619,7.619,0,0,0-3.062.622,8,8,0,0,0-2.5,1.688,8,8,0,0,0-1.688,2.5,7.619,7.619,0,0,0-.622,3.063,7.619,7.619,0,0,0,.622,3.063,8,8,0,0,0,1.688,2.5,8,8,0,0,0,2.5,1.688A7.619,7.619,0,0,0,18.375-10.5Z" transform="translate(0 28)" fill="#f8f8f8"/>
</svg>
