<svg xmlns="http://www.w3.org/2000/svg" width="164" height="163.006" viewBox="0 0 164 163.006">
  <g id="Сгруппировать_10315" data-name="Сгруппировать 10315" transform="translate(-224 -59.2)">
    <g id="logo-uz" transform="translate(224 59.2)">
      <g id="Сгруппировать_50" data-name="Сгруппировать 50">
        <g id="Сгруппировать_49" data-name="Сгруппировать 49">
          <path id="Контур_6333" data-name="Контур 6333" d="M76.708,82.011a2.885,2.885,0,0,1,2.824,2.825,2.271,2.271,0,0,1-1.412,2.219v6.658l-4.64,5.044v9.281a1.614,1.614,0,1,1-3.228,0V98.151h0v-.4h0l.2-.2h0l4.237-4.237V87.66a3.056,3.056,0,0,1-1.412-2.219c.605-2.219,2.017-3.43,3.43-3.43ZM61.376.1A57.412,57.412,0,0,0,42.413,10.995,53.265,53.265,0,0,0,28.694,29.959a52.01,52.01,0,0,0-3.833,14.324C23.449,57.8,28.9,69.7,39.185,78.581c1.614,1.412,3.026,2.623,4.438,4.035,1.009,1.211,2.017,2.018,2.421,3.632a.2.2,0,0,0,.2.2,9.086,9.086,0,0,1-1.816,2.018,3.8,3.8,0,0,0-.4-1.614,7.238,7.238,0,0,0-2.017-2.825A40.34,40.34,0,0,0,37.571,80.2C26.677,70.713,21.028,58.406,22.44,43.88a62.461,62.461,0,0,1,3.833-14.93c5.245-11.1,12.1-18.965,22.8-25.017C34.747,8.574,12.353,22.9,8.52,42.871c-.2-.4-.807-1.412-1.21-2.018C1.661,53.362-.961,73.134,5.293,83.221c-1.009-.4-1.816-.807-2.017-1.412,1.614,7.465,4.237,20.579,15.332,20.377a18.894,18.894,0,0,1-7.464.2c2.623,4.842,7.061,11.5,13.517,11.1a10.867,10.867,0,0,1-4.237,1.614c2.017,2.219,5.85,6.86,12.1,6.053a6.135,6.135,0,0,1-3.833,1.412,48.205,48.205,0,0,0,9.28,5.851c.4,1.009,1.009,2.018,1.412,3.026a62.908,62.908,0,0,1-14.525-9.684,2.991,2.991,0,0,0,1.412-.2c-4.842-1.816-7.061-5.246-9.28-7.667a2.991,2.991,0,0,0,1.412-.2c-5.043-2.421-8.473-9.281-10.692-13.517a3.42,3.42,0,0,0,2.017,0C3.88,94.519,1.863,85.441.653,77.976c.4.2.605.4.807.4C-.961,67.485-.558,52.959,7.31,36.819a1.575,1.575,0,0,0,.807.807C15.581,16.24,38.176,1.916,61.376.1ZM91.234,152.22a5.5,5.5,0,0,0-2.623,3.026,14.343,14.343,0,0,1-5.649,2.018,17.7,17.7,0,0,0,7.263-.4,11.209,11.209,0,0,1,1.009-4.64Zm5.649-6.86v2.219a8.557,8.557,0,0,1-3.631,1.412,11.232,11.232,0,0,0,6.859-.807,6.153,6.153,0,0,1-3.228-2.825Zm-5.043,5.649a13.155,13.155,0,0,0,12.508-2.018,22.409,22.409,0,0,1-8.675-8.675l1.816-1.614c2.017,4.439,5.85,7.667,10.692,9.684a15.418,15.418,0,0,1-12.306,5.649,6.09,6.09,0,0,0-.605,7.061c-7.868,1.009-12.508,2.219-17.753-2.018l.4-2.421c2.017,1.412,3.228,2.421,5.649,2.825a19.442,19.442,0,0,0,4.842,0,24.716,24.716,0,0,1,3.833-.4c-.2-2.018.2-4.439,1.614-5.851-.807-1.009-1.614-1.412-2.017-2.219ZM48.868,152.22a5.5,5.5,0,0,1,2.623,3.026,14.343,14.343,0,0,0,5.649,2.018,17.7,17.7,0,0,1-7.263-.4,11.208,11.208,0,0,0-1.009-4.64Zm-5.649-6.86v2.219a8.557,8.557,0,0,0,3.631,1.412,11.232,11.232,0,0,1-6.859-.807,6.153,6.153,0,0,0,3.228-2.825Zm5.043,5.649a13.155,13.155,0,0,1-12.508-2.018,22.409,22.409,0,0,0,8.675-8.675L42.614,138.7c-2.017,4.439-5.85,7.667-10.692,9.684a15.418,15.418,0,0,0,12.306,5.649,6.09,6.09,0,0,1,.605,7.061c7.868,1.009,12.508,2.219,17.753-2.018l-.4-2.421c-2.017,1.412-3.228,2.421-5.649,2.825a19.442,19.442,0,0,1-4.842,0,24.716,24.716,0,0,0-3.833-.4c.2-2.018-.2-4.439-1.614-5.851a9.481,9.481,0,0,0,2.017-2.219Zm45.593-64.56a9.086,9.086,0,0,0,1.816,2.018,3.8,3.8,0,0,1,.4-1.614,7.238,7.238,0,0,1,2.017-2.825,40.341,40.341,0,0,1,4.438-3.833c10.894-9.482,16.543-21.789,15.13-36.315a62.46,62.46,0,0,0-3.833-14.93c-5.245-11.3-12.1-19.166-22.8-25.017,14.324,4.64,36.918,18.763,40.751,38.736.2-.4.807-1.412,1.21-2.018,5.649,12.509,8.07,32.482,2.017,42.368,1.009-.4,1.816-.807,2.017-1.412-1.614,7.465-4.237,20.579-15.332,20.377a18.894,18.894,0,0,0,7.464.2c-2.623,4.842-7.061,11.5-13.517,11.1a10.867,10.867,0,0,0,4.237,1.614c-2.017,2.219-5.85,6.86-12.1,6.053a6.135,6.135,0,0,0,3.833,1.412,48.206,48.206,0,0,1-9.28,5.851c-.4,1.009-1.009,2.018-1.412,3.026a62.908,62.908,0,0,0,14.525-9.684,2.991,2.991,0,0,1-1.412-.2c4.842-1.816,7.061-5.246,9.28-7.667a2.991,2.991,0,0,1-1.412-.2c5.043-2.421,8.473-9.281,10.692-13.517a3.42,3.42,0,0,1-2.017,0c5.85-5.649,7.868-14.728,9.078-22.193-.4.2-.605.4-.807.4,2.421-10.895,2.017-25.421-5.85-41.561a1.575,1.575,0,0,1-.807.807C124.722,16.24,102.128,1.916,78.726.1A57.412,57.412,0,0,1,97.689,10.995a53.265,53.265,0,0,1,13.718,18.965,52.011,52.011,0,0,1,3.833,14.324c1.412,13.517-4.035,25.421-14.324,34.3-1.614,1.412-3.026,2.623-4.438,4.035a18.286,18.286,0,0,0-2.623,3.833ZM67.63,70.511c-2.219-.807-3.026-3.026-2.017-5.649,0,1.816.605,3.026,2.017,3.632a3.446,3.446,0,0,0,1.412-4.035c1.009,2.623.605,5.246-1.412,6.053ZM84.173,59.818a7.128,7.128,0,0,0-3.43-.807c-.605,0-1.21-.4-1.009-1.614-1.21,2.623-1.614,4.237-5.043,3.43-2.017-.4-2.824,1.211-2.421,2.825.2,1.009.605,2.421-.4,3.43a4.7,4.7,0,0,0-2.219-2.825c1.816,2.421,1.009,4.035.605,4.842,4.035-.807,4.035,2.421,3.43,4.035,1.009,0,2.017.2,2.623.2a40.989,40.989,0,0,1-2.017-9.886c0-.605,0-.807.4-.605,2.219.4,4.438,0,5.85-2.018a8.794,8.794,0,0,1,5.85,1.816c.4-3.632.605-7.061-3.833-8.474-.605-2.018-2.219-2.825-4.438-2.623-2.824-4.439-13.113.2-17.148-2.623-1.412-1.009-1.816-2.623-2.017-4.237-1.412,1.412-2.421,2.219-3.026,4.237A8.853,8.853,0,0,0,57.341,57.2a7.857,7.857,0,0,0,4.64,3.026c-.2.2-.4.4-.4.605-2.219,3.632-2.017,9.079-2.017,13.316.605-.2,1.412-.2,2.017-.4-.605-2.018,0-4.237,2.824-4.439-.4-.807-1.009-2.219.605-4.842a3.644,3.644,0,0,0-2.219,2.825,3.2,3.2,0,0,1-.4-3.228,9.837,9.837,0,0,1,.605-1.412v-.2c2.017-3.833,8.877-1.412,10.692-7.263a8.2,8.2,0,0,1-2.017,1.816c-1.21.605-2.017-1.816-3.631-1.816a2.339,2.339,0,0,1,.807,2.018c-.2.807-.605,1.009-1.21.4s-1.009-1.816-2.017-2.018a1.927,1.927,0,0,1,.4,2.018c-.2.807-.807,1.211-1.412.4-.4-.4-.605-1.211-1.21-1.614A1.346,1.346,0,0,1,61.376,57.8a7.085,7.085,0,0,1-3.631-3.632,6.737,6.737,0,0,1,.2-5.246v-.2c3.631,6.658,16.744.2,18.358,4.439l.2.807h.807c1.412-.2,2.824-.2,3.026,1.614v.807l.605.2a2.966,2.966,0,0,1,3.228,3.228ZM63.394,73.537a5.756,5.756,0,0,1,1.412-1.614c-.2.605-.4,1.009-.605,1.614Zm8.07-.2a6.148,6.148,0,0,0-1.412-2.018,3.673,3.673,0,0,1,2.623,2.018Zm-6.052,0c0-.4.2-.807.2-1.211a1.512,1.512,0,0,0,.2,1.009l-.4.2Zm4.035,0c0-.4-.2-1.009-.2-1.614a6.041,6.041,0,0,1,.807,1.614ZM20.826,51.345c-.4,12.509,4.842,23,15.736,33.087,2.219,2.421,2.421,5.246,3.228,7.667A4.22,4.22,0,0,0,41,91.291c-.2-1.211-.2-2.018-.4-2.825a4.692,4.692,0,0,1,1.412,2.219c.4-.2.605-.605,1.009-.807,0-.4-.2-.807-.2-1.211a3.741,3.741,0,0,0-.4-1.412c-.807-2.018-4.237-4.64-5.85-5.851-9.28-7.667-15.13-18.158-15.736-30.061Zm.4,18.763c-13.113-11.7-9.885-32.28.2-40.754a39.257,39.257,0,0,0-.807,14.526A58.759,58.759,0,0,1,24.66,28.345,56.6,56.6,0,0,1,35.352,11.8C25.466,18.056,15.178,27.74,11.345,38.634,8.319,48.52,9.731,63.046,21.23,70.108ZM6.7,48.924C1.056,67.081,2.872,89.476,20.221,84.634,9.529,85.037,5.7,78.379,6.7,63.45c2.623,6.456,8.473,9.886,13.718,11.7C12.152,69.3,7.108,62.643,6.7,48.924ZM6.5,87.055c2.623,13.517,11.5,14.123,16.744,9.281-6.052,3.228-10.289.4-12.306-4.237,5.043.4,7.464-1.009,9.885-3.026A16.458,16.458,0,0,1,6.5,87.055Zm8.473,17.956c6.254,9.684,12.911,5.044,14.525,1.614-2.824,2.421-7.061,2.825-9.28.2a11.443,11.443,0,0,0,5.649-5.447,16.537,16.537,0,0,1-10.894,3.632Zm16.946,4.035a12.512,12.512,0,0,1-7.868,6.86c3.228,3.632,8.473,4.237,10.49,1.412,0-.605-.2-1.009-.2-1.614-1.412,1.614-3.43,2.018-5.649.605a13.994,13.994,0,0,0,3.228-7.263Zm4.438,14.93a12.537,12.537,0,0,0-.605-2.018,4.121,4.121,0,0,1-2.623,1.614c1.412.807,2.623.807,3.228.4ZM22.239,74.143C20.02,86.449,26.072,85.037,29.7,84.634c-3.43-.605-6.254-2.018-6.052-5.649A11.386,11.386,0,0,0,29.7,80.6c-4.438-1.816-6.456-5.246-7.464-6.456Zm.2,12.307c-.2,10.895,6.456,8.272,8.877,5.851-3.228,1.211-5.85.605-6.052-2.421a7.638,7.638,0,0,0,5.649-2.018c-5.245,1.412-7.263-.4-8.473-1.412Zm2.623,10.895c3.026,7.667,6.456,5.649,8.473,2.825V99.16c-2.017,1.816-4.035,2.018-4.842.2a6.914,6.914,0,0,0,3.833-4.64c-3.631,3.43-6.254,2.825-7.464,2.623Zm4.64,7.667a14.781,14.781,0,0,0,3.833,4.035,38.877,38.877,0,0,1-.2-4.842,5.429,5.429,0,0,1-3.631.807Zm1.614-20.377c.2,8.07,4.035,6.456,6.052,5.649-2.017.2-4.237-.2-4.237-2.623a7.364,7.364,0,0,0,3.631,0,10.544,10.544,0,0,1-5.447-3.026ZM32.729,92.5a15.534,15.534,0,0,0,1.21,3.026v-.605l1.009-.4c0-.2,0-.2-.2-.4A4.614,4.614,0,0,0,37.773,91.9c-2.824,1.614-4.438,1.009-5.043.605ZM17.6,39.038c-3.228,6.053-3.833,18.359,3.43,27.035-1.816-2.219-4.237-10.289-3.228-16.947a20.872,20.872,0,0,1-.2-10.088Zm-8.07,34.3c1.21,5.447,4.035,8.675,9.28,8.877-2.017-1.009-3.833-2.018-4.842-3.43a8.559,8.559,0,0,0,4.438-.4,16.368,16.368,0,0,1-8.877-5.044Zm7.263,20.982a4.251,4.251,0,0,0,4.842.605,2.291,2.291,0,0,1-1.614-.605,2.179,2.179,0,0,0,.605-1.412,5.659,5.659,0,0,1-3.833,1.412Zm7.263,12.105c1.412.2,2.824.4,4.035-1.009a1.706,1.706,0,0,1-1.412,0,2.8,2.8,0,0,0,0-1.816,5.122,5.122,0,0,1-2.623,2.825Zm7.464,8.474a3.309,3.309,0,0,0,2.421-1.412v-.807c-.2,0-.4.2-.605,0a3.059,3.059,0,0,0-.807-1.614,4.832,4.832,0,0,1-1.009,3.833Zm87.958-63.552c.4,12.509-4.842,23-15.736,33.087-2.219,2.421-2.421,5.246-3.228,7.667a4.22,4.22,0,0,1-1.21-.807c.2-1.211.2-2.018.4-2.825a4.692,4.692,0,0,0-1.412,2.219c-.4-.2-.605-.605-1.009-.807,0-.4.2-.807.2-1.211a3.74,3.74,0,0,1,.4-1.412c.807-2.018,4.237-4.64,5.85-5.851a43.038,43.038,0,0,0,15.736-30.061Zm-.807,18.763c13.315-11.9,9.885-32.482-.2-40.955a39.257,39.257,0,0,1,.807,14.526,58.759,58.759,0,0,0-4.035-15.535A56.6,56.6,0,0,0,104.548,11.6c9.885,6.254,20.174,15.938,24.007,26.833,3.43,10.088,1.816,24.614-9.885,31.675ZM133.4,48.924c5.649,18.158,3.833,40.552-13.517,35.71,10.692.4,14.525-6.254,13.517-21.184-2.623,6.456-8.473,9.886-13.718,11.7C127.95,69.3,132.994,62.643,133.4,48.924Zm.2,38.131c-2.623,13.517-11.5,14.123-16.744,9.281,6.052,3.228,10.289.4,12.306-4.237-5.043.4-7.464-1.009-9.885-3.026,4.438,1.211,9.078,1.412,14.324-2.018Zm-8.473,17.956c-6.254,9.684-12.911,5.044-14.525,1.614,2.824,2.421,7.061,2.825,9.28.2a11.443,11.443,0,0,1-5.649-5.447,17.281,17.281,0,0,0,10.894,3.632Zm-16.744,4.035c1.816,3.43,4.438,5.851,7.868,6.658-3.228,3.632-8.473,4.237-10.49,1.412,0-.605.2-1.009.2-1.614,1.412,1.614,3.43,2.018,5.649.605a12.706,12.706,0,0,1-3.228-7.061Zm-4.438,14.93a12.537,12.537,0,0,1,.605-2.018,4.121,4.121,0,0,0,2.623,1.614c-1.614.807-2.623.807-3.228.4Zm13.92-49.832c2.219,12.307-3.833,10.895-7.464,10.491,3.43-.605,6.254-2.018,6.052-5.649C114.837,80.4,112.215,80.6,110.4,80.6c4.438-1.816,6.456-5.246,7.464-6.456Zm-.2,12.307c.2,10.895-6.456,8.272-8.877,5.851,3.228,1.211,5.85.605,6.052-2.421a7.638,7.638,0,0,1-5.649-2.018c5.043,1.412,7.464-.4,8.473-1.412Zm-2.623,10.895c-3.026,7.667-6.456,5.649-8.473,2.825V99.16c2.017,1.816,4.035,2.018,4.842.2a6.914,6.914,0,0,1-3.833-4.64c3.43,3.43,6.254,2.825,7.464,2.623Zm-4.64,7.667a14.781,14.781,0,0,1-3.833,4.035,38.878,38.878,0,0,0,.2-4.842,5.429,5.429,0,0,0,3.631.807Zm-1.412-20.377c-.2,8.07-4.035,6.456-6.052,5.649,2.017.2,4.237-.2,4.237-2.623a7.364,7.364,0,0,1-3.631,0,11.579,11.579,0,0,0,5.447-3.026ZM107.575,92.5a15.535,15.535,0,0,1-1.21,3.026v-.605l-1.21-.4c0-.2,0-.2.2-.4a4.614,4.614,0,0,1-3.026-2.219c2.824,1.614,4.438,1.009,5.245.605ZM122.3,39.038c3.228,6.053,3.833,18.359-3.43,27.035,1.816-2.219,4.237-10.289,3.228-16.947a15.442,15.442,0,0,0,.2-10.088Zm8.07,34.3c-1.21,5.447-4.035,8.675-9.28,8.877,2.017-1.009,3.833-2.018,4.842-3.43a8.559,8.559,0,0,1-4.438-.4,13.924,13.924,0,0,0,8.877-5.044Zm-6.859,20.982a4.251,4.251,0,0,1-4.842.605,2.291,2.291,0,0,0,1.614-.605,2.179,2.179,0,0,1-.605-1.412,5.325,5.325,0,0,0,3.833,1.412Zm-7.263,12.105c-1.412.2-2.824.4-4.035-1.009a1.706,1.706,0,0,0,1.412,0,2.8,2.8,0,0,1,0-1.816,4.038,4.038,0,0,0,2.623,2.825Zm-7.464,8.474a3.309,3.309,0,0,1-2.421-1.412v-.807c.2,0,.4.2.605,0a3.059,3.059,0,0,1,.807-1.614,3.726,3.726,0,0,0,1.009,3.833ZM70.253,52.757c2.623,1.412,4.64.2,6.052,1.009,1.21.605,1.816,2.825.2,3.228,0-1.211-1.009-1.009-1.614-1.009a1.3,1.3,0,0,1-1.21-1.211.741.741,0,0,1,.2-.605,3.488,3.488,0,0,1-3.631-1.412Zm-10.894-.605a4.344,4.344,0,0,0,2.219,4.439,11.374,11.374,0,0,1-.807-2.421,15.438,15.438,0,0,0,8.473-1.412,14.728,14.728,0,0,1-9.885-.605Zm32.884,69.2a6.22,6.22,0,0,0,4.64.4,7,7,0,0,0,3.833-2.421,6.56,6.56,0,0,0,1.614-5.246,8.12,8.12,0,0,0-1.816-4.035,11.375,11.375,0,0,0,.807-2.421,8.206,8.206,0,0,0-.4-4.439A14.267,14.267,0,0,0,98.5,99.563a10.856,10.856,0,0,0-4.035-2.018,10.77,10.77,0,0,0-4.438.4A8.292,8.292,0,0,0,87.4,99.563a5.884,5.884,0,0,0-4.035-.807,7.471,7.471,0,0,0-4.842,2.421,8.032,8.032,0,0,0-1.816,4.237,7.263,7.263,0,0,0,1.412,4.439,1.455,1.455,0,1,0,2.421-1.614,4.3,4.3,0,0,1-.807-2.421,3.341,3.341,0,0,1,1.009-2.421,4.544,4.544,0,0,1,2.824-1.614,6.863,6.863,0,0,1,2.017.2,21.007,21.007,0,0,0-1.009,2.421,1.543,1.543,0,1,0,3.026.605,3.949,3.949,0,0,1,1.21-2.421,8.8,8.8,0,0,1,2.219-1.816,5.238,5.238,0,0,1,5.245,1.009A8.8,8.8,0,0,1,98.093,104a4.628,4.628,0,0,1,.2,2.825,5.282,5.282,0,0,1-1.21,2.623,5.722,5.722,0,0,1-2.219,1.614,1.595,1.595,0,0,0,1.009,3.026,5.123,5.123,0,0,0,2.623-1.816,3.254,3.254,0,0,1,.605,1.816,3.512,3.512,0,0,1-1.009,3.026,4.159,4.159,0,0,1-4.842,1.211,1.419,1.419,0,0,0-2.017.807c-.2,1.211.2,2.018,1.009,2.219Zm-1.412,3.026V126.6l-4.438,2.017-.2.4-.605,1.816c-.2.605-.605,1.21-.807,1.816l-.4.4,1.816,4.439a11.532,11.532,0,0,1-1.412,1.614,10.1,10.1,0,0,1-1.614,1.412L78.726,138.7l-.4.4c-.605.2-1.21.605-1.816.807l-1.816.605-.807.2-2.017,4.439H67.428l-2.017-4.439-.807-.2-1.816-.605c-.605-.2-1.21-.605-1.816-.807l-.605-.4-4.438,1.816a11.532,11.532,0,0,1-1.614-1.412,10.1,10.1,0,0,1-1.412-1.614l1.816-4.439-.2-.4c-.2-.605-.605-1.21-.807-1.816l-.605-1.816-.2-.807-4.438-2.017v-2.219a1.614,1.614,0,1,0-3.228,0v1.816c0,.605.2,1.211.2,1.816l.2.807,4.64,2.018c.2.4.4,1.009.605,1.412s.4,1.009.605,1.412l-2.017,4.64.605.807a13.177,13.177,0,0,0,2.219,2.421c.807.807,1.816,1.614,2.421,2.219l.605.605,4.842-2.018c.4.2,1.009.4,1.412.605s1.009.4,1.412.605l2.017,4.64.807.2c.605,0,1.21.2,1.816.2h3.631c.605,0,1.21-.2,1.816-.2l.807-.2,2.017-4.64c.4-.2,1.009-.4,1.412-.605s1.009-.4,1.412-.605l4.64,2.018.807-.605a13.177,13.177,0,0,0,2.421-2.219c.807-.807,1.614-1.816,2.219-2.421l.605-.605L87.4,133.256c.2-.4.4-1.009.605-1.412s.4-1.009.605-1.412l4.64-2.018.2-.807c0-.605.2-1.211.2-1.816v-1.816a1.736,1.736,0,0,0-1.614-1.614c-.605.807-1.21,1.412-1.21,2.017ZM49.272,108.844c2.421-8.474-3.631-7.868-5.649-11.7,1.816,4.035-2.623,8.272,5.649,11.7ZM87.4,111.063a23.171,23.171,0,0,1-1.614,2.018,4.4,4.4,0,0,1-.807,1.009c-.605-.4-1.009-.605-1.614-1.009a15.117,15.117,0,0,0-3.228-1.009,1.543,1.543,0,0,0-.605,3.026,8.541,8.541,0,0,1,2.421.807c.4.2.605.4,1.009.605a62.645,62.645,0,0,1-9.28,8.474,34.36,34.36,0,0,1-4.438,3.026c-.4-.2-.807-.605-1.21-.807-.807-.4-1.614-.4-2.017.4s-.4,1.614.4,2.017a23.213,23.213,0,0,1-5.043,2.421,1.536,1.536,0,0,0,1.21,2.825,64.2,64.2,0,0,0,6.456-3.228,21.26,21.26,0,0,1,2.219,1.412,27.094,27.094,0,0,0,5.447,2.623,1.536,1.536,0,0,0,1.21-2.825c-1.816-.807-3.43-1.614-5.245-2.421a1.529,1.529,0,0,0-.807-.4,32.853,32.853,0,0,1,3.43-2.219,81.985,81.985,0,0,0,9.684-9.079c.2.2.4.605.807.807A8.218,8.218,0,0,1,87,121.756a1.89,1.89,0,0,0,2.017,1.009,1.665,1.665,0,0,0,1.009-2.018,12.863,12.863,0,0,0-1.614-2.825c-.4-.605-.807-1.009-1.21-1.614.4-.4.605-.807,1.009-1.211a21.439,21.439,0,0,1,1.816-2.219c.4-.807.4-1.614-.4-2.018a1.439,1.439,0,0,0-2.219.2Zm-20.779,6.86c3.631,5.649-.807,6.053-1.21,9.281-2.421-5.447.807-6.254,1.21-9.281Zm-12.911,8.07c5.85,5.447,7.263.4,10.894.605-5.447-4.035-7.263-.4-10.894-.605Zm-5.043-5.649c5.245,6.86,7.666,2.018,11.5,2.825-5.043-5.649-7.666-2.018-11.5-2.825ZM59.56,110.66c-.2,3.43-3.833,4.64-.605,10.491.2-3.43,5.043-4.439.605-10.491Zm-2.824-5.044c-.4,3.632-4.438,4.64-1.412,11.1.807-3.632,5.85-4.035,1.412-11.1Zm-11.9,9.079c4.438,7.465,7.464,2.623,11.3,4.035-4.64-6.053-7.666-2.623-11.3-4.035Zm-3.228-6.053c3.228,8.07,7.061,3.833,10.49,5.649-3.631-6.658-7.061-3.833-10.49-5.649Zm11.1-7.667c-.2,4.035-4.237,5.447-.4,11.9,0-4.035,5.649-4.842.4-11.9ZM63.6,113.888c-.4,3.43-4.237,4.439-1.21,10.491.4-3.632,5.245-4.035,1.21-10.491ZM64,104v7.465l8.473,8.474a1.427,1.427,0,0,0,2.017-2.018l-7.464-7.465V96.739L71.867,91.9V87.458a3.056,3.056,0,0,0,1.412-2.219,2.885,2.885,0,0,0-2.824-2.825,3.037,3.037,0,0,0-2.824,2.825,2.271,2.271,0,0,0,1.412,2.219v3.228L64.2,95.528v4.439l-3.43-3.43V87.458a3.056,3.056,0,0,0,1.412-2.219,2.885,2.885,0,0,0-2.824-2.825,3.037,3.037,0,0,0-2.824,2.825,2.271,2.271,0,0,0,1.412,2.219V97.747L64,104Zm12.71-19.973a1.009,1.009,0,1,0,1.009,1.009,1.081,1.081,0,0,0-1.009-1.009Zm-6.456,0a1.009,1.009,0,1,0,1.009,1.009.953.953,0,0,0-1.009-1.009Zm-11.1,0a1.009,1.009,0,1,0,1.009,1.009A.953.953,0,0,0,59.157,84.028Z" transform="translate(-0.152 -0.1)" fill="#f8f8f8"/>
          <path id="Контур_6334" data-name="Контур 6334" d="M55.046,127C82.867,113.8,98.5,92.4,94.239,57,84.492,54.6,78.6,48.8,77.79,39.2a59.011,59.011,0,0,0-22.744-4.4A55.526,55.526,0,0,0,32.3,39.2C31.286,48.8,25.6,54.6,15.853,57c-4.265,35.4,11.372,57,39.193,70ZM36.769,42.4a57.674,57.674,0,0,1,18.48-3,58.6,58.6,0,0,1,18.48,3c1.828,9.2,7.717,15,16.449,18C92.614,89.2,81.242,109,55.452,122,29.459,109,17.884,89.2,20.727,60.6,29.053,57.6,34.942,51.6,36.769,42.4Z" transform="translate(14.854 36.006)" fill="#f8f8f8"/>
        </g>
      </g>
    </g>
    <g id="Сгруппировать_9839" data-name="Сгруппировать 9839" transform="translate(384 76)">
      <rect id="Прямоугольник_13502" data-name="Прямоугольник 13502" width="4" height="40" transform="translate(0 0)" fill="#4ba1eb"/>
      <rect id="Прямоугольник_13503" data-name="Прямоугольник 13503" width="4" height="40" transform="translate(0 88)" fill="#1da01d"/>
      <rect id="Прямоугольник_13504" data-name="Прямоугольник 13504" width="4" height="40" transform="translate(0 44)" fill="#fff"/>
      <rect id="Прямоугольник_13505" data-name="Прямоугольник 13505" width="4" height="4" transform="translate(0 84)" fill="#e81123"/>
      <rect id="Прямоугольник_13506" data-name="Прямоугольник 13506" width="4" height="4" transform="translate(0 40)" fill="#e81123"/>
    </g>
  </g>
</svg>
