<svg xmlns="http://www.w3.org/2000/svg" width="560" height="157.14" viewBox="0 0 560 157.14">
  <g id="logo-footer" opacity="0.8">
    <g id="Сгруппировать_50" data-name="Сгруппировать 50">
      <g id="Сгруппировать_49" data-name="Сгруппировать 49">
        <path id="Контур_6333" data-name="Контур 6333" d="M73.953,79.059a2.781,2.781,0,0,1,2.723,2.723,2.189,2.189,0,0,1-1.361,2.139v6.418L70.842,95.2v8.946a1.556,1.556,0,0,1-3.112,0V94.617h0v-.389h0l.194-.194h0l4.084-4.084V84.5a2.946,2.946,0,0,1-1.361-2.139c.583-2.139,1.945-3.306,3.306-3.306ZM59.173.1A55.346,55.346,0,0,0,40.892,10.6,51.345,51.345,0,0,0,27.667,28.883a50.133,50.133,0,0,0-3.7,13.808c-1.361,13.03,3.89,24.5,13.808,33.062,1.556,1.361,2.917,2.528,4.279,3.89.972,1.167,1.945,1.945,2.334,3.5a.19.19,0,0,0,.194.194,8.759,8.759,0,0,1-1.75,1.945,3.664,3.664,0,0,0-.389-1.556A6.977,6.977,0,0,0,40.5,81a38.89,38.89,0,0,0-4.279-3.7c-10.5-9.141-15.947-21-14.586-35.006a60.207,60.207,0,0,1,3.7-14.391C30.39,17.214,37,9.629,47.31,3.8,33.5,8.268,11.914,22.076,8.219,41.33c-.194-.389-.778-1.361-1.167-1.945C1.607,51.443-.921,70.5,5.108,80.226c-.972-.389-1.75-.778-1.945-1.361,1.556,7.2,4.084,19.837,14.78,19.642a18.215,18.215,0,0,1-7.2.194c2.528,4.668,6.807,11.085,13.03,10.7a10.477,10.477,0,0,1-4.084,1.556c1.945,2.139,5.64,6.612,11.669,5.834a5.914,5.914,0,0,1-3.7,1.361,46.472,46.472,0,0,0,8.946,5.64c.389.972.972,1.945,1.361,2.917a60.644,60.644,0,0,1-14-9.335,2.884,2.884,0,0,0,1.361-.194c-4.668-1.75-6.807-5.056-8.946-7.39a2.884,2.884,0,0,0,1.361-.194c-4.862-2.334-8.168-8.946-10.307-13.03a3.3,3.3,0,0,0,1.945,0C3.746,91.116,1.8,82.365.634,75.169c.389.194.583.389.778.389-2.334-10.5-1.945-24.5,5.64-40.063a1.518,1.518,0,0,0,.778.778C15.026,15.658,36.808,1.85,59.173.1ZM87.956,146.737a5.3,5.3,0,0,0-2.528,2.917,13.828,13.828,0,0,1-5.445,1.945,17.063,17.063,0,0,0,7-.389,10.8,10.8,0,0,1,.972-4.473Zm5.445-6.612v2.139a8.249,8.249,0,0,1-3.5,1.361,10.829,10.829,0,0,0,6.612-.778,5.932,5.932,0,0,1-3.112-2.723Zm-4.862,5.445a12.683,12.683,0,0,0,12.058-1.945,21.6,21.6,0,0,1-8.363-8.363l1.75-1.556c1.945,4.279,5.64,7.39,10.307,9.335a14.863,14.863,0,0,1-11.863,5.445,5.87,5.87,0,0,0-.583,6.807c-7.585.972-12.058,2.139-17.114-1.945l.389-2.334c1.945,1.361,3.112,2.334,5.445,2.723a18.744,18.744,0,0,0,4.668,0,23.829,23.829,0,0,1,3.7-.389c-.194-1.945.194-4.279,1.556-5.64-.778-.972-1.556-1.361-1.945-2.139Zm-41.424,1.167a5.3,5.3,0,0,1,2.528,2.917,13.828,13.828,0,0,0,5.445,1.945,17.063,17.063,0,0,1-7-.389,10.8,10.8,0,0,0-.972-4.473Zm-5.445-6.612v2.139a8.249,8.249,0,0,0,3.5,1.361,10.829,10.829,0,0,1-6.612-.778,5.932,5.932,0,0,0,3.112-2.723Zm4.862,5.445a12.683,12.683,0,0,1-12.058-1.945,21.6,21.6,0,0,0,8.363-8.363l-1.75-1.556c-1.945,4.279-5.64,7.39-10.307,9.335a14.863,14.863,0,0,0,11.863,5.445,5.87,5.87,0,0,1,.583,6.807c7.585.972,12.058,2.139,17.114-1.945l-.389-2.334c-1.945,1.361-3.112,2.334-5.445,2.723a18.744,18.744,0,0,1-4.668,0,23.829,23.829,0,0,0-3.7-.389c.194-1.945-.194-4.279-1.556-5.64a9.14,9.14,0,0,0,1.945-2.139ZM90.484,83.337a8.759,8.759,0,0,0,1.75,1.945,3.664,3.664,0,0,1,.389-1.556A6.977,6.977,0,0,1,94.568,81a38.89,38.89,0,0,1,4.279-3.7c10.5-9.141,15.947-21,14.586-35.006a60.206,60.206,0,0,0-3.7-14.391C104.681,17.02,98.069,9.435,87.761,3.8c13.808,4.473,35.59,18.087,39.285,37.34.194-.389.778-1.361,1.167-1.945,5.445,12.058,7.779,31.311,1.945,40.841.972-.389,1.75-.778,1.945-1.361-1.556,7.2-4.084,19.837-14.78,19.642a18.215,18.215,0,0,0,7.2.194c-2.528,4.668-6.807,11.085-13.03,10.7a10.476,10.476,0,0,0,4.084,1.556c-1.945,2.139-5.64,6.612-11.669,5.834a5.914,5.914,0,0,0,3.7,1.361,46.472,46.472,0,0,1-8.946,5.64c-.389.972-.972,1.945-1.361,2.917a60.644,60.644,0,0,0,14-9.335,2.884,2.884,0,0,1-1.361-.194c4.668-1.75,6.807-5.056,8.946-7.39a2.884,2.884,0,0,1-1.361-.194c4.862-2.334,8.168-8.946,10.307-13.03a3.3,3.3,0,0,1-1.945,0c5.64-5.445,7.585-14.2,8.752-21.393-.389.194-.583.389-.778.389,2.334-10.5,1.945-24.5-5.64-40.063a1.518,1.518,0,0,1-.778.778C120.239,15.658,98.458,1.85,75.9.1A55.346,55.346,0,0,1,94.179,10.6,51.345,51.345,0,0,1,107.4,28.883a50.134,50.134,0,0,1,3.7,13.808c1.361,13.03-3.89,24.5-13.808,33.062-1.556,1.361-2.917,2.528-4.279,3.89a17.627,17.627,0,0,0-2.528,3.7ZM65.2,67.973c-2.139-.778-2.917-2.917-1.945-5.445,0,1.75.583,2.917,1.945,3.5a3.321,3.321,0,0,0,1.361-3.89c.972,2.528.583,5.056-1.361,5.834ZM81.149,57.666a6.871,6.871,0,0,0-3.306-.778c-.583,0-1.167-.389-.972-1.556-1.167,2.528-1.556,4.084-4.862,3.306-1.945-.389-2.723,1.167-2.334,2.723.194.972.583,2.334-.389,3.306a4.526,4.526,0,0,0-2.139-2.723c1.75,2.334.972,3.89.583,4.668,3.89-.778,3.89,2.334,3.306,3.89.972,0,1.945.194,2.528.194a39.51,39.51,0,0,1-1.945-9.529c0-.583,0-.778.389-.583,2.139.389,4.279,0,5.64-1.945a8.477,8.477,0,0,1,5.64,1.75c.389-3.5.583-6.807-3.7-8.168-.583-1.945-2.139-2.723-4.279-2.528-2.723-4.279-12.641.194-16.531-2.528a5.474,5.474,0,0,1-1.945-4.084c-1.361,1.361-2.334,2.139-2.917,4.084a8.534,8.534,0,0,0,1.361,7.974,7.574,7.574,0,0,0,4.473,2.917c-.194.194-.389.389-.389.583-2.139,3.5-1.945,8.752-1.945,12.836.583-.194,1.361-.194,1.945-.389-.583-1.945,0-4.084,2.723-4.279-.389-.778-.972-2.139.583-4.668a3.513,3.513,0,0,0-2.139,2.723,3.088,3.088,0,0,1-.389-3.112,9.482,9.482,0,0,1,.583-1.361v-.194c1.945-3.7,8.557-1.361,10.307-7a7.9,7.9,0,0,1-1.945,1.75c-1.167.583-1.945-1.75-3.5-1.75a2.255,2.255,0,0,1,.778,1.945c-.194.778-.583.972-1.167.389s-.972-1.75-1.945-1.945a1.857,1.857,0,0,1,.389,1.945c-.194.778-.778,1.167-1.361.389-.389-.389-.583-1.167-1.167-1.556a1.3,1.3,0,0,1-1.945,1.361,6.83,6.83,0,0,1-3.5-3.5,6.494,6.494,0,0,1,.194-5.056V46.97c3.5,6.418,16.142.194,17.7,4.279l.194.778h.778c1.361-.194,2.723-.194,2.917,1.556v.778l.583.194a2.859,2.859,0,0,1,3.112,3.112ZM61.118,70.891a5.549,5.549,0,0,1,1.361-1.556c-.194.583-.389.972-.583,1.556ZM68.9,70.7a5.926,5.926,0,0,0-1.361-1.945A3.54,3.54,0,0,1,70.064,70.7Zm-5.834,0c0-.389.194-.778.194-1.167a1.457,1.457,0,0,0,.194.972l-.389.194Zm3.89,0c0-.389-.194-.972-.194-1.556a5.823,5.823,0,0,1,.778,1.556ZM20.082,49.5c-.389,12.058,4.668,22.171,15.169,31.895,2.139,2.334,2.334,5.056,3.112,7.39A4.068,4.068,0,0,0,39.53,88c-.194-1.167-.194-1.945-.389-2.723A4.523,4.523,0,0,1,40.5,87.421c.389-.194.583-.583.972-.778,0-.389-.194-.778-.194-1.167a3.606,3.606,0,0,0-.389-1.361c-.778-1.945-4.084-4.473-5.64-5.64-8.946-7.39-14.586-17.5-15.169-28.977Zm.389,18.087C7.83,56.3,10.942,36.468,20.666,28.3a37.84,37.84,0,0,0-.778,14,56.639,56.639,0,0,1,3.89-14.975A54.559,54.559,0,0,1,34.085,11.38c-9.529,6.029-19.448,15.364-23.143,25.866-2.917,9.529-1.556,23.532,9.529,30.339Zm-14-20.42c-5.445,17.5-3.7,39.09,13.03,34.423-10.307.389-14-6.029-13.03-20.42C9,67.39,14.637,70.7,19.693,72.446,11.72,66.806,6.858,60.389,6.469,47.164ZM6.274,83.921C8.8,96.951,17.36,97.534,22.416,92.867c-5.834,3.112-9.918.389-11.863-4.084,4.862.389,7.2-.972,9.529-2.917A15.866,15.866,0,0,1,6.274,83.921Zm8.168,17.309c6.029,9.335,12.447,4.862,14,1.556-2.723,2.334-6.807,2.723-8.946.194a11.031,11.031,0,0,0,5.445-5.251,15.942,15.942,0,0,1-10.5,3.5Zm16.336,3.89a12.061,12.061,0,0,1-7.585,6.612c3.112,3.5,8.168,4.084,10.113,1.361,0-.583-.194-.972-.194-1.556-1.361,1.556-3.306,1.945-5.445.583a13.49,13.49,0,0,0,3.112-7Zm4.279,14.391a12.084,12.084,0,0,0-.583-1.945,3.973,3.973,0,0,1-2.528,1.556c1.361.778,2.528.778,3.112.389ZM21.444,71.474c-2.139,11.863,3.7,10.5,7.2,10.113-3.306-.583-6.029-1.945-5.834-5.445A10.976,10.976,0,0,0,28.64,77.7c-4.279-1.75-6.223-5.056-7.2-6.223Zm.194,11.863c-.194,10.5,6.223,7.974,8.557,5.64-3.112,1.167-5.64.583-5.834-2.334A7.363,7.363,0,0,0,29.806,84.7c-5.056,1.361-7-.389-8.168-1.361Zm2.528,10.5c2.917,7.39,6.223,5.445,8.168,2.723v-.972c-1.945,1.75-3.89,1.945-4.668.194a6.665,6.665,0,0,0,3.7-4.473c-3.5,3.306-6.029,2.723-7.2,2.528Zm4.473,7.39a14.249,14.249,0,0,0,3.7,3.89,37.473,37.473,0,0,1-.194-4.668,5.234,5.234,0,0,1-3.5.778ZM30.2,81.587c.194,7.779,3.89,6.223,5.834,5.445-1.945.194-4.084-.194-4.084-2.528a7.1,7.1,0,0,0,3.5,0A10.165,10.165,0,0,1,30.2,81.587Zm1.361,7.585a14.975,14.975,0,0,0,1.167,2.917v-.583l.972-.389c0-.194,0-.194-.194-.389a4.448,4.448,0,0,0,2.917-2.139c-2.723,1.556-4.279.972-4.862.583ZM16.971,37.635c-3.112,5.834-3.7,17.7,3.306,26.06-1.75-2.139-4.084-9.918-3.112-16.336a20.118,20.118,0,0,1-.194-9.724ZM9.192,70.7c1.167,5.251,3.89,8.363,8.946,8.557-1.945-.972-3.7-1.945-4.668-3.306a8.252,8.252,0,0,0,4.279-.389A15.779,15.779,0,0,1,9.192,70.7Zm7,20.226a4.1,4.1,0,0,0,4.668.583,2.208,2.208,0,0,1-1.556-.583,2.1,2.1,0,0,0,.583-1.361,5.456,5.456,0,0,1-3.7,1.361Zm7,11.669c1.361.194,2.723.389,3.89-.972a1.645,1.645,0,0,1-1.361,0,2.7,2.7,0,0,0,0-1.75,4.938,4.938,0,0,1-2.528,2.723Zm7.2,8.168a3.19,3.19,0,0,0,2.334-1.361v-.778c-.194,0-.389.194-.583,0a2.949,2.949,0,0,0-.778-1.556,4.658,4.658,0,0,1-.972,3.7ZM115.183,49.5c.389,12.058-4.668,22.171-15.169,31.895-2.139,2.334-2.334,5.056-3.112,7.39A4.068,4.068,0,0,1,95.735,88c.194-1.167.194-1.945.389-2.723a4.523,4.523,0,0,0-1.361,2.139c-.389-.194-.583-.583-.972-.778,0-.389.194-.778.194-1.167a3.606,3.606,0,0,1,.389-1.361c.778-1.945,4.084-4.473,5.64-5.64A41.486,41.486,0,0,0,115.183,49.5ZM114.4,67.584c12.836-11.474,9.529-31.311-.194-39.479a37.84,37.84,0,0,1,.778,14,56.639,56.639,0,0,0-3.89-14.975,54.559,54.559,0,0,0-10.307-15.947c9.529,6.029,19.448,15.364,23.143,25.866,3.306,9.724,1.75,23.726-9.529,30.533Zm14.2-20.42c5.445,17.5,3.7,39.09-13.03,34.423,10.307.389,14-6.029,13.03-20.42-2.528,6.223-8.168,9.529-13.225,11.28,7.974-5.64,12.836-12.058,13.225-25.282Zm.194,36.757c-2.528,13.03-11.085,13.614-16.142,8.946,5.834,3.112,9.918.389,11.863-4.084-4.862.389-7.2-.972-9.529-2.917,4.279,1.167,8.752,1.361,13.808-1.945Zm-8.168,17.309c-6.029,9.335-12.447,4.862-14,1.556,2.723,2.334,6.807,2.723,8.946.194a11.031,11.031,0,0,1-5.445-5.251,16.66,16.66,0,0,0,10.5,3.5Zm-16.142,3.89c1.75,3.306,4.279,5.64,7.585,6.418-3.112,3.5-8.168,4.084-10.113,1.361,0-.583.194-.972.194-1.556,1.361,1.556,3.306,1.945,5.445.583a12.248,12.248,0,0,1-3.112-6.807Zm-4.279,14.391a12.084,12.084,0,0,1,.583-1.945,3.973,3.973,0,0,0,2.528,1.556c-1.556.778-2.528.778-3.112.389Zm13.419-48.036c2.139,11.863-3.7,10.5-7.2,10.113,3.306-.583,6.029-1.945,5.834-5.445-1.556,1.361-4.084,1.556-5.834,1.556,4.279-1.75,6.223-5.056,7.2-6.223Zm-.194,11.863c.194,10.5-6.223,7.974-8.557,5.64,3.112,1.167,5.64.583,5.834-2.334a7.363,7.363,0,0,1-5.445-1.945c4.862,1.361,7.2-.389,8.168-1.361Zm-2.528,10.5c-2.917,7.39-6.223,5.445-8.168,2.723v-.972c1.945,1.75,3.89,1.945,4.668.194a6.665,6.665,0,0,1-3.7-4.473c3.306,3.306,6.029,2.723,7.2,2.528Zm-4.473,7.39a14.249,14.249,0,0,1-3.7,3.89,37.473,37.473,0,0,0,.194-4.668,5.234,5.234,0,0,0,3.5.778ZM105.07,81.587c-.194,7.779-3.89,6.223-5.834,5.445,1.945.194,4.084-.194,4.084-2.528a7.1,7.1,0,0,1-3.5,0,11.163,11.163,0,0,0,5.251-2.917Zm-1.361,7.585a14.975,14.975,0,0,1-1.167,2.917v-.583l-1.167-.389c0-.194,0-.194.194-.389a4.448,4.448,0,0,1-2.917-2.139c2.723,1.556,4.279.972,5.056.583Zm14.2-51.537c3.112,5.834,3.7,17.7-3.306,26.06,1.75-2.139,4.084-9.918,3.112-16.336a14.885,14.885,0,0,0,.194-9.724ZM125.685,70.7c-1.167,5.251-3.89,8.363-8.946,8.557,1.945-.972,3.7-1.945,4.668-3.306a8.252,8.252,0,0,1-4.279-.389,13.423,13.423,0,0,0,8.557-4.862Zm-6.612,20.226a4.1,4.1,0,0,1-4.668.583,2.208,2.208,0,0,0,1.556-.583,2.1,2.1,0,0,1-.583-1.361,5.134,5.134,0,0,0,3.7,1.361Zm-7,11.669c-1.361.194-2.723.389-3.89-.972a1.645,1.645,0,0,0,1.361,0,2.7,2.7,0,0,1,0-1.75,3.892,3.892,0,0,0,2.528,2.723Zm-7.2,8.168a3.19,3.19,0,0,1-2.334-1.361v-.778c.194,0,.389.194.583,0a2.949,2.949,0,0,1,.778-1.556,3.591,3.591,0,0,0,.972,3.7ZM67.73,50.859c2.528,1.361,4.473.194,5.834.972,1.167.583,1.75,2.723.194,3.112,0-1.167-.972-.972-1.556-.972A1.255,1.255,0,0,1,71.036,52.8a.714.714,0,0,1,.194-.583,3.363,3.363,0,0,1-3.5-1.361Zm-10.5-.583a4.187,4.187,0,0,0,2.139,4.279,10.964,10.964,0,0,1-.778-2.334,14.883,14.883,0,0,0,8.168-1.361,14.2,14.2,0,0,1-9.529-.583Zm31.7,66.706a6,6,0,0,0,4.473.389,6.749,6.749,0,0,0,3.7-2.334,6.323,6.323,0,0,0,1.556-5.056,7.827,7.827,0,0,0-1.75-3.89,10.964,10.964,0,0,0,.778-2.334,7.91,7.91,0,0,0-.389-4.279,13.753,13.753,0,0,0-2.334-3.5,10.466,10.466,0,0,0-3.89-1.945,10.383,10.383,0,0,0-4.279.389,7.993,7.993,0,0,0-2.528,1.556,5.672,5.672,0,0,0-3.89-.778A7.2,7.2,0,0,0,75.7,97.534a7.742,7.742,0,0,0-1.75,4.084,7,7,0,0,0,1.361,4.279,1.4,1.4,0,0,0,2.334-1.556,4.143,4.143,0,0,1-.778-2.334,3.221,3.221,0,0,1,.972-2.334,4.381,4.381,0,0,1,2.723-1.556,6.616,6.616,0,0,1,1.945.194,20.249,20.249,0,0,0-.972,2.334,1.487,1.487,0,1,0,2.917.583A3.807,3.807,0,0,1,85.622,98.9a8.479,8.479,0,0,1,2.139-1.75,5.05,5.05,0,0,1,5.056.972,8.479,8.479,0,0,1,1.75,2.139,4.461,4.461,0,0,1,.194,2.723,5.091,5.091,0,0,1-1.167,2.528,5.516,5.516,0,0,1-2.139,1.556,1.537,1.537,0,1,0,.972,2.917,4.939,4.939,0,0,0,2.528-1.75,3.137,3.137,0,0,1,.583,1.75,3.385,3.385,0,0,1-.972,2.917,4.009,4.009,0,0,1-4.668,1.167,1.368,1.368,0,0,0-1.945.778c-.194,1.167.194,1.945.972,2.139ZM87.567,119.9v2.139l-4.279,1.945-.194.389-.583,1.75c-.194.583-.583,1.167-.778,1.75l-.389.389,1.75,4.279a11.118,11.118,0,0,1-1.361,1.556,9.74,9.74,0,0,1-1.556,1.361l-4.279-1.75-.389.389c-.583.194-1.167.583-1.75.778l-1.75.583-.778.194-1.945,4.279H65.007l-1.945-4.279-.778-.194-1.75-.583c-.583-.194-1.167-.583-1.75-.778l-.583-.389-4.279,1.75a11.117,11.117,0,0,1-1.556-1.361A9.741,9.741,0,0,1,51,132.541l1.75-4.279-.194-.389c-.194-.583-.583-1.167-.778-1.75l-.583-1.75L51,123.594l-4.279-1.945V119.51a1.556,1.556,0,0,0-3.112,0v1.75c0,.583.194,1.167.194,1.75l.194.778,4.473,1.945c.194.389.389.972.583,1.361s.389.972.583,1.361L47.7,132.929l.583.778a12.7,12.7,0,0,0,2.139,2.334c.778.778,1.75,1.556,2.334,2.139l.583.583,4.668-1.945c.389.194.972.389,1.361.583s.972.389,1.361.583l1.945,4.473.778.194c.583,0,1.167.194,1.75.194h3.5c.583,0,1.167-.194,1.75-.194l.778-.194,1.945-4.473c.389-.194.972-.389,1.361-.583s.972-.389,1.361-.583l4.473,1.945.778-.583a12.7,12.7,0,0,0,2.334-2.139c.778-.778,1.556-1.75,2.139-2.334l.583-.583-1.945-4.668c.194-.389.389-.972.583-1.361s.389-.972.583-1.361l4.473-1.945.194-.778c0-.583.194-1.167.194-1.75v-1.75a1.673,1.673,0,0,0-1.556-1.556c-.583.778-1.167,1.361-1.167,1.945ZM47.5,104.924c2.334-8.168-3.5-7.585-5.445-11.28,1.75,3.89-2.528,7.974,5.445,11.28Zm36.757,2.139a22.338,22.338,0,0,1-1.556,1.945,4.242,4.242,0,0,1-.778.972c-.583-.389-.972-.583-1.556-.972a14.574,14.574,0,0,0-3.112-.972,1.487,1.487,0,0,0-.583,2.917,8.234,8.234,0,0,1,2.334.778c.389.194.583.389.972.583a60.389,60.389,0,0,1-8.946,8.168,33.125,33.125,0,0,1-4.279,2.917c-.389-.194-.778-.583-1.167-.778-.778-.389-1.556-.389-1.945.389s-.389,1.556.389,1.945a22.378,22.378,0,0,1-4.862,2.334,1.481,1.481,0,0,0,1.167,2.723,61.893,61.893,0,0,0,6.223-3.112,20.5,20.5,0,0,1,2.139,1.361,26.12,26.12,0,0,0,5.251,2.528,1.481,1.481,0,0,0,1.167-2.723c-1.75-.778-3.306-1.556-5.056-2.334a1.474,1.474,0,0,0-.778-.389,31.674,31.674,0,0,1,3.306-2.139,79.033,79.033,0,0,0,9.335-8.752c.194.194.389.583.778.778a7.922,7.922,0,0,1,1.167,2.139,1.822,1.822,0,0,0,1.945.972,1.6,1.6,0,0,0,.972-1.945,12.4,12.4,0,0,0-1.556-2.723c-.389-.583-.778-.972-1.167-1.556.389-.389.583-.778.972-1.167a20.666,20.666,0,0,1,1.75-2.139c.389-.778.389-1.556-.389-1.945a1.387,1.387,0,0,0-2.139.194Zm-20.031,6.612c3.5,5.445-.778,5.834-1.167,8.946-2.334-5.251.778-6.029,1.167-8.946Zm-12.447,7.779c5.64,5.251,7,.389,10.5.583-5.251-3.89-7-.389-10.5-.583Zm-4.862-5.445c5.056,6.612,7.39,1.945,11.085,2.723-4.862-5.445-7.39-1.945-11.085-2.723Zm10.5-9.335c-.194,3.306-3.7,4.473-.583,10.113.194-3.306,4.862-4.279.583-10.113ZM54.7,101.813c-.389,3.5-4.279,4.473-1.361,10.7.778-3.5,5.64-3.89,1.361-10.7Zm-11.474,8.752c4.279,7.2,7.2,2.528,10.891,3.89-4.473-5.834-7.39-2.528-10.891-3.89Zm-3.112-5.834c3.112,7.779,6.807,3.7,10.113,5.445-3.5-6.418-6.807-3.7-10.113-5.445Zm10.7-7.39c-.194,3.89-4.084,5.251-.389,11.474,0-3.89,5.445-4.668.389-11.474Zm10.5,12.447c-.389,3.306-4.084,4.279-1.167,10.113.389-3.5,5.056-3.89,1.167-10.113Zm.389-9.529v7.2l8.168,8.168a1.375,1.375,0,0,0,1.945-1.945l-7.2-7.2V93.256l4.668-4.668V84.31a2.946,2.946,0,0,0,1.361-2.139,2.781,2.781,0,0,0-2.723-2.723A2.928,2.928,0,0,0,65.2,82.17a2.189,2.189,0,0,0,1.361,2.139v3.112L61.9,92.089v4.279l-3.306-3.306V84.31a2.946,2.946,0,0,0,1.361-2.139,2.781,2.781,0,0,0-2.723-2.723,2.928,2.928,0,0,0-2.723,2.723,2.189,2.189,0,0,0,1.361,2.139v9.918l5.834,6.029ZM73.953,81a.972.972,0,1,0,.972.972A1.042,1.042,0,0,0,73.953,81ZM67.73,81a.972.972,0,1,0,.972.972A.919.919,0,0,0,67.73,81Zm-10.7,0a.972.972,0,1,0,.972.972A.919.919,0,0,0,57.034,81Z" transform="translate(-0.152 -0.1)" fill="#e8e8e8"/>
        <path id="Контур_6334" data-name="Контур 6334" d="M53.358,124.455C80,111.619,94.977,90.81,90.892,56.387c-9.335-2.334-14.975-7.974-15.753-17.309A55.769,55.769,0,0,0,53.358,34.8a52.478,52.478,0,0,0-21.782,4.279c-.972,9.335-6.418,14.975-15.753,17.309-4.084,34.423,10.891,55.427,37.535,68.068ZM35.855,42.19a54.473,54.473,0,0,1,17.7-2.917,55.344,55.344,0,0,1,17.7,2.917C73,51.136,78.64,56.776,87,59.693c2.334,28.005-8.557,47.259-33.256,59.9C28.854,106.952,17.768,87.7,20.491,59.888,28.465,56.971,34.1,51.136,35.855,42.19Z" transform="translate(14.026 32.684)" fill="#e8e8e8"/>
      </g>
    </g>
    <g id="Сгруппировать_52" data-name="Сгруппировать 52" transform="translate(152.371 36.757)">
      <g id="Сгруппировать_51" data-name="Сгруппировать 51">
        <path id="Контур_6335" data-name="Контур 6335" d="M83.751,33.78,86.279,22.89h2.139l-3.89,14.975a6.224,6.224,0,0,1-.972,2.528c-.389.583-.583,1.167-.972,1.361a1.777,1.777,0,0,1-.972.583c-.389,0-.778.194-1.167.194h-.972v-1.75h.972a1.681,1.681,0,0,0,1.167-.583,3.656,3.656,0,0,0,.778-1.945l.389-1.167L78.5,22.89h2.139L83.751,33.78ZM81.806,19a.714.714,0,0,0,.194.583c0,.194.194.389.389.583s.389.389.583.389c.194.194.389.194.778.194s.583,0,.778-.194.389-.194.583-.389.389-.389.389-.583.194-.389.194-.583h1.75c0,.389-.194.778-.194,1.167l-.583,1.167a2.479,2.479,0,0,1-1.167.778,3.664,3.664,0,0,1-1.556.389,3.883,3.883,0,0,1-1.75-.389c-.389-.194-.778-.583-1.167-.778-.194-.389-.583-.778-.583-1.167A2.467,2.467,0,0,1,80.25,19ZM93.28,22.7a6,6,0,0,1,1.945.194,3.134,3.134,0,0,1,1.361.778,4.235,4.235,0,0,1,.972,1.556,8.632,8.632,0,0,1,.389,2.528v1.167c0,.389-.194.778-.194,1.361l-.583,1.167c-.194.389-.583.583-.778.778h0a4.242,4.242,0,0,1,.972.778l.583,1.167a2.467,2.467,0,0,1,.194,1.167V36.7a8.173,8.173,0,0,1-.972,4.279,4.273,4.273,0,0,1-3.5,1.556,5.384,5.384,0,0,1-1.75-.194,3.135,3.135,0,0,1-1.361-.778,3.488,3.488,0,0,1-.972-1.361,6,6,0,0,1-.194-1.945l2.139-.389A3.128,3.128,0,0,0,92.114,40a2.377,2.377,0,0,0,1.75.583c.389,0,.583,0,.778-.194s.583-.389.778-.583a1.644,1.644,0,0,0,.389-1.167A5.42,5.42,0,0,0,96,36.7a3.31,3.31,0,0,0-.194-1.361,2.764,2.764,0,0,0-.389-1.167,2.684,2.684,0,0,0-.583-.778,1.457,1.457,0,0,0-.972-.194H92.7V31.252h1.361a1.457,1.457,0,0,0,.972-.194c.194-.194.583-.389.583-.778.194-.389.194-.778.389-1.167,0-.389.194-.972.194-1.361A3.791,3.791,0,0,0,96,26.2c-.194-.389-.194-.778-.583-.972a1.01,1.01,0,0,0-.778-.389,8.423,8.423,0,0,0-.972-.194,1.9,1.9,0,0,0-1.75.778,3.286,3.286,0,0,0-.583,1.945L89.2,26.974a4.006,4.006,0,0,1,1.361-3.306A3.847,3.847,0,0,1,93.28,22.7Zm9.53,17.5h1.556a3.664,3.664,0,0,0,1.556-.389,1.942,1.942,0,0,0,.972-.778,2.764,2.764,0,0,0,.389-1.167c0-.389.194-.972.194-1.556V34.947a2.764,2.764,0,0,0-.389-1.167,1.942,1.942,0,0,0-.972-.778,3.664,3.664,0,0,0-1.556-.389h-1.75V40.2Zm0-9.529h1.556a8.631,8.631,0,0,1,2.528.389,3.024,3.024,0,0,1,1.556,1.167,6.908,6.908,0,0,1,.778,1.75,8.719,8.719,0,0,1,.194,2.334,10.274,10.274,0,0,1-.194,2.528,5.824,5.824,0,0,1-.778,1.945,3.024,3.024,0,0,1-1.556,1.167,7.619,7.619,0,0,1-2.528.389h-3.89V22.89h8.168v1.945H102.81v5.834Zm8.946,11.669V22.89h8.363v1.945H113.9v6.612h5.251v2.139H113.9v6.807h6.223v1.945Zm10.307,0V22.89H124.2v8.557h1.945c.389,0,.583-.194.972-.389.194-.194.583-.389.778-.778a13.4,13.4,0,0,0,.583-1.556l1.361-5.64h1.945l-1.361,5.64a6.491,6.491,0,0,1-.972,2.334,8.985,8.985,0,0,1-1.361,1.361,3.1,3.1,0,0,1,1.75,1.361,7.627,7.627,0,0,1,.972,2.528l1.361,6.223h-2.139L128.87,36.7a13.4,13.4,0,0,0-.583-1.556,1.942,1.942,0,0,0-.778-.972c-.389-.194-.583-.389-.972-.389s-.583-.194-.972-.194H124.2v8.752Zm18.865-13.808-4.862,13.614h-2.139V22.89h2.139V36.5h.194L141.122,22.7h2.139V42.143h-2.139l-.194-13.614Zm9.335-5.834a4.276,4.276,0,0,1,3.306,1.167,4.494,4.494,0,0,1,.972,3.306l-2.139.389a6.991,6.991,0,0,0-.389-2.139,1.9,1.9,0,0,0-1.75-.778,2.764,2.764,0,0,0-1.167.389c-.194.194-.583.389-.583.778-.194.389-.194.583-.389.972V38.642c0,.389.194.583.389.972.194.194.389.583.583.778s.583.194,1.167.194c.778,0,1.361-.194,1.556-.583a3.128,3.128,0,0,0,.583-2.139l2.334.389a4.575,4.575,0,0,1-1.167,3.306,5.267,5.267,0,0,1-6.612,0,4.754,4.754,0,0,1-1.167-3.5V28.335a6,6,0,0,1,.194-1.945l.583-1.75a2.615,2.615,0,0,1,1.361-1.167c.583-.778,1.361-.778,2.334-.778Zm10.7,2.139v17.5H158.82v-17.5h-3.5V22.89h8.752v1.945Zm13.225,12.252a7.9,7.9,0,0,1-.972,4.084c-.778.972-1.75,1.361-3.5,1.361a4.161,4.161,0,0,1-3.5-1.361,5,5,0,0,1-.972-3.5V28.141a6,6,0,0,1,.194-1.945l.583-1.75a2.615,2.615,0,0,1,1.361-1.167,7.2,7.2,0,0,1,4.667,0,2.614,2.614,0,0,1,1.361,1.167,2.377,2.377,0,0,1,.583,1.75,7.292,7.292,0,0,1,.194,2.139v8.752Zm-2.334-9.335v-.972c0-.389-.194-.583-.389-.972-.194-.194-.389-.583-.778-.778a2.764,2.764,0,0,0-1.167-.389,2.811,2.811,0,0,0-1.361.389,1.07,1.07,0,0,0-.583.972,2.467,2.467,0,0,0-.194,1.167V38.642c0,.389.194.583.389.972.194.194.389.583.778.778.194.194.583.194,1.167.194a2.467,2.467,0,0,0,1.167-.194,1.518,1.518,0,0,0,.778-.778c.194-.194.194-.583.389-.972,0-.389.194-.778.194-1.167V27.752Zm11.863,14.586V33.391H179.24v8.946H177.1V22.89h2.139v8.557h4.473V22.89h2.139V42.338ZM198.3,22.89a9.853,9.853,0,0,1,2.528.389,3.024,3.024,0,0,1,1.556,1.167,6.907,6.907,0,0,1,.778,1.75,10.273,10.273,0,0,1,.195,2.528,9.467,9.467,0,0,1-.195,2.334A5.824,5.824,0,0,1,202.383,33a3.024,3.024,0,0,1-1.556,1.167,4.957,4.957,0,0,1-2.528.389h-1.556v7.779H194.6V22.89Zm-1.75,9.529H198.1a3.664,3.664,0,0,0,1.556-.389,1.942,1.942,0,0,0,.972-.778,2.764,2.764,0,0,0,.389-1.167V28.724a4.281,4.281,0,0,0-.195-1.556A2.085,2.085,0,0,0,200.439,26a1.942,1.942,0,0,0-.972-.778,3.664,3.664,0,0,0-1.556-.389h-1.556v7.585Zm8.946,9.918V22.89h8.363v1.945h-6.223v6.612h5.251v2.139h-5.251v6.807h6.223v1.945ZM219.887,22.7a4.276,4.276,0,0,1,3.306,1.167,4.5,4.5,0,0,1,.972,3.306l-2.139.389a6.992,6.992,0,0,0-.389-2.139,1.9,1.9,0,0,0-1.75-.778,2.764,2.764,0,0,0-1.167.389c-.194.194-.583.389-.583.778-.195.389-.195.583-.389.972V38.642c0,.389.194.583.389.972.194.194.389.583.583.778s.583.194,1.167.194c.778,0,1.361-.194,1.556-.583a3.128,3.128,0,0,0,.583-2.139l2.334.389a4.575,4.575,0,0,1-1.167,3.306,5.267,5.267,0,0,1-6.612,0,4.754,4.754,0,0,1-1.167-3.5V28.335a6,6,0,0,1,.195-1.945l.583-1.75a2.614,2.614,0,0,1,1.361-1.167,2.672,2.672,0,0,1,2.334-.778Zm13.03,19.642v-17.5h-4.279v17.5H226.5V22.89h8.557V42.338Zm8.946-8.557,2.528-10.891h2.139l-3.89,14.975a6.224,6.224,0,0,1-.972,2.528c-.389.583-.583,1.167-.972,1.361a1.777,1.777,0,0,1-.972.583c-.389,0-.778.194-1.167.194h-.972v-1.75h.972a1.681,1.681,0,0,0,1.167-.583,3.656,3.656,0,0,0,.778-1.945l.389-1.167L236.612,22.7h2.139l3.112,11.085ZM250.42,40.2h1.556a3.664,3.664,0,0,0,1.556-.389,1.942,1.942,0,0,0,.972-.778,2.764,2.764,0,0,0,.389-1.167c0-.389.194-.972.194-1.556V34.947a2.764,2.764,0,0,0-.389-1.167,1.942,1.942,0,0,0-.972-.778,3.664,3.664,0,0,0-1.556-.389h-1.556V40.2Zm0-9.529h1.556a8.631,8.631,0,0,1,2.528.389,3.024,3.024,0,0,1,1.556,1.167,6.907,6.907,0,0,1,.778,1.75,8.718,8.718,0,0,1,.194,2.334,10.274,10.274,0,0,1-.194,2.528,5.824,5.824,0,0,1-.778,1.945,3.024,3.024,0,0,1-1.556,1.167,7.619,7.619,0,0,1-2.528.389h-3.89V22.89h7.974v1.945h-5.64v5.834Zm11.863,1.75a30.186,30.186,0,0,1-.194,4.473q-.292,1.75-.583,2.917a2.832,2.832,0,0,1-1.167,1.75,6.787,6.787,0,0,1-1.75,1.167l-.972-1.556c.389-.389.778-.583,1.167-.972a4.068,4.068,0,0,0,.778-1.167c.195-.583.389-1.167.583-1.945a12.879,12.879,0,0,0,.194-2.917V22.89h8.168V42.338h-2.139v-17.5h-3.89v7.585Zm16.142-3.89-4.862,13.614h-2.139V22.89h2.139V36.5h.194L278.619,22.7h2.139V42.143h-2.139l-.194-13.614Zm5.056,13.808V22.89h2.139v8.557h1.945c.389,0,.583-.194.972-.389.194-.194.583-.389.778-.778a13.4,13.4,0,0,0,.583-1.556l1.361-5.64h1.945l-1.361,5.64a6.491,6.491,0,0,1-.972,2.334,8.985,8.985,0,0,1-1.361,1.361,3.1,3.1,0,0,1,1.75,1.361,7.627,7.627,0,0,1,.972,2.528l1.361,6.223h-2.139L290.288,36.7a13.394,13.394,0,0,0-.583-1.556,1.942,1.942,0,0,0-.778-.972c-.389-.194-.583-.389-.972-.389s-.583-.194-.972-.194h-1.361v8.752Zm19.059,0-.972-4.279h-4.279l-.778,4.279h-2.139l4.084-19.448H300.6l4.279,19.448Zm-3.112-15.558-.778,4.473-.972,4.473h3.5l-.972-4.668-.778-4.279Zm11.28-4.084a4.276,4.276,0,0,1,3.306,1.167,4.5,4.5,0,0,1,.972,3.306l-2.139.389a6.991,6.991,0,0,0-.389-2.139,1.9,1.9,0,0,0-1.75-.778,2.764,2.764,0,0,0-1.167.389c-.194.194-.583.389-.583.778-.194.389-.194.583-.389.972V38.642c0,.389.195.583.389.972.195.194.389.583.583.778s.583.194,1.167.194c.778,0,1.361-.194,1.556-.583a3.128,3.128,0,0,0,.583-2.139l2.334.389a4.575,4.575,0,0,1-1.167,3.306,5.267,5.267,0,0,1-6.612,0,4.754,4.754,0,0,1-1.167-3.5V28.335a5.994,5.994,0,0,1,.195-1.945l.583-1.75a2.615,2.615,0,0,1,1.361-1.167c.583-.778,1.361-.778,2.334-.778Zm13.419,5.834-4.862,13.614h-2.139V22.89h2.139V36.5h.194L324.322,22.7h2.139V42.143h-2.139l-.194-13.614Z" transform="translate(-78.5 -19)" fill="#e8e8e8" fill-rule="evenodd"/>
        <path id="Контур_6336" data-name="Контур 6336" d="M82,56.442h1.361c.194,0,.389,0,.389-.194A1.952,1.952,0,0,0,85.7,55.081a4.957,4.957,0,0,0,.389-2.528A5.151,5.151,0,0,0,85.5,49.83c-.389-.583-1.167-.778-2.334-.778H82v7.39Zm181.255,7.2h-3.306V59.554h-1.167l-2.528-7.779h0l-2.528,7.779h-3.89L254.5,47.691c-.778-1.75-1.361-3.5-2.139-5.445-.778-1.75-1.361-3.5-2.139-5.445h3.89c.389,1.167.778,2.334,1.167,3.306.389,1.167.778,2.334,1.167,3.306h.194l1.75-6.223h3.89l-4.473,10.7,2.334,5.834c.389.972.778,2.139,1.167,3.112h1.556v6.807ZM82,45.941h1.556a11.771,11.771,0,0,1,2.917.389,4.235,4.235,0,0,1,1.75,1.361A7.189,7.189,0,0,1,89.2,49.83a11.771,11.771,0,0,1,.389,2.917A8.049,8.049,0,0,1,88.029,58a5.58,5.58,0,0,1-4.473,1.75H78.5V37.189h9.918V40.5H82v5.445Zm18.087,13.808-.778-4.668H95.031a9.762,9.762,0,0,0-.389,2.334c-.194.778-.194,1.556-.389,2.334h-3.5c.778-3.7,1.556-7.585,2.334-11.28s1.556-7.585,2.334-11.28h3.89l4.668,22.56ZM96.976,42.44a38.94,38.94,0,0,1-.778,4.668c-.194,1.556-.583,3.112-.778,4.668h3.112L96.976,42.44Zm16.142,17.309V49.83h-4.084v9.918h-3.5V37.189h3.5v9.529h4.084V37.189h3.5v22.56Zm8.363,0v4.279h-2.917v-7.2l1.361-.389a4.436,4.436,0,0,0,1.167-2.334,13.964,13.964,0,0,0,.389-3.306l.389-13.808h10.113V56.442h1.361v7.39h-2.917V59.554H121.48Zm3.112-8.946c0,1.361-.194,2.334-.194,3.306a6.561,6.561,0,0,1-.778,2.334h4.862V40.3h-3.7l-.194,10.5Zm22.365-13.614v22.56h-3.5V40.5h-3.5v8.752a34.467,34.467,0,0,1-.194,4.668,12.1,12.1,0,0,1-.778,3.112,8.031,8.031,0,0,1-1.361,2.139,6.725,6.725,0,0,1-2.334,1.361L133.927,58c.583-.389.972-.778,1.361-.972a3.135,3.135,0,0,0,.778-1.361,6,6,0,0,0,.389-2.139c0-.778.194-1.75.194-3.112V37.189Zm11.28,8.363-4.668,14.2h-3.306V37.189h3.5V51.58h.194l4.667-14.391h3.5v22.56h-3.5l-.389-14.2Zm6.807,14.2V37.189h3.5v9.529h.778a2.5,2.5,0,0,0,1.945-.778,3.857,3.857,0,0,0,1.167-2.528,6.877,6.877,0,0,0,.194-1.167c.194-.583.194-1.361.389-1.945.194-.778.194-1.361.389-1.945a3.422,3.422,0,0,0,.194-1.167h3.306a16.47,16.47,0,0,1-.778,3.306,20.345,20.345,0,0,1-.778,3.306,5.808,5.808,0,0,1-1.167,2.723,2.922,2.922,0,0,1-1.75,1.361h0a3.883,3.883,0,0,1,1.945,1.556,7.3,7.3,0,0,1,.972,2.723c.195,1.361.583,2.528.778,3.7s.583,2.528.778,3.7h-3.5c-.194-1.167-.389-2.139-.583-3.306a20.342,20.342,0,0,0-.778-3.306,3.857,3.857,0,0,0-1.167-2.528,3.455,3.455,0,0,0-1.945-.778h-.972v9.918h-2.917Zm28.2-16.336a4.147,4.147,0,0,0-.583-2.334,3.128,3.128,0,0,0-2.139-.583h-1.167v5.834h1.167a2.048,2.048,0,0,0,1.945-.778,2.925,2.925,0,0,0,.778-2.139Zm.194,9.141a3.739,3.739,0,0,0-.583-2.334,2.423,2.423,0,0,0-2.139-.778h-1.361v7h1.361a2.811,2.811,0,0,0,1.361-.389,1.518,1.518,0,0,0,.778-.778,2.764,2.764,0,0,0,.389-1.167,4.282,4.282,0,0,0,.195-1.556Zm.778-4.668a3.535,3.535,0,0,1,2.139,1.945,8.062,8.062,0,0,1,.583,3.112,8.048,8.048,0,0,1-1.556,5.251q-1.459,1.75-4.667,1.75h-4.667V37.189h4.862a5.434,5.434,0,0,1,4.279,1.556c.972.972,1.361,2.528,1.361,4.473a6.212,6.212,0,0,1-.583,2.723,4.135,4.135,0,0,1-1.75,1.945Zm13.808,11.863-.972-4.668h-4.084a9.76,9.76,0,0,0-.389,2.334c-.195.778-.195,1.556-.389,2.334h-3.5c.778-3.7,1.556-7.585,2.334-11.28s1.556-7.585,2.334-11.28h3.89l4.667,22.56ZM204.912,42.44a38.943,38.943,0,0,1-.778,4.668c-.195,1.556-.583,3.112-.778,4.668h3.112l-1.556-9.335Zm21.976,12.252-1.556-4.279-1.361-3.89h-.195v13.03h-3.5V37.189h3.5l2.528,6.418,1.75,4.862h.195L230,43.412l2.528-6.223h3.306v22.56h-3.5V46.718h-.195L230.777,50.8l-1.556,4.084h-2.334Zm11.863,5.056V37.189h10.113V40.5h-6.612v6.223h5.64v3.306h-5.64v6.612h6.612v3.306H238.751Zm33.256,0V49.83h-3.89v9.918h-3.5V37.189h3.5v9.529H272.2V37.189h3.5v22.56Zm14.975,0-.972-4.668h-4.084a9.76,9.76,0,0,0-.389,2.334c-.194.778-.194,1.556-.389,2.334h-3.5c.778-3.7,1.556-7.585,2.334-11.28s1.556-7.585,2.334-11.28h3.89l4.667,22.56ZM284.065,42.44a38.94,38.94,0,0,1-.778,4.668c-.194,1.556-.583,3.112-.778,4.668h3.112l-1.556-9.335ZM297.289,40.5h3.7V37.189h-10.7V40.5h3.7V59.749h3.5V40.5Zm18.67,14.2L314.4,50.414l-1.361-3.89h-.195v13.03h-3.5V37.189h3.5l2.528,6.418,1.75,4.862h.195l1.75-5.056,2.528-6.223h3.306v22.56h-3.5V46.718h-.195L319.849,50.8l-1.556,4.084h-2.334Zm16.725-5.834,2.723-11.669h3.306l-4.473,17.5a25.435,25.435,0,0,1-.972,2.917,5.369,5.369,0,0,1-1.167,1.556,3.134,3.134,0,0,1-1.361.778,3.791,3.791,0,0,1-1.556.194h-1.361V57.22h.778a1.766,1.766,0,0,0,1.361-.583,3.665,3.665,0,0,0,.778-1.75V54.3c0-.194,0-.194.194-.389V53.72l-4.473-16.531h3.5l2.723,11.669Zm15.364,10.891V49.83h-4.084v9.918h-3.5V37.189h3.5v9.529h4.084V37.189h3.5v22.56Zm14-17.114a5.679,5.679,0,0,0-.389-1.75c-.194-.583-.778-.778-1.556-.778a1.457,1.457,0,0,0-.972.194,2.685,2.685,0,0,0-.583.778c-.194.194-.194.583-.389.972V54.3a3.665,3.665,0,0,0,.389,1.556,2.021,2.021,0,0,0,1.556.778,1.578,1.578,0,0,0,1.556-.778,2.89,2.89,0,0,0,.389-1.75V42.634Zm3.5,11.28c0,1.945-.389,3.5-1.361,4.473a5.571,5.571,0,0,1-4.084,1.556c-1.945,0-3.306-.389-4.084-1.361a6.419,6.419,0,0,1-1.361-4.084V43.023a9.854,9.854,0,0,1,.389-2.528,6.083,6.083,0,0,1,.972-1.945,2.832,2.832,0,0,1,1.75-1.167,5.338,5.338,0,0,1,2.528-.389,8.631,8.631,0,0,1,2.528.389,3.5,3.5,0,0,1,1.75,1.167,6.084,6.084,0,0,1,.972,1.945,10.275,10.275,0,0,1,.194,2.528V53.914Zm8.557-16.92a7.253,7.253,0,0,1,2.334.389,4.592,4.592,0,0,1,1.75,1.167,4.234,4.234,0,0,1,.972,1.556,6.991,6.991,0,0,1,.389,2.139l-3.5.972a4.881,4.881,0,0,0-.389-1.945,1.578,1.578,0,0,0-1.556-.778,1.458,1.458,0,0,0-.972.194l-.583.583a1.457,1.457,0,0,0-.194.972V55.47c0,.194.194.583.194.778l.583.583a1.457,1.457,0,0,0,.972.194c1.361,0,1.945-.972,1.945-2.723a5.384,5.384,0,0,0,1.75.194c.583,0,1.167.194,1.75.194a6.419,6.419,0,0,1-1.361,4.084,5.113,5.113,0,0,1-3.89,1.556c-1.945,0-3.306-.389-4.084-1.361a5.478,5.478,0,0,1-1.361-4.084V43.023a9.468,9.468,0,0,1,.194-2.334,6.084,6.084,0,0,1,.972-1.945,4.235,4.235,0,0,1,1.75-1.361,6.35,6.35,0,0,1,2.334-.389Zm15.947,22.754-.972-4.668H385a9.763,9.763,0,0,0-.389,2.334c-.194.778-.194,1.556-.389,2.334h-3.5c.778-3.7,1.556-7.585,2.334-11.28s1.556-7.585,2.334-11.28h3.89l4.668,22.56ZM386.944,42.44a38.94,38.94,0,0,1-.778,4.668c-.194,1.556-.583,3.112-.778,4.668H388.5l-1.556-9.335Zm12.252,14h1.361c.194,0,.389,0,.389-.194a1.952,1.952,0,0,0,1.945-1.167,4.957,4.957,0,0,0,.389-2.528,5.151,5.151,0,0,0-.583-2.723c-.389-.583-1.167-.778-2.334-.778H399.2v7.39Zm0-10.5h1.556a11.771,11.771,0,0,1,2.917.389,4.235,4.235,0,0,1,1.75,1.361,7.19,7.19,0,0,1,.972,2.139,12.879,12.879,0,0,1,.194,2.917A8.048,8.048,0,0,1,405.031,58a5.58,5.58,0,0,1-4.473,1.75H395.5V37.189h9.918V40.5H399v5.445Zm17.892,13.808-.972-4.668h-4.084a9.761,9.761,0,0,0-.389,2.334c-.195.778-.195,1.556-.389,2.334h-3.5c.778-3.7,1.556-7.585,2.334-11.28s1.556-7.585,2.334-11.28h3.89l4.668,22.56ZM414.172,42.44a38.94,38.94,0,0,1-.778,4.668c-.194,1.556-.583,3.112-.778,4.668h3.112l-1.556-9.335ZM427.2,40.5h3.7V37.189H420.2V40.5h3.7V59.749h3.5V40.5Zm16.92-3.306v22.56h-3.5V40.5h-3.5v8.752a34.461,34.461,0,0,1-.195,4.668,12.1,12.1,0,0,1-.778,3.112,8.03,8.03,0,0,1-1.361,2.139,6.725,6.725,0,0,1-2.334,1.361L431.091,58c.583-.389.972-.778,1.361-.972a3.135,3.135,0,0,0,.778-1.361,6,6,0,0,0,.389-2.139c0-.778.194-1.75.194-3.112V37.189ZM455.6,59.749l-.778-4.668h-4.084a9.76,9.76,0,0,0-.389,2.334c-.194.778-.194,1.556-.389,2.334h-3.5c.778-3.7,1.556-7.585,2.334-11.28s1.556-7.585,2.334-11.28h3.89l4.667,22.56ZM452.484,42.44a38.964,38.964,0,0,1-.778,4.668c-.195,1.556-.583,3.112-.778,4.668h3.112l-1.556-9.335ZM466.1,37.189a5.906,5.906,0,0,1,4.473,1.556c.972,1.167,1.361,2.917,1.361,5.251a15.009,15.009,0,0,1-.389,2.917,7.187,7.187,0,0,1-.972,2.139,3.566,3.566,0,0,1-1.945,1.361,6.494,6.494,0,0,1-2.917.583h-1.167v8.752h-3.5V37.189ZM464.542,40.5v7.39h1.167a2.914,2.914,0,0,0,2.334-.972,5.15,5.15,0,0,0,.583-2.723,4.413,4.413,0,0,0-.583-2.528,2.509,2.509,0,0,0-2.139-.972h-1.361Zm17.892,5.056-4.667,14.2h-3.5V37.189h3.5V51.58h.195l4.667-14.391h3.5v22.56h-3.5l-.194-14.2Z" transform="translate(-78.5 -2.183)" fill="#e8e8e8" fill-rule="evenodd"/>
        <path id="Контур_6337" data-name="Контур 6337" d="M85.112,63.835a2.76,2.76,0,0,1,1.75,1.556,6.643,6.643,0,0,1,.389,2.917,7.225,7.225,0,0,1-1.167,4.473c-.778.972-2.139,1.361-3.89,1.361H78.5V54.694h4.084c1.75,0,2.917.389,3.5,1.361a5.8,5.8,0,0,1,.972,3.89,9.853,9.853,0,0,1-.389,2.528,3.69,3.69,0,0,1-1.556,1.361Zm.194,4.279a4.865,4.865,0,0,0-.583-2.528c-.389-.583-1.167-.778-2.334-.778H80.834V72.2h1.75a3.664,3.664,0,0,0,1.556-.389c.389-.194.583-.583.778-.778a2.764,2.764,0,0,0,.389-1.167v-1.75Zm-.194-8.363a4.147,4.147,0,0,0-.583-2.334,2.423,2.423,0,0,0-2.139-.778H80.834v6.223H82.39a2.423,2.423,0,0,0,2.139-.778,4.147,4.147,0,0,0,.583-2.334ZM97.17,74.142,96.2,69.864H91.919l-.778,4.279H89l4.084-19.448h2.139L99.5,74.142ZM94.058,58.584l-.778,4.668-.972,4.473h3.5l-.778-4.667-.972-4.473ZM104.366,54.5a6,6,0,0,1,1.945.194,3.134,3.134,0,0,1,1.361.778,4.235,4.235,0,0,1,.972,1.556,8.631,8.631,0,0,1,.389,2.528v1.167c0,.389-.194.778-.194,1.361l-.583,1.167c-.194.389-.583.583-.778.778h0a4.242,4.242,0,0,1,.972.778l.583,1.167a2.467,2.467,0,0,1,.194,1.167V68.5a8.173,8.173,0,0,1-.972,4.279,4.273,4.273,0,0,1-3.5,1.556,5.385,5.385,0,0,1-1.75-.194,3.134,3.134,0,0,1-1.361-.778A3.488,3.488,0,0,1,100.671,72a6,6,0,0,1-.194-1.945l2.139-.389a3.128,3.128,0,0,0,.583,2.139,2.377,2.377,0,0,0,1.75.583c.389,0,.583,0,.778-.194s.583-.389.778-.583a1.644,1.644,0,0,0,.389-1.167,5.42,5.42,0,0,0,.194-1.945,3.31,3.31,0,0,0-.194-1.361,2.764,2.764,0,0,0-.389-1.167,2.685,2.685,0,0,0-.583-.778,1.457,1.457,0,0,0-.972-.194h-1.167V63.057h1.361a1.457,1.457,0,0,0,.972-.194c.194-.194.583-.389.583-.778.194-.389.194-.778.389-1.167,0-.389.194-.972.194-1.361A3.791,3.791,0,0,0,107.088,58c-.194-.389-.194-.778-.583-.972a1.01,1.01,0,0,0-.778-.389,8.423,8.423,0,0,0-.972-.194,1.9,1.9,0,0,0-1.75.778,3.286,3.286,0,0,0-.583,1.945l-2.139-.389a4.006,4.006,0,0,1,1.361-3.306,3.847,3.847,0,0,1,2.723-.972Zm14.391,5.834L113.9,73.948h-2.139V54.5H113.9V68.308h.194L118.952,54.5h2.139V73.948h-2.139l-.194-13.614Zm9.141-5.64a9.853,9.853,0,0,1,2.528.389,3.025,3.025,0,0,1,1.556,1.167A6.909,6.909,0,0,1,132.76,58a10.274,10.274,0,0,1,.194,2.528,9.469,9.469,0,0,1-.194,2.334,5.824,5.824,0,0,1-.778,1.945,3.024,3.024,0,0,1-1.556,1.167,4.957,4.957,0,0,1-2.528.389h-1.75v7.779h-2.139V54.694Zm-1.75,9.529H127.7a3.664,3.664,0,0,0,1.556-.389,1.942,1.942,0,0,0,.972-.778,2.764,2.764,0,0,0,.389-1.167V60.529a4.282,4.282,0,0,0-.194-1.556,2.085,2.085,0,0,0-.389-1.167,1.942,1.942,0,0,0-.972-.778,3.664,3.664,0,0,0-1.556-.389h-1.361v7.585Zm11.863.194a30.176,30.176,0,0,1-.195,4.473q-.292,1.75-.583,2.917a2.832,2.832,0,0,1-1.167,1.75,6.787,6.787,0,0,1-1.75,1.167l-.972-1.556c.389-.389.778-.583,1.167-.972a4.068,4.068,0,0,0,.778-1.167c.194-.583.389-1.167.583-1.945a12.877,12.877,0,0,0,.194-2.917V54.694h8.168V74.142h-2.139v-17.5h-3.89v7.779Zm15.947-4.084L149.1,73.948h-2.139V54.5H149.1V68.308h.194L154.153,54.5h2.139V73.948h-2.139l-.194-13.614Zm7.39-3.7v17.5h-2.139V54.694h7.974v2.139h-5.834Zm14.78,3.7-4.862,13.614h-2.139V54.5h2.139V68.308h.194L176.323,54.5h2.139V73.948h-2.139l-.194-13.614Z" transform="translate(-78.5 14.54)" fill="#e8e8e8" fill-rule="evenodd"/>
      </g>
    </g>
  </g>
</svg>
