<svg id="Сгруппировать_50" data-name="Сгруппировать 50" xmlns="http://www.w3.org/2000/svg" width="109.935" height="128" viewBox="0 0 109.935 128">
  <g id="Сгруппировать_49" data-name="Сгруппировать 49">
    <path id="Контур_6333" data-name="Контур 6333" d="M60.268,64.42a2.266,2.266,0,0,1,2.218,2.218,1.783,1.783,0,0,1-1.109,1.743v5.228l-3.644,3.961v7.287a1.267,1.267,0,1,1-2.535,0V77.093h0v-.317h0l.158-.158h0l3.327-3.327V68.855a2.4,2.4,0,0,1-1.109-1.743c.475-1.743,1.584-2.693,2.693-2.693ZM48.228.1A45.083,45.083,0,0,0,33.337,8.655,41.826,41.826,0,0,0,22.565,23.547a40.84,40.84,0,0,0-3.01,11.248C18.446,45.409,22.723,54.756,30.8,61.726c1.267,1.109,2.376,2.059,3.485,3.168a6.961,6.961,0,0,1,1.9,2.852.155.155,0,0,0,.158.158,7.135,7.135,0,0,1-1.426,1.584,2.985,2.985,0,0,0-.317-1.267A5.683,5.683,0,0,0,33.02,66a31.678,31.678,0,0,0-3.485-3.01c-8.554-7.446-12.99-17.11-11.881-28.516a49.046,49.046,0,0,1,3.01-11.723c4.119-8.713,9.5-14.892,17.9-19.644C27.317,6.754,9.733,18,6.723,33.686c-.158-.317-.634-1.109-.95-1.584C1.337,41.924-.722,57.449,4.189,65.37c-.792-.317-1.426-.634-1.584-1.109,1.267,5.862,3.327,16.159,12.04,16a14.836,14.836,0,0,1-5.861.158c2.059,3.8,5.545,9.03,10.614,8.713A8.534,8.534,0,0,1,16.07,90.4c1.584,1.743,4.594,5.386,9.5,4.753a4.817,4.817,0,0,1-3.01,1.109,37.854,37.854,0,0,0,7.287,4.594c.317.792.792,1.584,1.109,2.376a49.4,49.4,0,0,1-11.406-7.6,2.349,2.349,0,0,0,1.109-.158c-3.8-1.426-5.545-4.119-7.287-6.02a2.349,2.349,0,0,0,1.109-.158c-3.96-1.9-6.653-7.287-8.4-10.614a2.685,2.685,0,0,0,1.584,0C3.08,74.242,1.5,67.113.545,61.251c.317.158.475.317.634.317-1.9-8.555-1.584-19.961,4.594-32.635a1.237,1.237,0,0,0,.634.634C12.268,12.774,30.01,1.526,48.228.1ZM71.674,119.551a4.319,4.319,0,0,0-2.059,2.376,11.263,11.263,0,0,1-4.436,1.584,13.9,13.9,0,0,0,5.7-.317,8.8,8.8,0,0,1,.792-3.644Zm4.436-5.386v1.743a6.719,6.719,0,0,1-2.851,1.109,8.82,8.82,0,0,0,5.386-.634,4.832,4.832,0,0,1-2.535-2.218Zm-3.96,4.436a10.33,10.33,0,0,0,9.822-1.584,17.6,17.6,0,0,1-6.812-6.812l1.426-1.267a15.3,15.3,0,0,0,8.4,7.6,12.107,12.107,0,0,1-9.663,4.436,4.782,4.782,0,0,0-.475,5.545c-6.178.792-9.822,1.743-13.941-1.584l.317-1.9c1.584,1.109,2.535,1.9,4.436,2.218a15.266,15.266,0,0,0,3.8,0,19.41,19.41,0,0,1,3.01-.317,5.867,5.867,0,0,1,1.267-4.594c-.634-.792-1.267-1.109-1.584-1.743Zm-33.743.951a4.319,4.319,0,0,1,2.059,2.376,11.263,11.263,0,0,0,4.436,1.584,13.9,13.9,0,0,1-5.7-.317,8.8,8.8,0,0,0-.792-3.644Zm-4.436-5.386v1.743a6.719,6.719,0,0,0,2.851,1.109,8.82,8.82,0,0,1-5.386-.634,4.832,4.832,0,0,0,2.535-2.218Zm3.96,4.436a10.33,10.33,0,0,1-9.822-1.584,17.6,17.6,0,0,0,6.812-6.812L33.5,108.936a15.3,15.3,0,0,1-8.4,7.6,12.107,12.107,0,0,0,9.663,4.436,4.782,4.782,0,0,1,.475,5.545c6.178.792,9.822,1.743,13.941-1.584l-.317-1.9c-1.584,1.109-2.535,1.9-4.436,2.218a15.266,15.266,0,0,1-3.8,0,19.41,19.41,0,0,0-3.01-.317,5.867,5.867,0,0,0-1.267-4.594,7.446,7.446,0,0,0,1.584-1.743Zm35.8-50.7a7.136,7.136,0,0,0,1.426,1.584,2.985,2.985,0,0,1,.317-1.267A5.683,5.683,0,0,1,77.06,66a31.677,31.677,0,0,1,3.485-3.01c8.554-7.446,12.99-17.11,11.881-28.516a49.047,49.047,0,0,0-3.01-11.723C85.3,13.883,79.911,7.7,71.515,3.11c11.248,3.644,28.99,14.733,32,30.417.158-.317.634-1.109.95-1.584,4.436,9.822,6.337,25.506,1.584,33.269.792-.317,1.426-.634,1.584-1.109-1.267,5.862-3.327,16.159-12.04,16a14.837,14.837,0,0,0,5.861.158c-2.059,3.8-5.545,9.03-10.614,8.713a8.534,8.534,0,0,0,3.327,1.267c-1.584,1.743-4.594,5.386-9.5,4.753a4.818,4.818,0,0,0,3.01,1.109,37.854,37.854,0,0,1-7.287,4.594c-.317.792-.792,1.584-1.109,2.376a49.4,49.4,0,0,0,11.406-7.6,2.349,2.349,0,0,1-1.109-.158c3.8-1.426,5.545-4.119,7.287-6.02a2.349,2.349,0,0,1-1.109-.158c3.96-1.9,6.653-7.287,8.4-10.614a2.686,2.686,0,0,1-1.584,0c4.594-4.436,6.178-11.565,7.129-17.426-.317.158-.475.317-.634.317,1.9-8.555,1.584-19.961-4.594-32.635a1.237,1.237,0,0,1-.634.634C97.971,12.774,80.228,1.526,61.852.1A45.083,45.083,0,0,1,76.743,8.655,41.825,41.825,0,0,1,87.515,23.547a40.84,40.84,0,0,1,3.01,11.248c1.109,10.614-3.168,19.961-11.248,26.932-1.267,1.109-2.376,2.059-3.485,3.168a14.358,14.358,0,0,0-2.059,3.01ZM53.139,55.39c-1.743-.634-2.376-2.376-1.584-4.436a2.738,2.738,0,0,0,1.584,2.852,2.706,2.706,0,0,0,1.109-3.168c.792,2.059.475,4.119-1.109,4.753Zm12.99-8.4a5.6,5.6,0,0,0-2.693-.634c-.475,0-.95-.317-.792-1.267-.95,2.059-1.267,3.327-3.96,2.693-1.584-.317-2.218.951-1.9,2.218.158.792.475,1.9-.317,2.693a3.687,3.687,0,0,0-1.743-2.218,3.2,3.2,0,0,1,.475,3.8c3.168-.634,3.168,1.9,2.693,3.168.792,0,1.584.158,2.059.158a32.186,32.186,0,0,1-1.584-7.763c0-.475,0-.634.317-.475a4.3,4.3,0,0,0,4.594-1.584,6.905,6.905,0,0,1,4.594,1.426c.317-2.852.475-5.545-3.01-6.654-.475-1.584-1.743-2.218-3.485-2.059-2.218-3.485-10.3.158-13.465-2.059a4.459,4.459,0,0,1-1.584-3.327,7.184,7.184,0,0,0-2.376,3.327,6.952,6.952,0,0,0,1.109,6.5A6.17,6.17,0,0,0,48.7,47.31c-.158.158-.317.317-.317.475C46.644,50.637,46.8,54.914,46.8,58.241c.475-.158,1.109-.158,1.584-.317-.475-1.584,0-3.327,2.218-3.485-.317-.634-.792-1.743.475-3.8a2.861,2.861,0,0,0-1.743,2.218,2.515,2.515,0,0,1-.317-2.535,7.723,7.723,0,0,1,.475-1.109v-.158c1.584-3.01,6.97-1.109,8.4-5.7a6.438,6.438,0,0,1-1.584,1.426c-.95.475-1.584-1.426-2.851-1.426a1.837,1.837,0,0,1,.634,1.584c-.158.634-.475.792-.95.317s-.792-1.426-1.584-1.584a1.513,1.513,0,0,1,.317,1.584c-.158.634-.634.951-1.109.317-.317-.317-.475-.951-.95-1.267a1.057,1.057,0,0,1-1.584,1.109,5.564,5.564,0,0,1-2.851-2.852,5.29,5.29,0,0,1,.158-4.119V38.28c2.851,5.228,13.149.158,14.416,3.485l.158.634h.634c1.109-.158,2.218-.158,2.376,1.267V44.3l.475.158a2.329,2.329,0,0,1,2.535,2.535ZM49.812,57.766A4.52,4.52,0,0,1,50.921,56.5c-.158.475-.317.792-.475,1.267Zm6.337-.158a4.827,4.827,0,0,0-1.109-1.584A2.884,2.884,0,0,1,57.1,57.607Zm-4.752,0c0-.317.158-.634.158-.951a1.187,1.187,0,0,0,.158.792l-.317.158Zm3.168,0c0-.317-.158-.792-.158-1.267a4.743,4.743,0,0,1,.634,1.267ZM16.387,40.339c-.317,9.822,3.8,18.06,12.356,25.981,1.743,1.9,1.9,4.119,2.535,6.02a3.314,3.314,0,0,0,.95-.634c-.158-.951-.158-1.584-.317-2.218a3.684,3.684,0,0,1,1.109,1.743c.317-.158.475-.475.792-.634,0-.317-.158-.634-.158-.951a2.937,2.937,0,0,0-.317-1.109c-.634-1.584-3.327-3.644-4.594-4.594-7.287-6.02-11.881-14.258-12.356-23.6ZM16.7,55.073c-10.3-9.189-7.762-25.348.158-32a30.825,30.825,0,0,0-.634,11.406,46.14,46.14,0,0,1,3.168-12.2,44.444,44.444,0,0,1,8.4-12.991C20.03,14.2,11.951,21.8,8.941,30.359,6.565,38.121,7.674,49.528,16.7,55.073ZM5.3,38.438C.862,52.7,2.288,70.281,15.911,66.479,7.515,66.8,4.505,61.568,5.3,49.845c2.059,5.07,6.653,7.763,10.772,9.189C9.575,54.439,5.614,49.211,5.3,38.438ZM5.139,68.38c2.059,10.614,9.03,11.09,13.149,7.287-4.752,2.535-8.079.317-9.663-3.327a9.389,9.389,0,0,0,7.762-2.376A12.923,12.923,0,0,1,5.139,68.38Zm6.653,14.1c4.911,7.6,10.139,3.961,11.406,1.267-2.218,1.9-5.545,2.218-7.287.158a8.985,8.985,0,0,0,4.436-4.277,12.985,12.985,0,0,1-8.554,2.852ZM25.1,85.648a9.825,9.825,0,0,1-6.178,5.386c2.535,2.852,6.653,3.327,8.238,1.109,0-.475-.158-.792-.158-1.267a3.177,3.177,0,0,1-4.436.475,10.989,10.989,0,0,0,2.535-5.7Zm3.485,11.723a9.844,9.844,0,0,0-.475-1.584,3.236,3.236,0,0,1-2.059,1.267,2.572,2.572,0,0,0,2.535.317ZM17.5,58.241c-1.743,9.664,3.01,8.555,5.861,8.238C20.664,66,18.446,64.895,18.6,62.043a8.941,8.941,0,0,0,4.752,1.267,13.83,13.83,0,0,1-5.861-5.07Zm.158,9.664c-.158,8.555,5.069,6.5,6.97,4.594-2.535.951-4.594.475-4.752-1.9a6,6,0,0,0,4.436-1.584c-4.119,1.109-5.7-.317-6.653-1.109Zm2.059,8.555c2.376,6.02,5.069,4.436,6.653,2.218v-.792c-1.584,1.426-3.168,1.584-3.8.158a5.429,5.429,0,0,0,3.01-3.644c-2.851,2.693-4.911,2.218-5.861,2.059Zm3.644,6.02a11.607,11.607,0,0,0,3.01,3.168,30.527,30.527,0,0,1-.158-3.8,4.263,4.263,0,0,1-2.851.634Zm1.267-16c.158,6.337,3.168,5.07,4.752,4.436-1.584.158-3.327-.158-3.327-2.059a5.783,5.783,0,0,0,2.851,0,8.28,8.28,0,0,1-4.277-2.376Zm1.109,6.178a12.2,12.2,0,0,0,.95,2.376v-.475l.792-.317c0-.158,0-.158-.158-.317a3.623,3.623,0,0,0,2.376-1.743c-2.218,1.267-3.485.792-3.96.475ZM13.852,30.676c-2.535,4.753-3.01,14.416,2.693,21.229-1.426-1.743-3.327-8.08-2.535-13.308a16.389,16.389,0,0,1-.158-7.921ZM7.515,57.607c.95,4.277,3.168,6.812,7.287,6.971A10.18,10.18,0,0,1,11,61.885a6.721,6.721,0,0,0,3.485-.317,12.853,12.853,0,0,1-6.97-3.961Zm5.7,16.476a3.338,3.338,0,0,0,3.8.475,1.8,1.8,0,0,1-1.267-.475,1.711,1.711,0,0,0,.475-1.109,4.444,4.444,0,0,1-3.01,1.109Zm5.7,9.505c1.109.158,2.218.317,3.168-.792a1.339,1.339,0,0,1-1.109,0,2.2,2.2,0,0,0,0-1.426,4.022,4.022,0,0,1-2.059,2.218Zm5.861,6.654a2.6,2.6,0,0,0,1.9-1.109V88.5c-.158,0-.317.158-.475,0a2.4,2.4,0,0,0-.634-1.267,3.794,3.794,0,0,1-.792,3.01Zm69.069-49.9c.317,9.822-3.8,18.06-12.356,25.981-1.743,1.9-1.9,4.119-2.535,6.02a3.314,3.314,0,0,1-.95-.634c.158-.951.158-1.584.317-2.218a3.684,3.684,0,0,0-1.109,1.743c-.317-.158-.475-.475-.792-.634,0-.317.158-.634.158-.951a2.937,2.937,0,0,1,.317-1.109c.634-1.584,3.327-3.644,4.594-4.594a33.8,33.8,0,0,0,12.356-23.6Zm-.634,14.733c10.455-9.347,7.762-25.506-.158-32.16a30.826,30.826,0,0,1,.634,11.406,46.14,46.14,0,0,0-3.168-12.2,44.444,44.444,0,0,0-8.4-12.991c7.762,4.911,15.842,12.515,18.851,21.07,2.693,7.921,1.426,19.328-7.762,24.872Zm11.564-16.634c4.436,14.258,3.01,31.843-10.614,28.041,8.4.317,11.406-4.911,10.614-16.634-2.059,5.07-6.653,7.763-10.772,9.189,6.5-4.594,10.455-9.822,10.772-20.595Zm.158,29.942c-2.059,10.614-9.03,11.09-13.149,7.287,4.752,2.535,8.079.317,9.663-3.327a9.389,9.389,0,0,1-7.762-2.376,12.817,12.817,0,0,0,11.248-1.584Zm-6.653,14.1c-4.911,7.6-10.139,3.961-11.406,1.267,2.218,1.9,5.545,2.218,7.287.158a8.985,8.985,0,0,1-4.436-4.277,13.57,13.57,0,0,0,8.554,2.852ZM85.139,85.648a9.571,9.571,0,0,0,6.178,5.228c-2.535,2.852-6.653,3.327-8.238,1.109,0-.475.158-.792.158-1.267a3.177,3.177,0,0,0,4.436.475,9.977,9.977,0,0,1-2.535-5.545ZM81.654,97.372a9.844,9.844,0,0,1,.475-1.584,3.236,3.236,0,0,0,2.059,1.267c-1.267.634-2.059.634-2.535.317Zm10.931-39.13c1.743,9.664-3.01,8.555-5.861,8.238,2.693-.475,4.911-1.584,4.752-4.436-1.267,1.109-3.327,1.267-4.752,1.267a13.83,13.83,0,0,0,5.861-5.07ZM92.426,67.9c.158,8.555-5.069,6.5-6.97,4.594,2.535.951,4.594.475,4.752-1.9a6,6,0,0,1-4.436-1.584c3.96,1.109,5.861-.317,6.653-1.109ZM90.367,76.46c-2.376,6.02-5.069,4.436-6.653,2.218v-.792c1.584,1.426,3.168,1.584,3.8.158a5.429,5.429,0,0,1-3.01-3.644c2.693,2.693,4.911,2.218,5.861,2.059Zm-3.644,6.02a11.607,11.607,0,0,1-3.01,3.168,30.53,30.53,0,0,0,.158-3.8,4.263,4.263,0,0,0,2.851.634Zm-1.109-16c-.158,6.337-3.168,5.07-4.752,4.436,1.584.158,3.327-.158,3.327-2.059a5.783,5.783,0,0,1-2.851,0,9.093,9.093,0,0,0,4.277-2.376Zm-1.109,6.178a12.2,12.2,0,0,1-.95,2.376v-.475l-.951-.317c0-.158,0-.158.158-.317a3.623,3.623,0,0,1-2.376-1.743c2.218,1.267,3.485.792,4.119.475ZM96.07,30.676C98.6,35.428,99.08,45.092,93.377,51.9,94.8,50.162,96.7,43.825,95.911,38.6a12.126,12.126,0,0,0,.158-7.921Zm6.337,26.932c-.951,4.277-3.168,6.812-7.287,6.971a10.18,10.18,0,0,0,3.8-2.693,6.721,6.721,0,0,1-3.485-.317,10.934,10.934,0,0,0,6.97-3.961ZM97.02,74.083a3.338,3.338,0,0,1-3.8.475,1.8,1.8,0,0,0,1.267-.475,1.711,1.711,0,0,1-.475-1.109,4.182,4.182,0,0,0,3.01,1.109Zm-5.7,9.505c-1.109.158-2.218.317-3.168-.792a1.339,1.339,0,0,0,1.109,0,2.2,2.2,0,0,1,0-1.426,3.171,3.171,0,0,0,2.059,2.218Zm-5.861,6.654a2.6,2.6,0,0,1-1.9-1.109V88.5c.158,0,.317.158.475,0a2.4,2.4,0,0,1,.634-1.267,2.926,2.926,0,0,0,.792,3.01ZM55.2,41.448c2.059,1.109,3.644.158,4.752.792.95.475,1.426,2.218.158,2.535,0-.951-.792-.792-1.267-.792a1.022,1.022,0,0,1-.95-.951.582.582,0,0,1,.158-.475A2.739,2.739,0,0,1,55.2,41.448Zm-8.554-.475a3.411,3.411,0,0,0,1.743,3.485,8.932,8.932,0,0,1-.634-1.9,12.123,12.123,0,0,0,6.653-1.109,11.566,11.566,0,0,1-7.762-.475ZM72.466,95.312a4.885,4.885,0,0,0,3.644.317,5.5,5.5,0,0,0,3.01-1.9,5.151,5.151,0,0,0,1.267-4.119,6.376,6.376,0,0,0-1.426-3.168,8.931,8.931,0,0,0,.634-1.9,6.444,6.444,0,0,0-.317-3.485,11.2,11.2,0,0,0-1.9-2.852,8.525,8.525,0,0,0-3.168-1.584,8.457,8.457,0,0,0-3.485.317A6.511,6.511,0,0,0,68.664,78.2a4.62,4.62,0,0,0-3.168-.634,5.867,5.867,0,0,0-3.8,1.9A6.307,6.307,0,0,0,60.268,82.8a5.7,5.7,0,0,0,1.109,3.485,1.142,1.142,0,1,0,1.9-1.267,3.375,3.375,0,0,1-.634-1.9,2.624,2.624,0,0,1,.792-1.9,3.568,3.568,0,0,1,2.218-1.267,5.389,5.389,0,0,1,1.584.158,16.5,16.5,0,0,0-.792,1.9,1.212,1.212,0,1,0,2.376.475,3.1,3.1,0,0,1,.95-1.9,6.906,6.906,0,0,1,1.743-1.426,4.113,4.113,0,0,1,4.119.792,6.907,6.907,0,0,1,1.426,1.743,3.634,3.634,0,0,1,.158,2.218,4.147,4.147,0,0,1-.95,2.06,4.493,4.493,0,0,1-1.743,1.267,1.252,1.252,0,0,0,.792,2.376,4.023,4.023,0,0,0,2.059-1.426,2.555,2.555,0,0,1,.475,1.426,2.758,2.758,0,0,1-.792,2.376,3.266,3.266,0,0,1-3.8.951,1.114,1.114,0,0,0-1.584.634c-.158.951.158,1.584.792,1.743Zm-1.109,2.376v1.743l-3.485,1.584-.158.317-.475,1.426c-.158.475-.475.951-.634,1.426l-.317.317,1.426,3.485a9.054,9.054,0,0,1-1.109,1.267,7.933,7.933,0,0,1-1.267,1.109l-3.485-1.426-.317.317c-.475.158-.95.475-1.426.634l-1.426.475-.634.158-1.584,3.485H52.981L51.4,110.521l-.634-.158-1.426-.475c-.475-.158-.951-.475-1.426-.634l-.475-.317-3.485,1.426a9.056,9.056,0,0,1-1.267-1.109,7.933,7.933,0,0,1-1.109-1.267L43,104.5l-.158-.317c-.158-.475-.475-.951-.634-1.426l-.475-1.426-.158-.634L38.09,99.114V97.372a1.267,1.267,0,1,0-2.535,0V98.8c0,.475.158.951.158,1.426l.158.634,3.644,1.584c.158.317.317.792.475,1.109s.317.792.475,1.109L38.882,108.3l.475.634a10.347,10.347,0,0,0,1.743,1.9c.634.634,1.426,1.267,1.9,1.743l.475.475,3.8-1.584c.317.158.792.317,1.109.475s.792.317,1.109.475l1.584,3.644.634.158c.475,0,.95.158,1.426.158h2.852c.475,0,.95-.158,1.426-.158l.634-.158,1.584-3.644c.317-.158.792-.317,1.109-.475s.792-.317,1.109-.475l3.644,1.584.634-.475a10.347,10.347,0,0,0,1.9-1.743c.634-.634,1.267-1.426,1.743-1.9l.475-.475-1.584-3.8c.158-.317.317-.792.475-1.109s.317-.792.475-1.109l3.644-1.584.158-.634c0-.475.158-.951.158-1.426V97.372A1.363,1.363,0,0,0,72.307,96.1c-.475.634-.95,1.109-.95,1.584ZM38.723,85.49c1.9-6.654-2.851-6.179-4.436-9.189,1.426,3.168-2.059,6.5,4.436,9.189Zm29.941,1.743A18.2,18.2,0,0,1,67.4,88.817a3.455,3.455,0,0,1-.634.792c-.475-.317-.792-.475-1.267-.792a11.871,11.871,0,0,0-2.535-.792,1.212,1.212,0,0,0-.475,2.376,6.707,6.707,0,0,1,1.9.634c.317.158.475.317.792.475a49.19,49.19,0,0,1-7.287,6.654,26.982,26.982,0,0,1-3.485,2.376c-.317-.158-.634-.475-.95-.634-.634-.317-1.267-.317-1.584.317s-.317,1.267.317,1.584a18.227,18.227,0,0,1-3.96,1.9,1.207,1.207,0,0,0,.951,2.218,50.417,50.417,0,0,0,5.069-2.535,16.7,16.7,0,0,1,1.743,1.109,21.275,21.275,0,0,0,4.277,2.06,1.207,1.207,0,0,0,.95-2.218c-1.426-.634-2.693-1.267-4.119-1.9a1.2,1.2,0,0,0-.634-.317,25.8,25.8,0,0,1,2.693-1.743,64.379,64.379,0,0,0,7.6-7.129c.158.158.317.475.634.634a6.453,6.453,0,0,1,.95,1.743,1.484,1.484,0,0,0,1.584.792,1.307,1.307,0,0,0,.792-1.584,10.1,10.1,0,0,0-1.267-2.218c-.317-.475-.634-.792-.95-1.267.317-.317.475-.634.792-.951a16.834,16.834,0,0,1,1.426-1.743c.317-.634.317-1.267-.317-1.584a1.13,1.13,0,0,0-1.743.158ZM52.347,92.619c2.851,4.436-.634,4.753-.95,7.287-1.9-4.277.634-4.911.95-7.287ZM42.208,98.956c4.594,4.277,5.7.317,8.554.475-4.277-3.168-5.7-.317-8.554-.475Zm-3.96-4.436c4.119,5.386,6.02,1.584,9.03,2.218-3.96-4.436-6.02-1.584-9.03-2.218Zm8.554-7.6c-.158,2.693-3.01,3.644-.475,8.238.158-2.693,3.96-3.485.475-8.238Zm-2.218-3.961c-.317,2.852-3.485,3.644-1.109,8.713.634-2.852,4.594-3.168,1.109-8.713Zm-9.347,7.129c3.485,5.862,5.861,2.059,8.871,3.168-3.644-4.753-6.02-2.059-8.871-3.168ZM32.7,85.331c2.535,6.337,5.545,3.01,8.238,4.436-2.851-5.228-5.545-3.01-8.238-4.436Zm8.713-6.02c-.158,3.168-3.327,4.277-.317,9.347,0-3.168,4.436-3.8.317-9.347ZM49.971,89.45c-.317,2.693-3.327,3.485-.95,8.238.317-2.852,4.119-3.168.95-8.238Zm.317-7.763v5.862L56.941,94.2a1.12,1.12,0,1,0,1.584-1.584l-5.861-5.862V75.984l3.8-3.8V68.7a2.4,2.4,0,0,0,1.109-1.743,2.266,2.266,0,0,0-2.218-2.218,2.385,2.385,0,0,0-2.218,2.218A1.783,1.783,0,0,0,54.248,68.7v2.535l-3.8,3.8v3.485l-2.693-2.693V68.7a2.4,2.4,0,0,0,1.109-1.743,2.266,2.266,0,0,0-2.218-2.218,2.385,2.385,0,0,0-2.218,2.218A1.783,1.783,0,0,0,45.535,68.7v8.08l4.752,4.911ZM60.268,66a.792.792,0,1,0,.792.792A.849.849,0,0,0,60.268,66ZM55.2,66a.792.792,0,1,0,.792.792A.748.748,0,0,0,55.2,66Zm-8.713,0a.792.792,0,1,0,.792.792A.748.748,0,0,0,46.486,66Z" transform="translate(-0.152 -0.1)" fill="#71afe5"/>
    <path id="Контур_6334" data-name="Контур 6334" d="M46.434,107.339C68.249,96.954,80.51,80.118,77.166,52.266c-7.643-1.888-12.261-6.451-12.9-14A46.135,46.135,0,0,0,46.434,34.8,43.41,43.41,0,0,0,28.6,38.262c-.8,7.553-5.255,12.116-12.9,14-3.344,27.851,8.917,44.845,30.732,55.073ZM32.1,40.779a45.084,45.084,0,0,1,14.49-2.36,45.8,45.8,0,0,1,14.49,2.36c1.433,7.238,6.051,11.8,12.9,14.162,1.911,22.659-7.006,38.237-27.229,48.465C26.371,93.178,17.3,77.6,19.524,55.1,26.053,52.738,30.67,48.018,32.1,40.779Z" transform="translate(8.454 20.661)" fill="#71afe5"/>
  </g>
</svg>
