<svg xmlns="http://www.w3.org/2000/svg" width="119.509" height="119.508" viewBox="0 0 119.509 119.508">
  <g id="Сгруппировать_9887" data-name="Сгруппировать 9887" transform="translate(3.001 3)">
    <g id="Контур_3384" data-name="Контур 3384" transform="translate(-662.563 -661.302)" fill="rgba(55,112,221,0)" stroke-linecap="round" stroke-linejoin="round" stroke-miterlimit="22.926" fill-rule="evenodd">
      <path d="M 719.317138671875 776.310546875 C 718.0545043945312 776.310546875 716.86962890625 775.8214111328125 715.980712890625 774.9332275390625 L 701.6803588867188 760.6333618164062 L 681.4580688476562 760.6333618164062 C 678.8565063476562 760.6333618164062 676.7399291992188 758.516845703125 676.7399291992188 755.9153442382812 L 676.7399291992188 735.6926879882812 L 662.4404907226562 721.3931274414062 C 660.7619018554688 719.7145385742188 660.6154174804688 717.0740356445312 662.0011596679688 715.2266235351562 L 662.0011596679688 715.1594848632812 L 662.4405517578125 714.7195434570312 L 676.7399291992188 700.4208374023438 L 676.7399291992188 680.1984252929688 C 676.7399291992188 677.5966796875 678.8565063476562 675.4800415039062 681.4580688476562 675.4800415039062 L 701.680419921875 675.4800415039062 L 715.9808349609375 661.1802368164062 C 716.8692016601562 660.2916259765625 718.053955078125 659.8021240234375 719.3167724609375 659.8021240234375 C 720.579345703125 659.8021240234375 721.7642822265625 660.2914428710938 722.6532592773438 661.1799926757812 L 736.9536743164062 675.4800415039062 L 757.1754760742188 675.4800415039062 C 759.77734375 675.4800415039062 761.8941040039062 677.5966796875 761.8941040039062 680.1984252929688 L 761.8941040039062 700.4202880859375 L 776.192138671875 714.72021484375 C 777.0809326171875 715.608154296875 777.5707397460938 716.7932739257812 777.5707397460938 718.0565795898438 C 777.5707397460938 719.3199462890625 777.0809326171875 720.5050048828125 776.1915893554688 721.3935546875 L 761.8941040039062 735.692626953125 L 761.8941040039062 755.9153442382812 C 761.8941040039062 758.516845703125 759.77734375 760.6333618164062 757.1754760742188 760.6333618164062 L 736.9529418945312 760.6333618164062 L 722.6531372070312 774.9328002929688 C 721.7647705078125 775.8212280273438 720.5800170898438 776.310546875 719.317138671875 776.310546875 Z" stroke="none"/>
      <path d="M 719.3167724609375 661.3021240234375 C 718.4918823242188 661.3021240234375 717.6671142578125 661.6150512695312 717.0414428710938 662.2409057617188 L 702.3016967773438 676.9800415039062 L 681.4580688476562 676.9800415039062 C 679.6884155273438 676.9800415039062 678.2399291992188 678.4275512695312 678.2399291992188 680.1984252929688 L 678.2399291992188 701.0421752929688 L 663.5011596679688 715.7808227539062 C 662.2498168945312 717.0333862304688 662.2498168945312 719.0811157226562 663.5011596679688 720.3324584960938 L 678.2399291992188 735.0713500976562 L 678.2399291992188 755.9153442382812 C 678.2399291992188 757.6848754882812 679.6879272460938 759.1333618164062 681.4580688476562 759.1333618164062 L 702.3016967773438 759.1333618164062 L 717.0409545898438 773.8721313476562 C 718.2930297851562 775.1232299804688 720.3412475585938 775.1233520507812 721.5924682617188 773.8721313476562 L 736.3316040039062 759.1333618164062 L 757.1754760742188 759.1333618164062 C 758.9450073242188 759.1333618164062 760.3941040039062 757.6854858398438 760.3941040039062 755.9153442382812 L 760.3941040039062 735.0713500976562 L 775.1314086914062 720.3324584960938 C 776.3838500976562 719.0811157226562 776.3838500976562 717.0320434570312 775.1314086914062 715.7808227539062 L 760.3941040039062 701.0415649414062 L 760.3941040039062 680.1984252929688 C 760.3941040039062 678.4280395507812 758.9457397460938 676.9800415039062 757.1754760742188 676.9800415039062 L 736.3323364257812 676.9800415039062 L 721.5928344726562 662.2409057617188 C 720.9666748046875 661.6150512695312 720.1416625976562 661.3021240234375 719.3167724609375 661.3021240234375 M 719.3167724609375 658.3021240234375 C 720.9799194335938 658.3021240234375 722.5414428710938 658.9473876953125 723.7136840820312 660.119140625 L 737.574951171875 673.9800415039062 L 757.1754760742188 673.9800415039062 C 760.6044311523438 673.9800415039062 763.3941040039062 676.7695922851562 763.3941040039062 680.1984252929688 L 763.3941040039062 699.7990112304688 L 777.2528686523438 713.65966796875 C 778.4246826171875 714.8303833007812 779.0706787109375 716.392333984375 779.0706787109375 718.0565795898438 C 779.0706787109375 719.7208251953125 778.4247436523438 721.2827758789062 777.2518310546875 722.4547119140625 L 763.3941040039062 736.3139038085938 L 763.3941040039062 755.9153442382812 C 763.3941040039062 759.3439331054688 760.6044311523438 762.1333618164062 757.1754760742188 762.1333618164062 L 737.57421875 762.1333618164062 L 723.7137451171875 775.9934692382812 C 722.5420532226562 777.1651611328125 720.9806518554688 777.810546875 719.317138671875 777.810546875 C 717.654052734375 777.810546875 716.0926513671875 777.1654663085938 714.9204711914062 775.9942626953125 L 701.0591430664062 762.1333618164062 L 681.4580688476562 762.1333618164062 C 678.0293579101562 762.1333618164062 675.2399291992188 759.3439331054688 675.2399291992188 755.9153442382812 L 675.2399291992188 736.31396484375 L 661.3798217773438 722.4537963867188 C 658.9734497070312 720.04736328125 658.956298828125 716.1408081054688 661.328369140625 713.7116088867188 C 661.3452758789062 713.69384765625 661.3624267578125 713.67626953125 661.3798828125 713.6588134765625 L 675.2399291992188 699.7994995117188 L 675.2399291992188 680.1984252929688 C 675.2399291992188 676.7695922851562 678.0293579101562 673.9800415039062 681.4580688476562 673.9800415039062 L 701.05908203125 673.9800415039062 L 714.920166015625 660.1195068359375 C 716.0916137695312 658.9476928710938 717.6531372070312 658.3021240234375 719.3167724609375 658.3021240234375 Z" stroke="none" fill="#0d81e5"/>
    </g>
    <path id="Вычитание_5" data-name="Вычитание 5" d="M35.555,73.032a29,29,0,0,1-4.4-.318c-.246-.038-.515-.09-.8-.145-.364-.071-.74-.143-1.062-.183-.295-.037-.457-.07-.646-.107-.084-.017-.168-.034-.268-.052l-3.586-.865c-.191-.061-.356-.105-.53-.152-.117-.031-.237-.064-.373-.1-1.091-.316-2.236-.77-3.246-1.17l-.078-.031A17.7,17.7,0,0,1,18.3,68.875l-.773-.383c-.71-.432-1.339-.9-1.948-1.352-.221-.164-.441-.327-.663-.488L12.48,64.642c-.275-.266-.547-.514-.81-.753l-.007-.007-.338-.309a35.036,35.036,0,0,1-8.084-11.4A37.579,37.579,0,0,1,0,36.77a32.3,32.3,0,0,1,.208-4.22c.05-.36.094-.708.136-1.044a27.734,27.734,0,0,1,.469-2.883,37.764,37.764,0,0,1,2.111-6.89,31.127,31.127,0,0,1,7.468-10.476c.129-.119.226-.219.329-.325.065-.067.131-.135.208-.21A42.415,42.415,0,0,1,14.8,7.833c.271-.154.452-.269.71-.441a36.858,36.858,0,0,1,8.408-3.851,5.968,5.968,0,0,1,.937-.223c.227-.033.227-.033,1.16-.55l.333-.184c.277-.154.547-.287.808-.416.246-.121.478-.235.711-.364a2.779,2.779,0,0,1,.5-.2c.092-.03.187-.062.288-.1.4-.153.624-.25.8-.329A10.624,10.624,0,0,1,31.184.59,16.865,16.865,0,0,1,35.6,0a10.5,10.5,0,0,1,2.992.377,2.858,2.858,0,0,0,.715.113,4.363,4.363,0,0,1,.588.067,11.4,11.4,0,0,1,3.3,1.144,8.666,8.666,0,0,1,1.726,1.239c.176.184.248.316.233.427-.019.141-.184.242-.377.359A18.729,18.729,0,0,1,42.05,5.094L41.8,5.2l-.306.132c-.629.272-1.126.487-1.776.755-.142.059-.319.125-.507.2a4.328,4.328,0,0,0-1.536.769,8.823,8.823,0,0,0,1.4-.222,21.991,21.991,0,0,1,5.079-.515h.05a17.724,17.724,0,0,1,3.25.415c.33.091.639.154.966.221a20.012,20.012,0,0,1,2.038.508,9.43,9.43,0,0,1,1.552.582l.385.175c.13.058.229.095.324.131a3.788,3.788,0,0,1,.379.16c.178.088.33.155.478.22a6.174,6.174,0,0,1,.8.4c.2.121.4.216.586.308a6.626,6.626,0,0,1,.651.347,38.44,38.44,0,0,1,6.422,4.695,34.624,34.624,0,0,1,3.69,3.809,24.946,24.946,0,0,1,2.918,4.5,28.74,28.74,0,0,1,2.333,5.151,30.576,30.576,0,0,1,1.475,5.949,31.551,31.551,0,0,1-.933,12.829,40.294,40.294,0,0,1-2.553,6.342,24.06,24.06,0,0,1-1.253,2.194c-.128.208-.253.41-.374.61l-1.317,1.985c-.107.156-.187.254-.264.349s-.142.175-.231.3a28.694,28.694,0,0,1-5.6,5.7,47.614,47.614,0,0,1-6.605,4.42l-4.643,2.1A39.79,39.79,0,0,1,35.555,73.032ZM26.368,8.34a1.26,1.26,0,0,0-.565.192l-.135.067c-.5.246-.974.468-1.429.682-1.024.482-1.991.936-3.015,1.534a31.716,31.716,0,0,0-7.474,5.864A29.494,29.494,0,0,0,6.5,34.779a31.6,31.6,0,0,0,4.91,18.982,26.205,26.205,0,0,0,11.07,9,35.012,35.012,0,0,0,14.418,3.3,25.039,25.039,0,0,0,4.351-.365l2.521-.459c.238-.075.552-.166.885-.262a22.387,22.387,0,0,0,2.711-.9c.365-.173.775-.336,1.208-.509a13.133,13.133,0,0,0,1.874-.856c.314-.191.61-.344.923-.506a13.416,13.416,0,0,0,1.3-.737c.153-.1.313-.194.466-.284a7.553,7.553,0,0,0,.651-.411,32.383,32.383,0,0,0,5.445-5.01c.138-.169.25-.289.357-.406a5.973,5.973,0,0,0,.442-.522c.152-.2.312-.413.476-.627a18.116,18.116,0,0,0,1.665-2.427l1.542-2.81c.054-.124.108-.23.159-.331s.09-.177.134-.276a32.26,32.26,0,0,0,1.34-3.927,30.157,30.157,0,0,0,.7-8.9,36,36,0,0,0-1.8-9.175c-2.115-6.324-5.816-11.55-10.42-14.715a25.721,25.721,0,0,0-2.386-1.424l-.25-.137a16.673,16.673,0,0,0-3.55-1.465l-.08-.026c-.333-.107-.606-.2-.838-.273a14.534,14.534,0,0,0-3.4-.751l-.261-.041a3.45,3.45,0,0,0-.457-.057.574.574,0,0,0-.336.124c-.1.061-.24.144-.468.255a8.377,8.377,0,0,1-3.7.7c-.606,0-1.186-.035-1.682-.067l-.178-.012c-.444-.03-.826-.056-1.141-.056a1.655,1.655,0,0,0-.7.1,6.879,6.879,0,0,1-3.3.873,11.151,11.151,0,0,1-4.306-.93A1.056,1.056,0,0,0,26.368,8.34ZM38.644,2.324c-.536,0-.973.317-.973.708s.436.709.973.709.974-.318.974-.709S39.181,2.324,38.644,2.324Z" transform="translate(20.333 20.209)" fill="#0d81e5"/>
    <path id="Контур_3387" data-name="Контур 3387" d="M1438.368,1104.676a12.633,12.633,0,0,0-6.333-10.756l-4.932-2.986,4.344-2.63a13.8,13.8,0,0,0,6.921-11.753h-3.625a9.953,9.953,0,0,1-.736,3.754h-20.346a9.963,9.963,0,0,1-.738-3.754H1409.3a13.8,13.8,0,0,0,6.921,11.753l4.344,2.63-4.932,2.986a12.3,12.3,0,0,0,0,21.512l4.932,2.986-4.344,2.63a13.8,13.8,0,0,0-6.921,11.754h3.623a9.958,9.958,0,0,1,.738-3.753h20.346a9.948,9.948,0,0,1,.736,3.753h3.625a13.8,13.8,0,0,0-6.921-11.754l-4.344-2.631,4.932-2.985A12.629,12.629,0,0,0,1438.368,1104.676Zm-25.446,0a8.854,8.854,0,0,1,.324-2.369h21.172a8.829,8.829,0,0,1,0,4.738h-21.172A8.852,8.852,0,0,1,1412.923,1104.676Zm5.307-19.115a11.637,11.637,0,0,1-2.438-1.961h16.084a11.681,11.681,0,0,1-2.438,1.961l-5.6,3.395Zm-.588,11.1,6.192-3.749,6.192,3.749a10.248,10.248,0,0,1,2.693,2.348h-17.77A10.272,10.272,0,0,1,1417.641,1096.663Zm11.8,27.128a11.687,11.687,0,0,1,2.437,1.96h-16.084a11.63,11.63,0,0,1,2.438-1.96l5.6-3.394Zm.587-11.1-6.192,3.75-6.192-3.75a10.226,10.226,0,0,1-2.693-2.347h17.77A10.233,10.233,0,0,1,1430.026,1112.687Z" transform="translate(-1367.132 -1047.95)" fill="#0d81e5" fill-rule="evenodd"/>
  </g>
</svg>
