<svg xmlns="http://www.w3.org/2000/svg" width="124.984" height="112.534" viewBox="0 0 124.984 112.534">
  <g id="logo-2" transform="translate(0 0.041)">
    <path id="Контур_3239" data-name="Контур 3239" d="M129.615,120.692c0-.253.038-.338.076-.189a.877.877,0,0,1-.006.46c-.042.1-.074-.018-.071-.271ZM20.941,117.135a.309.309,0,0,1,.294.012c.051.051-.04.087-.2.081-.179-.007-.215-.044-.093-.093Zm2.138,0a.592.592,0,0,1,.383,0c.106.043.019.077-.192.077s-.3-.035-.192-.077Zm49.1,0a.309.309,0,0,1,.294.012c.051.051-.04.087-.2.081C72.095,117.221,72.058,117.184,72.181,117.135Zm2.3,0a.309.309,0,0,1,.294.012c.051.051-.04.087-.2.081C74.4,117.221,74.359,117.184,74.482,117.135Zm41.718,0a.592.592,0,0,1,.383,0c.105.043.019.077-.192.077S116.095,117.181,116.2,117.139Zm2.157,0a.309.309,0,0,1,.294.012c.051.051-.04.087-.2.081C118.271,117.221,118.235,117.184,118.357,117.135Zm6.74,0a.592.592,0,0,1,.384,0c.105.043.019.077-.192.077S124.992,117.181,125.1,117.139Zm2.157,0a.309.309,0,0,1,.294.012c.051.051-.04.087-.2.081C127.169,117.221,127.133,117.184,127.255,117.135ZM7.892,116.873c-.24-.182-.265-.486-.234-2.872l.034-2.668.046,2.6c.038,2.143.09,2.649.3,2.876C8.328,117.134,8.27,117.16,7.892,116.873Zm6.021.156a.964.964,0,0,1,.268-.268c.243-.191.249-.185.058.058s-.326.337-.326.211Zm15.782-.211c-.191-.243-.185-.249.058-.058a.964.964,0,0,1,.268.268C30.021,117.155,29.9,117.074,29.695,116.818Zm16.281.211a.964.964,0,0,1,.268-.268c.243-.191.249-.185.058.058S45.976,117.155,45.976,117.029Zm5.341-.047a.309.309,0,0,1,.294.012c.051.051-.04.087-.2.081-.179-.007-.215-.044-.093-.093Zm14.574,0a.309.309,0,0,1,.294.012c.051.051-.04.087-.2.081-.179-.007-.215-.044-.093-.093Zm29.445,0a.592.592,0,0,1,.383,0c.106.043.019.077-.192.077S95.231,117.028,95.336,116.985Zm6.462-.167c-.191-.243-.185-.249.058-.058a.965.965,0,0,1,.269.269C102.125,117.155,102,117.074,101.8,116.818Zm3.682,0c-.191-.243-.185-.249.058-.058a.965.965,0,0,1,.269.269C105.807,117.155,105.681,117.074,105.48,116.818Zm13.644.164a.309.309,0,0,1,.294.012c.051.051-.04.087-.2.081-.179-.007-.215-.044-.093-.093Zm-84.214-.47c-.191-.243-.185-.249.058-.058s.337.326.211.326a.965.965,0,0,1-.268-.268Zm44.113-2.646c0-1.645.023-2.318.05-1.5s.028,2.169,0,2.992S79.024,115.511,79.024,113.865Zm3.837-.383c0-1.856.022-2.595.049-1.641s.027,2.473,0,3.375-.049.122-.049-1.734Zm13.588,3.238c0-.033.107-.1.238-.152s.2-.027.144.06c-.09.146-.382.216-.382.091Zm-71.49-.151a.965.965,0,0,1,.268-.268c.243-.191.249-.185.058.058S24.959,116.695,24.959,116.569Zm2.826-3.087c0-1.772.022-2.476.05-1.564s.027,2.361,0,3.222-.049.114-.049-1.658ZM76.2,116.569a.964.964,0,0,1,.268-.268c.243-.191.249-.185.058.058s-.326.337-.326.211ZM90.531,113.4c0-1.814.022-2.556.049-1.649s.027,2.391,0,3.3S90.531,115.219,90.531,113.4Zm9.358.077c0-1.772.022-2.476.05-1.564s.027,2.361,0,3.222-.05.114-.049-1.658Zm3.835,0c0-1.772.022-2.476.05-1.564s.027,2.361,0,3.222-.049.114-.049-1.658Zm5.52,2.8-.292-.345.345.292a1.7,1.7,0,0,1,.345.345C109.642,116.7,109.518,116.606,109.244,116.281Zm13.716.24a.309.309,0,0,1,.294.012c.051.051-.04.087-.2.081-.179-.007-.215-.044-.093-.093Zm6.242-.2a1.21,1.21,0,0,1,.354-.307c.042,0-.048.138-.2.307a1.21,1.21,0,0,1-.354.307C128.959,116.627,129.049,116.489,129.2,116.32Zm-31.91-.153a1.21,1.21,0,0,1,.354-.307c.042,0-.048.138-.2.307a1.21,1.21,0,0,1-.354.307C97.049,116.473,97.14,116.335,97.292,116.166Zm-82.864-1.227c0-.8.026-1.13.057-.729a11.2,11.2,0,0,1,0,1.457c-.032.4-.058.073-.058-.729ZM69.979,116c-.056-.09-.068-.2-.028-.237s.114.033.164.164C70.218,116.2,70.13,116.247,69.979,116Zm35.238-.143c0-.211.035-.3.077-.192a.592.592,0,0,1,0,.384C105.252,116.157,105.217,116.07,105.217,115.859Zm-3.642-2.608c0-1.561.023-2.2.051-1.419s.028,2.058,0,2.838S101.575,114.812,101.575,113.251Zm12.19,2.493c-.191-.243-.185-.249.058-.058a.964.964,0,0,1,.269.268C114.091,116.081,113.965,116,113.764,115.744Zm12.256.16a1.678,1.678,0,0,1,.614,0c.147.038-.009.068-.347.067s-.458-.033-.267-.07ZM21.4,115.755a.309.309,0,0,1,.294.012c.051.051-.04.087-.2.081-.179-.007-.215-.044-.093-.093Zm22.81-.356c-.131-.253-.2-.46-.161-.46a1.323,1.323,0,0,1,.315.46c.131.253.2.46.161.46A1.326,1.326,0,0,1,44.212,115.4Zm2.286-1.764c0-1.266.024-1.763.053-1.105s.029,1.693,0,2.3-.053.07-.052-1.2Zm1.694,2.026a21.117,21.117,0,0,1-.029-2.416l.047-2.217.034,2.333.034,2.333,1.112.053,1.112.053-1.117.03C48.588,115.851,48.246,115.8,48.191,115.661Zm38.505.084a7.8,7.8,0,0,0,2.378-.235c.212-.165.215-.155.03.081s-.472.264-2.378.235l-2.167-.034Zm5.523-.086a13.921,13.921,0,0,1-.028-1.956l.049-1.755.033,1.873.033,1.873,1.112.053,1.112.053-1.117.03c-.8.022-1.139-.026-1.194-.171Zm24.45.1a.309.309,0,0,1,.294.012c.051.051-.04.087-.2.081-.179-.007-.215-.044-.093-.093ZM61.228,115.5a6.08,6.08,0,0,1-.034-1.264c.038-.88.091-1.061.317-1.082.19-.017.2,0,.038.048-.181.056-.233.326-.233,1.207v1.135l1.956.048,1.956.048-1.961.033c-1.528.026-1.978-.012-2.04-.174Zm66.516.149a.964.964,0,0,1,.269-.268c.243-.191.249-.185.058.058S127.744,115.774,127.744,115.648Zm-56.015-.364c-.191-.243-.185-.249.058-.058s.337.326.211.326A.965.965,0,0,1,71.73,115.284Zm58.021.026c.007-.179.044-.215.093-.093a.308.308,0,0,1-.012.294C129.78,115.562,129.744,115.472,129.751,115.31Zm-77.945-.122a.964.964,0,0,1,.269-.268c.243-.191.249-.185.058.058S51.806,115.314,51.806,115.188Zm23.405-.14c.058-.151.143-.236.191-.189s0,.171-.1.275c-.152.15-.169.133-.086-.086Zm31.6-1.175a6.091,6.091,0,0,0-1.516-1.28c-.087.054-.1.012-.03-.1.083-.135.556.241,1.558,1.239.791.788,1.438,1.451,1.438,1.474C108.261,115.314,108.083,115.151,106.812,113.873Zm8.415,1.028-.292-.345.345.292c.324.275.415.4.292.4A1.7,1.7,0,0,1,115.227,114.9Zm8.222.208c0-.1-.08-.139-.177-.079-.114.071-.135.042-.059-.081s.165-.143.282-.026c.09.09.117.211.059.269s-.1.02-.1-.083Zm-97.661-2.318c0-1.308.024-1.843.052-1.189s.029,1.724,0,2.378S25.788,114.1,25.788,112.791ZM77,114.632c0-.3.032-.416.07-.268a1.261,1.261,0,0,1,0,.537C77.032,115.048,77,114.928,77,114.632Zm-56.786.064c.007-.179.044-.215.093-.093a.309.309,0,0,1-.012.294C20.245,114.948,20.208,114.858,20.215,114.7Zm48.018,0c.007-.179.044-.215.093-.093a.309.309,0,0,1-.012.294c-.051.051-.087-.04-.081-.2Zm-1.976-.294c0-.253.038-.338.076-.189a.878.878,0,0,1-.006.46c-.042.1-.074-.018-.071-.272Zm5.21.077c0-.211.035-.3.077-.192a.592.592,0,0,1,0,.384C71.5,114.776,71.467,114.69,71.467,114.479Zm55.789-.1a.308.308,0,0,1,.294.012c.051.051-.04.087-.2.081-.179-.007-.215-.044-.093-.093Zm-87.109-.136a4.21,4.21,0,0,1,1.688-.029,2.076,2.076,0,0,1-.959.1c-.527-.01-.855-.041-.729-.069Zm35.344-1.831c0-1.1.025-1.525.054-.952s.029,1.47,0,1.994-.054.055-.054-1.042Zm20.97,1.675c.007-.179.044-.215.093-.093a.309.309,0,0,1-.012.294C96.49,114.335,96.454,114.244,96.46,114.083Zm22.12.137a.878.878,0,0,1,.46.006c.1.042-.018.074-.271.071s-.338-.038-.189-.076Zm6.979,0a1.678,1.678,0,0,1,.614,0c.147.038-.009.068-.347.067s-.458-.033-.267-.07Zm-95.574-.156a4.086,4.086,0,0,1,.92,0c.231.035,0,.063-.5.062s-.695-.03-.419-.064Zm22.464-.272c0-.253.038-.338.076-.189a.878.878,0,0,1-.006.46c-.042.1-.074-.018-.071-.271Zm60.58.141c.007-.179.044-.215.093-.093a.309.309,0,0,1-.012.294C113.058,114.181,113.022,114.091,113.029,113.929ZM24.2,113.776c.007-.179.044-.215.093-.093a.309.309,0,0,1-.012.294C24.233,114.028,24.2,113.937,24.2,113.776Zm15.482-.064c.09-.169.2-.307.241-.307s0,.138-.087.307-.2.307-.241.307S39.6,113.88,39.686,113.712Zm58.642-.23c0-.337.033-.457.07-.267a1.672,1.672,0,0,1,0,.614C98.356,113.975,98.326,113.819,98.328,113.482ZM65.9,113.6c-.191-.243-.185-.249.058-.058a.964.964,0,0,1,.269.268c0,.126-.126.045-.326-.211Zm11.123-1.419c0-.97.025-1.367.055-.882a17.02,17.02,0,0,1,0,1.764c-.03.485-.055.088-.055-.882Zm28.182,1.445c.007-.179.044-.215.093-.093a.309.309,0,0,1-.012.294C105.234,113.875,105.2,113.784,105.2,113.622Zm3.8-.026c-.191-.243-.185-.249.058-.058a.964.964,0,0,1,.268.268C109.335,113.934,109.209,113.852,109.008,113.6Zm12.273-.077c.2-.253.1-.269-1.64-.269a8.734,8.734,0,0,1-1.922-.115,15.86,15.86,0,0,1,3.78.1c.067.066,0,.217-.153.336-.251.2-.256.192-.064-.052ZM34.47,113.5a.966.966,0,0,1,.268-.269c.243-.191.249-.185.058.058s-.326.337-.326.211Zm8.514-.4c-.131-.253-.2-.46-.161-.46a1.325,1.325,0,0,1,.315.46c.131.253.2.46.161.46A1.322,1.322,0,0,1,42.984,113.1Zm-28.576-.153c0-.3.032-.416.07-.269a1.261,1.261,0,0,1,0,.537C14.44,113.361,14.409,113.24,14.409,112.945Zm9.836-.767c0-.717.026-1.011.059-.652a8.779,8.779,0,0,1,0,1.3C24.272,113.188,24.245,112.895,24.245,112.178Zm43.424.882-.292-.345.345.292c.324.275.415.4.292.4A1.7,1.7,0,0,1,67.669,113.06Zm-15.238-.051c.007-.179.044-.215.093-.093a.308.308,0,0,1-.012.294c-.051.051-.087-.04-.081-.2Zm60.61-.064c0-.211.035-.3.077-.192a.592.592,0,0,1,0,.383C113.076,113.242,113.041,113.156,113.041,112.945Zm14.368-.258a.308.308,0,0,1,.294.012c.051.051-.04.087-.2.081C127.323,112.772,127.286,112.735,127.409,112.687Zm-92.3-.356c0-.211.035-.3.077-.192a.592.592,0,0,1,0,.383C35.143,112.628,35.108,112.542,35.108,112.331Zm19.011.064c.007-.179.044-.215.093-.093a.309.309,0,0,1-.012.294c-.051.051-.087-.04-.081-.2Zm71.449.138a.309.309,0,0,1,.294.012c.051.051-.04.087-.2.081C125.482,112.618,125.445,112.582,125.568,112.533ZM14.355,111.6c-.051-.3-.028-.448.057-.363a.692.692,0,0,1,.083.5c-.048.307-.07.285-.141-.141Zm105.345.165c-.083-.219-.066-.236.086-.086.1.1.152.228.1.275S119.758,111.914,119.7,111.762Zm-84.592-.2c0-.211.035-.3.077-.192a.592.592,0,0,1,0,.383C35.143,111.861,35.108,111.775,35.108,111.564Zm26.158.2a5.232,5.232,0,0,1,.013-2.1c.063-.039.092.4.064.983l-.051,1.055,1.892.048,1.892.048-1.854.033a10.2,10.2,0,0,1-1.956-.069Zm30.911-.2c0-.211.035-.3.077-.192a.592.592,0,0,1,0,.383C92.212,111.861,92.177,111.775,92.177,111.564Zm3.638.038c-.191-.243-.185-.249.058-.058a.964.964,0,0,1,.269.268C96.141,111.939,96.015,111.858,95.815,111.6Zm26.879.026c.007-.179.044-.215.093-.093a.309.309,0,0,1-.012.294c-.051.051-.087-.04-.081-.2Zm-71.348-.217c-.138-.089-.157-.15-.047-.151a.357.357,0,0,1,.278.151C51.693,111.6,51.64,111.6,51.345,111.411Zm62.285-.048a3.822,3.822,0,0,1,.5-.5l.5-.451-.451.5C113.757,111.377,113.63,111.481,113.63,111.363Zm-81.03-.21a.309.309,0,0,1,.294.012c.051.051-.04.087-.2.081C32.514,111.238,32.478,111.2,32.6,111.152Zm6.784.028a.922.922,0,0,1,.149-.383c.082-.127.149-.161.149-.077a.923.923,0,0,1-.149.384C39.451,111.23,39.384,111.265,39.384,111.18Zm55.185-.025a.592.592,0,0,1,.383,0c.105.043.019.077-.192.077S94.463,111.2,94.569,111.156Zm-59.705-.314c-.083-.219-.066-.236.086-.086.1.1.152.228.1.275S34.921,110.993,34.863,110.842Zm18.385-.083-.292-.345.345.292c.324.275.415.4.292.4A1.7,1.7,0,0,1,53.248,110.759Zm64.025.244a.592.592,0,0,1,.384,0c.105.043.019.077-.192.077S117.168,111.045,117.274,111Zm8.131,0a.592.592,0,0,1,.383,0c.106.043.019.077-.192.077S125.3,111.045,125.4,111Zm.847,0a.877.877,0,0,1,.46.006c.1.042-.018.074-.271.071S126.1,111.036,126.251,111Zm-58.308-.431c0-.253.038-.338.076-.189a.877.877,0,0,1-.006.46C67.972,110.942,67.94,110.82,67.944,110.567Zm11.028-.013c.007-.179.044-.215.093-.093a.309.309,0,0,1-.012.294C79,110.806,78.965,110.716,78.971,110.554Zm18.071-.026c-.191-.243-.185-.249.058-.058s.337.326.211.326a.965.965,0,0,1-.268-.268Zm32.555.026c.007-.179.044-.215.093-.093a.309.309,0,0,1-.012.294c-.051.051-.087-.04-.081-.2Zm-111.36-.381c-.156-.249-.149-.319.039-.391a.677.677,0,0,1,.425-.009c.108.043.033.085-.167.091-.308.01-.334.048-.17.246.107.129.164.263.128.3s-.151-.07-.255-.237Zm53.2.2a.375.375,0,0,1,.17-.279c.118-.073.107-.145-.038-.237s-.148-.133-.025-.134c.3,0,.342.211.11.527-.119.163-.217.218-.217.122Zm38.235-.192c-.178-.285.013-.616.23-.4.051.051,0,.092-.106.092-.16,0-.161.045,0,.234.107.129.164.264.128.3S109.778,110.344,109.677,110.183Zm11.01.153c-.138-.089-.157-.15-.047-.151a.357.357,0,0,1,.278.151C121.035,110.527,120.982,110.527,120.687,110.337ZM20.324,110.16c.162-.207.162-.268,0-.333-.136-.055-.141-.083-.015-.092.314-.021.363.25.084.469C20.155,110.391,20.147,110.386,20.324,110.16Zm49.154-.007c-.234-.234-.236-.43-.005-.43.1,0,.133.045.078.1s-.024.194.07.307c.212.256.107.272-.143.022Zm42.138-.008c.191-.244.163-.271-.307-.291-.491-.022-.5-.026-.077-.089.569-.085.81.148.448.433-.251.2-.256.192-.064-.053Zm-87.809-.116c-.107-.172.343-.4.493-.248.053.053-.023.1-.169.1s-.222.069-.17.153.06.153.018.153-.12-.07-.172-.154Zm2.287.025c.07-.113-.019-.184-.245-.195-.285-.014-.3-.032-.069-.091.357-.092.666.178.4.345C26.053,110.189,26.024,110.168,26.095,110.054Zm15.893-.012c0-.078-.121-.174-.268-.212-.2-.053-.183-.075.077-.088.213-.011.345.071.345.212,0,.127-.035.23-.077.23S41.987,110.119,41.987,110.041Zm4.065-.012c-.12-.195.277-.355.644-.26.178.046.123.078-.153.09-.245.01-.39.084-.336.171s.06.153.018.153S46.1,110.114,46.052,110.029Zm31.275.036c.056-.091-.019-.2-.168-.236-.242-.063-.243-.072-.011-.088.325-.022.5.231.256.379-.108.067-.139.045-.077-.055Zm3.682,0c.056-.091-.019-.2-.168-.236-.242-.063-.243-.072-.011-.088.325-.022.5.231.256.379-.108.067-.139.045-.077-.055Zm3.834,0a.164.164,0,0,0-.091-.242c-.116-.047-.086-.083.076-.09.3-.014.359.221.091.386C84.814,110.186,84.783,110.164,84.843,110.067Zm5.245-.026c-.1-.165.2-.394.336-.256.051.051.007.092-.1.092s-.145.069-.093.153.06.153.018.153-.116-.064-.165-.143Zm-56.567-.115a.309.309,0,0,1,.294.012c.051.051-.04.087-.2.081C33.435,110.01,33.4,109.974,33.521,109.925Zm31.938-.049c-.138-.089-.157-.15-.047-.151a.357.357,0,0,1,.278.151C65.807,110.067,65.754,110.067,65.459,109.876Zm9.624-.019c.1-.1.228-.152.275-.1s-.038.133-.189.191C74.95,110.027,74.933,110.009,75.083,109.857Zm24.392,0c.1-.1.228-.152.275-.1s-.038.133-.189.191C99.343,110.027,99.325,110.009,99.475,109.857Zm2.266.019c-.25-.107-.259-.134-.048-.143a.432.432,0,0,1,.354.143c.109.176.1.176-.307,0Zm4.065,0c-.138-.089-.157-.15-.047-.151a.358.358,0,0,1,.278.151C106.154,110.067,106.1,110.067,105.806,109.876Zm-86.246-.1a.309.309,0,0,1,.294.012c.051.051-.04.087-.2.081-.179-.007-.215-.044-.093-.093Zm10.125,0a.309.309,0,0,1,.294.012c.051.051-.04.087-.2.081-.179-.007-.215-.044-.093-.093Zm1.218,0a2.178,2.178,0,0,1,.69,0c.19.036.035.066-.345.066s-.535-.03-.345-.067Zm8.6,0a.308.308,0,0,1,.294.012c.051.051-.04.087-.2.081-.179-.007-.215-.044-.093-.093Zm7.97,0a1.674,1.674,0,0,1,.614,0c.147.038-.009.068-.347.067S47.283,109.8,47.473,109.768Zm23.173,0a.309.309,0,0,1,.294.012c.051.051-.04.087-.2.081C70.56,109.857,70.524,109.821,70.646,109.772Zm8.121,0a.592.592,0,0,1,.383,0c.106.043.019.077-.192.077S78.662,109.817,78.768,109.775Zm3.915,0a.874.874,0,0,1,.46.006c.1.042-.018.074-.271.071S82.533,109.809,82.682,109.77Zm8.061,0a.309.309,0,0,1,.294.012c.051.051-.04.087-.2.081C90.657,109.857,90.621,109.821,90.743,109.772Zm.684,0a.877.877,0,0,1,.46.006c.1.042-.018.074-.271.071s-.338-.038-.189-.076Zm12.193,0a2.185,2.185,0,0,1,.69,0c.19.037.035.067-.345.067S103.43,109.8,103.62,109.768Zm14.89,0a.309.309,0,0,1,.294.012c.051.051-.04.087-.2.081C118.425,109.857,118.388,109.821,118.511,109.772Zm6.29,0a.309.309,0,0,1,.294.012c.051.051-.04.087-.2.081C124.714,109.857,124.678,109.821,124.8,109.772Zm2.3,0a.309.309,0,0,1,.294.012c.051.051-.04.087-.2.081C127.016,109.857,126.979,109.821,127.1,109.772Zm-118.553-.9a1.174,1.174,0,0,1,.23-.442c.124-.164.223-.233.22-.153a1.174,1.174,0,0,1-.23.442C8.645,108.881,8.546,108.95,8.549,108.87Zm-2.923-.3c-.107-.129-.164-.264-.128-.3s.15.069.253.234c.223.357.148.4-.125.066Zm53.387,0c-.107-.129-.164-.264-.128-.3s.15.069.253.234c.223.357.148.4-.125.066Zm7.827.08c-.138-.089-.157-.15-.047-.151a.357.357,0,0,1,.278.151C67.188,108.84,67.135,108.84,66.84,108.649Zm-60.933-.412a.309.309,0,0,1,.294.012c.051.051-.04.087-.2.081C5.821,108.323,5.784,108.286,5.907,108.238Zm.914-.006a4.086,4.086,0,0,1,.92,0c.231.035,0,.063-.5.062S6.545,108.265,6.82,108.231Zm7.438,0a6.67,6.67,0,0,1,1.151,0c.316.033.058.06-.575.06S13.942,108.263,14.258,108.23Zm45.189.007a.309.309,0,0,1,.294.012c.051.051-.04.087-.2.081C59.361,108.322,59.325,108.286,59.447,108.237Zm1.993-.01c.869-.027,2.25-.027,3.068,0s.107.05-1.581.05-2.357-.023-1.488-.05Zm5.86-4.334-62.362-.077,62.4-.038c41.523-.025,62.4.013,62.4.115,0,.084-.017.136-.038.115S101.6,103.936,67.3,103.893ZM30.231,98.831c0-.886.025-1.248.056-.805a13.985,13.985,0,0,1,0,1.611C30.257,100.079,30.231,99.717,30.231,98.831Zm74.224.23c0-.253.038-.338.076-.189a.878.878,0,0,1-.006.46c-.042.1-.074-.018-.071-.271Zm24.681.141c.007-.179.044-.215.093-.093a.309.309,0,0,1-.012.294c-.051.051-.087-.04-.081-.2Zm-23.985-2.384c.1-.1.228-.152.275-.1s-.038.133-.189.191c-.219.083-.236.066-.086-.086ZM8.738,96.577a.878.878,0,0,1,.46.006c.1.042-.018.074-.271.071s-.338-.038-.189-.076Zm116.82,0a.592.592,0,0,1,.384,0c.105.043.019.077-.192.077S125.453,96.624,125.558,96.581ZM9.9,96.425a.308.308,0,0,1,.294.012c.051.051-.04.087-.2.081-.179-.007-.215-.044-.093-.093Zm114.752,0a.308.308,0,0,1,.294.012c.051.051-.04.087-.2.081-.179-.007-.215-.044-.093-.093ZM28.1,85.791c0-5.442.019-7.669.043-4.948s.023,7.174,0,9.9S28.1,91.233,28.1,85.791Zm92.415,8.936c-.191-.243-.185-.249.058-.058s.337.326.211.326A.964.964,0,0,1,120.514,94.727ZM14.3,94.535a1.213,1.213,0,0,1,.354-.307c.042,0-.048.138-.2.307a1.214,1.214,0,0,1-.354.307C14.053,94.842,14.144,94.7,14.3,94.535Zm.844-.825a.966.966,0,0,1,.268-.269c.243-.191.249-.185.058.058S15.14,93.837,15.14,93.71Zm14.148-11.7c.043-3.833.118-7.008.166-7.056a8.031,8.031,0,0,1,1.669.076c.87.09,2.048.206,2.618.258l1.036.095v6.267c0,5.836-.018,6.273-.268,6.347s-4.039.783-4.931.923l-.367.058Zm73.3,6.48-2.531-.482-.04-6.325c-.033-5.189,0-6.325.165-6.325.113,0,1.294-.108,2.625-.241s2.44-.219,2.464-.192c.135.151.138,13.986,0,14.014C105.185,88.957,103.977,88.755,102.585,88.49Zm-64.4-6.956.04-5.791.46.025c.253.014,1,.072,1.651.128l1.191.1-.04,5.393-.04,5.393-1.381.264c-.759.146-1.5.267-1.651.27-.254.005-.268-.34-.23-5.785Zm56.4,5.525-1.327-.229-.1-2.475c-.056-1.361-.081-3.787-.054-5.39l.049-2.915,1.611-.178c.886-.1,1.625-.164,1.642-.148s.08,2.633.139,5.815l.108,5.786-.369-.018C96.078,87.3,95.314,87.185,94.585,87.059Zm-76.211-1.05c.007-.179.044-.215.093-.093a.309.309,0,0,1-.012.294C18.4,86.261,18.367,86.17,18.374,86.008Zm26.068-4.658c0-3.8.044-4.943.192-5a5.149,5.149,0,0,1,1.189.043l1,.113.041,4.634.041,4.634-.578.148c-.318.081-.871.194-1.23.25l-.652.1Zm44.413,4.69-1.074-.173V76.509l1.13-.123a6.973,6.973,0,0,1,1.179-.074c.122.122.1,9.85-.024,9.874a9.435,9.435,0,0,1-1.211-.146Zm-39.581-.685c-.042-.042-.076-2.007-.076-4.367V76.7l.712.1c.391.054.806.1.92.1.171,0,.209.747.209,4.116v4.117l-.844.153a2.78,2.78,0,0,1-.92.077Zm35.208-.086-.844-.169.011-4.025c.006-2.214.04-4.054.077-4.09a4.048,4.048,0,0,1,.91-.117l.844-.052.041,4.209a41.235,41.235,0,0,1-.077,4.311,2.31,2.31,0,0,1-.961-.067Zm-29.076-.28c-.041-.108-.056-6.271-.034-13.7l.04-13.5.038,13.615.038,13.615h4.754l.04-17.182.04-17.182V85.1l-2.42.042c-1.851.032-2.437,0-2.494-.153Zm19.057.089c-.058-.058-.106-7.849-.106-17.313V50.56l.422-.372.422-.372-.345.393-.345.393V85.024h4.754l.04-13.615.04-13.615V85.1l-2.387.042a15.714,15.714,0,0,1-2.493-.064Zm-21.732-4.12L52.717,77.2H54.26v7.328l-.345.093a3.612,3.612,0,0,1-.757.095l-.412,0-.014-3.759Zm27.951,3.6-.348-.14.041-3.571.041-3.571.654-.087a1.914,1.914,0,0,1,.729-.013c.041.041.075,1.754.075,3.808v3.733l-.422-.01A2.64,2.64,0,0,1,80.683,84.558Zm-27.42-9.64-.46-.1-.041-3.807-.041-3.807.348.107a5.983,5.983,0,0,1,.77.322l.422.215v3.6c0,3.986.083,3.7-1,3.466Zm27.206.03a3.255,3.255,0,0,1-.047-.739c.005-.337.023-1.911.04-3.5l.031-2.883.652-.281a1.954,1.954,0,0,1,.757-.221c.084.048,0,7.44-.082,7.515A3.126,3.126,0,0,1,80.469,74.948ZM28.1,67.765c0-3.966.02-5.61.044-3.654s.024,5.2,0,7.21S28.1,71.731,28.1,67.765ZM49.658,74.3l-.384-.107-.041-4.25a38.742,38.742,0,0,1,.077-4.251,6.266,6.266,0,0,1,.92.345l.8.346,0,4.027,0,4.027-.5-.015a4.522,4.522,0,0,1-.882-.122Zm34.057-3.888V66.349l.787-.327a5.893,5.893,0,0,1,.92-.327,71.673,71.673,0,0,1,.009,8.5,4.78,4.78,0,0,1-.92.182l-.8.106ZM45.363,73.558a1.806,1.806,0,0,1-.729-.224c-.147-.122-.192-1.281-.192-4.871,0-2.591.04-4.751.088-4.8a3.939,3.939,0,0,1,1.227.388l1.139.476v9.145l-.5-.025c-.274-.013-.74-.054-1.035-.089ZM87.74,69.144l.041-4.564,1.151-.507,1.151-.507.077,4.24c.085,4.73.055,5.5-.218,5.61a9.647,9.647,0,0,1-1.215.182l-1.026.11ZM39.916,72.582c-.422-.073-.974-.191-1.227-.261l-.46-.128-.039-1.447c-.021-.8.013-3.354.077-5.686l.115-4.239,1.572.689,1.573.689V72.751l-.422-.018c-.232-.01-.767-.078-1.189-.151Zm53.157-5.029v-5.2l.345-.226a14.742,14.742,0,0,1,1.5-.719l1.342-.575c.151-.065.192,1.125.192,5.666v5.748l-1.266.251a13.572,13.572,0,0,1-1.687.251h-.422Zm-61.134,3.66c-1.35-.239-2.474-.44-2.5-.446-.1-.024,0-13.664.1-13.728a6.858,6.858,0,0,1,1.563.579c.8.357,1.932.851,2.523,1.1a5.671,5.671,0,0,1,1.175.592,1.321,1.321,0,0,1,.06.619c-.022.261-.05,3.011-.062,6.112-.017,4.405-.064,5.635-.214,5.623C34.48,71.654,33.289,71.452,31.939,71.212Zm67.981.111c-.047-.181-.071-2.977-.053-6.212l.033-5.882,2.455-1.074,2.628-1.149c.126-.054.2,1.6.282,6.11.06,3.4.085,6.528.056,6.947l-.052.763-2.148.34q-1.315.209-2.632.414C100.091,71.64,99.991,71.595,99.92,71.323ZM53.378,65.545l-.652-.3V61.483a35.994,35.994,0,0,1,.1-3.766,4.141,4.141,0,0,1,.767.547l.668.547v3.518a27.054,27.054,0,0,1-.115,3.515A4.835,4.835,0,0,1,53.378,65.545Zm27.116-3.216V58.811l.668-.547a4.008,4.008,0,0,1,.772-.547,67.882,67.882,0,0,1-.031,7.448,3.689,3.689,0,0,1-1.268.683A20.629,20.629,0,0,1,80.494,62.329ZM50.1,63.846l-.859-.434-.1-1.183a53.067,53.067,0,0,1,.04-7.273,7.252,7.252,0,0,1,1.79,1.432c.039.1.052,1.918.029,4.038l-.041,3.854Zm33.612-3.6a36.243,36.243,0,0,1,.115-4.063,4.121,4.121,0,0,0,.8-.614,3.8,3.8,0,0,1,.805-.609,36.874,36.874,0,0,1,.121,4.2v4.2l-.92.471-.92.471ZM45.746,61.6a6.015,6.015,0,0,1-1.186-.721,78.991,78.991,0,0,1,.046-9.453,6.4,6.4,0,0,1,1.219.805l1.056.805.008,4.564c0,2.51-.009,4.561-.03,4.556s-.522-.255-1.112-.557Zm42.051.453c-.051-.051-.093-2.036-.093-4.41,0-3.22.049-4.38.192-4.563a11.063,11.063,0,0,1,1.217-1.023l1.026-.777.048.419c.026.23.029,2.424.005,4.874l-.043,4.456-1.13.559a3.737,3.737,0,0,1-1.223.466ZM39.87,58.595l-1.562-.8V52.155c0-3.1.041-5.638.093-5.638a10.477,10.477,0,0,1,1.2.882c.61.485,1.329,1.049,1.6,1.253l.488.371-.09,5.149c-.049,2.832-.107,5.166-.127,5.187A15.97,15.97,0,0,1,39.87,58.595Zm53.2-4.4V48.993l1.573-1.222a8.816,8.816,0,0,1,1.687-1.152c.063.038.115,2.569.115,5.625V57.8l-1.613.8c-.887.441-1.646.8-1.687.8s-.075-2.342-.075-5.205ZM28.1,47.745c0-6.286.019-8.858.042-5.715s.023,8.286,0,11.429-.042.571-.042-5.715Zm26.6,9.55c-.191-.243-.185-.249.058-.058a.965.965,0,0,1,.268.268C55.027,57.631,54.9,57.55,54.7,57.295Zm25.026.22a3.823,3.823,0,0,1,.5-.5l.5-.451-.451.5C79.853,57.529,79.727,57.634,79.727,57.515ZM53.635,56.374l-.372-.422.422.372c.394.348.492.472.372.472a2.66,2.66,0,0,1-.422-.422Zm27.549-.192a1.21,1.21,0,0,1,.354-.307c.042,0-.048.138-.2.307a1.21,1.21,0,0,1-.354.307C80.941,56.489,81.031,56.351,81.184,56.182ZM32.127,54.691l-2.566-1.313v-6.7c0-3.686.044-6.747.1-6.8.094-.094,1.306.8,4.005,2.95l1.266,1.009v6.012c0,3.307-.053,6.045-.118,6.085A19.367,19.367,0,0,1,32.127,54.691Zm67.7-4.868V43.769l2.57-1.992,2.57-1.992.1,1.334c.054.734.106,3.785.115,6.781l.016,5.447-2.5,1.265c-1.376.7-2.584,1.265-2.685,1.265-.138,0-.183-1.474-.183-6.053Zm-47.27,5.632c-.191-.243-.185-.249.058-.058a.964.964,0,0,1,.269.268C52.88,55.791,52.754,55.709,52.553,55.454Zm29.475.057a.966.966,0,0,1,.268-.269c.243-.191.249-.185.058.058S82.028,55.637,82.028,55.511Zm-30.548-.978c-.191-.243-.185-.249.058-.058a.965.965,0,0,1,.268.268C51.806,54.87,51.68,54.789,51.479,54.533Zm31.852-.192a1.213,1.213,0,0,1,.354-.307c.042,0-.048.138-.2.307a1.212,1.212,0,0,1-.354.307C83.089,54.648,83.179,54.51,83.332,54.341Zm-32.918-.729-.372-.422.422.372a2.667,2.667,0,0,1,.422.422c0,.12-.124.022-.472-.372Zm33.992-.192a1.21,1.21,0,0,1,.354-.307c.042,0-.048.138-.2.307a1.209,1.209,0,0,1-.354.307C84.162,53.728,84.253,53.59,84.406,53.421Zm-35.066-.729-.372-.422.422.372c.394.348.492.472.372.472a2.649,2.649,0,0,1-.422-.422Zm36.14-.192a1.213,1.213,0,0,1,.354-.307c.042,0-.048.138-.2.307a1.21,1.21,0,0,1-.354.307c-.042,0,.048-.138.2-.307Zm-37.14-.652-.292-.345.345.292a1.7,1.7,0,0,1,.345.345C48.737,52.264,48.614,52.173,48.339,51.849Zm38.214-.269a1.213,1.213,0,0,1,.354-.307c.042,0-.048.138-.2.307a1.213,1.213,0,0,1-.354.307C86.31,51.887,86.4,51.749,86.553,51.58Zm-39.288-.652-.292-.345.345.292a1.7,1.7,0,0,1,.345.345C47.663,51.343,47.54,51.253,47.265,50.928Zm40.362-.269a1.21,1.21,0,0,1,.354-.307c.042,0-.048.138-.2.307a1.21,1.21,0,0,1-.354.307C87.384,50.966,87.475,50.828,87.627,50.66Zm-41.364-.575c-.191-.243-.185-.249.058-.058s.337.326.211.326a.966.966,0,0,1-.269-.269Zm42.361-.25a.964.964,0,0,1,.269-.268c.243-.191.249-.185.058.058s-.326.337-.326.211Zm-13.347-.153a.964.964,0,0,1,.269-.268c.243-.191.249-.185.058.058S75.278,49.808,75.278,49.681ZM45.036,49.01c-.191-.243-.185-.249.058-.058s.337.326.211.326a.965.965,0,0,1-.268-.268Zm44.739-.192a1.213,1.213,0,0,1,.354-.307c.042,0-.048.138-.2.307a1.213,1.213,0,0,1-.354.307C89.532,49.126,89.622,48.987,89.775,48.819Zm-13.73.1a.965.965,0,0,1,.268-.268c.243-.191.249-.185.058.058s-.326.337-.326.211Zm-32.154-.9-.292-.345.345.292a1.7,1.7,0,0,1,.345.345C44.288,48.428,44.165,48.338,43.89,48.013ZM90.849,47.9a1.211,1.211,0,0,1,.354-.307c.042,0-.048.138-.2.307a1.21,1.21,0,0,1-.354.307C90.606,48.205,90.7,48.067,90.849,47.9ZM55.025,45.482l-2.376-2.416,2.416,2.376c2.245,2.207,2.486,2.457,2.376,2.457-.022,0-1.109-1.087-2.416-2.416ZM42.888,47.17c-.191-.243-.185-.249.058-.058s.337.326.211.326A.965.965,0,0,1,42.888,47.17ZM92,46.9a1.814,1.814,0,0,1,.437-.384c.042,0-.085.173-.284.384a1.818,1.818,0,0,1-.437.383C91.674,47.285,91.8,47.112,92,46.9Zm-50.177-.652-.372-.422.422.372c.394.348.492.472.372.472A2.667,2.667,0,0,1,41.822,46.249ZM93,46.057a1.213,1.213,0,0,1,.354-.307c.042,0-.048.138-.2.307a1.213,1.213,0,0,1-.354.307C92.753,46.364,92.844,46.226,93,46.057Zm-52.328-.805-.292-.345.345.292a1.7,1.7,0,0,1,.345.345C41.067,45.667,40.943,45.576,40.669,45.252Zm53.478-.192a1.819,1.819,0,0,1,.437-.384c.042,0-.085.173-.284.384a1.817,1.817,0,0,1-.437.383C93.821,45.444,93.949,45.271,94.147,45.06ZM80.11,44.983a1.213,1.213,0,0,1,.354-.307c.042,0-.048.138-.2.307a1.212,1.212,0,0,1-.354.307C79.867,45.29,79.957,45.152,80.11,44.983Zm-40.443-.575c-.191-.243-.185-.249.058-.058s.337.326.211.326a.965.965,0,0,1-.268-.268Zm44.355-3.337c1.9-1.9,3.484-3.452,3.526-3.452s-1.476,1.553-3.372,3.452-3.484,3.452-3.526,3.452S82.125,42.97,84.022,41.071Zm11.2,3.068a1.814,1.814,0,0,1,.437-.384c.042,0-.085.173-.284.384a1.818,1.818,0,0,1-.437.383C94.9,44.523,95.023,44.351,95.221,44.14Zm-56.628-.652c-.191-.243-.185-.249.058-.058s.337.326.211.326a.965.965,0,0,1-.268-.268ZM96.218,43.3a1.213,1.213,0,0,1,.354-.307c.042,0-.048.138-.2.307a1.213,1.213,0,0,1-.354.307C95.975,43.6,96.066,43.465,96.218,43.3Zm-44.343-.959-.606-.652.652.606c.606.564.723.7.606.7A6.844,6.844,0,0,1,51.875,42.337Zm-14.356.23c-.191-.243-.185-.249.058-.058s.337.326.211.326A.966.966,0,0,1,37.519,42.567Zm59.927-.345a1.21,1.21,0,0,1,.354-.307c.042,0-.048.138-.2.307a1.21,1.21,0,0,1-.354.307C97.2,42.529,97.293,42.391,97.446,42.222Zm-60.993-.575-.372-.422.422.372c.394.348.492.472.372.472a2.649,2.649,0,0,1-.422-.422Zm61.913-.192a1.213,1.213,0,0,1,.354-.307c.042,0-.048.138-.2.307a1.21,1.21,0,0,1-.354.307c-.042,0,.048-.138.2-.307ZM35.3,40.65l-.292-.345.345.292c.324.275.415.4.292.4A1.7,1.7,0,0,1,35.3,40.65Zm64.064-.038a1.815,1.815,0,0,1,.437-.383c.042,0-.085.173-.284.383a1.818,1.818,0,0,1-.437.383C99.037,40.995,99.165,40.822,99.363,40.611Zm-65.138-.882-.292-.345.345.292c.324.275.415.4.292.4A1.7,1.7,0,0,1,34.225,39.729Zm66.288-.115a1.21,1.21,0,0,1,.354-.307c.042,0-.048.138-.2.307a1.209,1.209,0,0,1-.354.307C100.271,39.921,100.361,39.783,100.514,39.614Zm-67.362-.805-.292-.345.345.292c.324.275.415.4.292.4A1.7,1.7,0,0,1,33.152,38.809Zm68.589-.268a1.213,1.213,0,0,1,.354-.307c.042,0-.048.138-.2.307a1.213,1.213,0,0,1-.354.307C101.5,38.847,101.588,38.709,101.741,38.54Zm-69.663-.652-.292-.345.345.292c.324.275.415.4.292.4A1.7,1.7,0,0,1,32.078,37.888Zm70.661-.192a1.814,1.814,0,0,1,.437-.384c.042,0-.085.173-.284.384a1.816,1.816,0,0,1-.437.383C102.412,38.08,102.54,37.907,102.738,37.7ZM31,36.968l-.292-.345.345.292c.324.275.415.4.292.4A1.7,1.7,0,0,1,31,36.968Zm56.854.287a.965.965,0,0,1,.268-.268c.243-.191.249-.185.058.058s-.326.337-.326.211Zm15.8-.307a.965.965,0,0,1,.268-.268c.243-.191.249-.185.058.058s-.326.337-.326.211Zm-73.729-.9-.292-.345.345.292c.324.275.415.4.292.4A1.7,1.7,0,0,1,29.93,36.047Zm74.8-.02a.964.964,0,0,1,.269-.268c.243-.191.249-.185.058.058s-.326.337-.326.211ZM42.369,32.979l-2.606-2.646,2.646,2.606c2.459,2.421,2.716,2.686,2.606,2.686C44.993,35.625,43.8,34.435,42.369,32.979ZM28.856,35.127l-.292-.345.345.292c.324.275.415.4.292.4A1.7,1.7,0,0,1,28.856,35.127Zm77.138-.2c.229-.241.445-.408.478-.37s-.154.235-.417.439l-.478.37ZM95.6,29.642c1.77-1.772,3.253-3.222,3.3-3.222s-1.372,1.45-3.142,3.222-3.253,3.222-3.3,3.222S93.834,31.414,95.6,29.642ZM33.377,24.158c-.191-.243-.185-.249.058-.058a.965.965,0,0,1,.268.268C33.7,24.495,33.577,24.413,33.377,24.158Zm-3.05-3.068-2.683-2.723,2.723,2.683c1.5,1.476,2.723,2.7,2.723,2.723,0,.109-.27-.153-2.763-2.683Zm77.167-3.183c1.982-1.983,3.637-3.605,3.679-3.605s-1.545,1.622-3.526,3.605-3.637,3.605-3.68,3.605,1.545-1.622,3.526-3.605Zm-87.13-6.589a9.754,9.754,0,0,0-1.9-1.664c-.083.051-.1.013-.04-.085a.56.56,0,0,1,.141-.177c.017,0,.858.828,1.868,1.841s1.8,1.841,1.759,1.841-.865-.79-1.828-1.756Zm95.414-1.523a.962.962,0,0,1,.269-.269c.243-.191.249-.185.058.058s-.326.337-.326.211Z" transform="translate(-4.938 -9.391)" fill="#ba9d64" stroke="#707070" stroke-width="0.083"/>
    <path id="Контур_3240" data-name="Контур 3240" d="M4.994,121.054v-.767h124.57l.023.422c.013.232.029.56.037.729.013.306-.1.307-62.308.345l-62.321.039Zm84.069-3.836a14.868,14.868,0,0,0-3.337-.158c-2.808,0-3.294-.037-3.068-.209s.268-.536.268-3.392-.028-3.209-.268-3.392-.083-.2,1.028-.209c1.008,0,1.255.036,1.112.179a9.781,9.781,0,0,0-.184,2.992v2.807h2.1c1.736,0,2.146-.044,2.378-.254.269-.243.281-.212.281.767,0,.578-.067,1.021-.153,1.021A.154.154,0,0,1,89.063,117.219Zm-68.5-.2c-1.823-.469-2.071-.993-2.071-4.371a7.8,7.8,0,0,0-.184-2.6c-.143-.143.085-.184,1.028-.184s1.171.041,1.028.184a18.314,18.314,0,0,0-.026,5.04c.288.538,1.031.8,2.095.729.8-.051,1.049-.134,1.38-.465.389-.389.4-.472.456-2.524a6.322,6.322,0,0,0-.167-2.543l-.221-.422h2.3l-.239.341c-.191.273-.239.816-.239,2.723,0,2.843-.135,3.256-1.237,3.8a7.05,7.05,0,0,1-3.9.293Zm51.413.043a2.834,2.834,0,0,1-1.906-1.126c-.209-.384-.271-.992-.313-3.086a13.878,13.878,0,0,0-.211-2.8c-.125-.151.1-.192,1.041-.192s1.159.041,1.016.184a18.124,18.124,0,0,0-.037,4.938c.233.613.97.9,2.106.832.813-.052,1.048-.133,1.4-.48l.418-.418v-2.38c0-1.948-.042-2.406-.23-2.526-.157-.1.149-.147.962-.148l1.192,0-.235.359c-.188.286-.232.842-.219,2.761.018,2.766-.1,3.144-1.2,3.752a7.168,7.168,0,0,1-3.777.332Zm44.135,0a3.51,3.51,0,0,1-3-3.605c-.012-2.151,1.784-3.752,4.209-3.752a17.694,17.694,0,0,1,3.467.7,3.539,3.539,0,0,1-.356.836c-.344.678-.431.762-.586.557-.527-.7-2.787-1-3.74-.507a3.332,3.332,0,0,0-.9.8,1.827,1.827,0,0,0-.4,1.4,2.086,2.086,0,0,0,1.009,1.956,4.988,4.988,0,0,0,3.243.215c.579-.193.614-.239.614-.816v-.612l-.767-.024a2.381,2.381,0,0,0-1.112.194c-.345.217-.345.216-.341-.744,0-.729.043-.9.161-.694.135.232.407.268,2.02.268,1.45,0,1.823.041,1.68.184a4.457,4.457,0,0,0-.031,2.424c.387,0,.085.3-.6.594a7.773,7.773,0,0,1-4.565.627Zm8.848.016a7.63,7.63,0,0,1-1.3-.38,1.681,1.681,0,0,0-.805-.176c-.274.105-.252-.063.114-.891l.314-.709.321.3a5.857,5.857,0,0,0,3.229.693c.969-.133,1.425-.5,1.29-1.037-.114-.455-.245-.492-2.5-.716-2.12-.21-2.865-.744-2.863-2.052q0-2.335,3.272-2.32a5.614,5.614,0,0,1,1.994.283,7.763,7.763,0,0,0,1.112.355c.509.1.514.15.087.951-.316.593-.585.812-.585.478,0-.307-1.271-.792-2.276-.867-1.173-.088-2.062.244-2.141.8-.074.516.272.656,2.042.824a6.934,6.934,0,0,1,2.369.5c1.706.847,1.516,2.976-.332,3.716a7.611,7.611,0,0,1-3.343.245ZM5.607,116.912a.154.154,0,0,1,.153-.153,21.545,21.545,0,0,0,.153-4.056,24.608,24.608,0,0,0-.153-4.151c-.381-.235-.042-.307,1.458-.307a7.809,7.809,0,0,1,1.611.084.581.581,0,0,1-.169.253c-.123.123.174.822,1.086,2.562a20.035,20.035,0,0,0,1.366,2.393,6.039,6.039,0,0,0,.779-1.266c.367-.7.932-1.726,1.257-2.29.587-1.02.729-1.508.437-1.508-.084,0-.153-.052-.153-.115a5.773,5.773,0,0,1,1.611-.115,5.772,5.772,0,0,1,1.611.115c0,.063-.069.115-.153.115a22.439,22.439,0,0,0-.153,4.142,22.439,22.439,0,0,0,.153,4.142.154.154,0,0,1,.153.153c0,.09-.534.153-1.295.153H14.063l.221-.422a8.185,8.185,0,0,0,.2-2.92,17.908,17.908,0,0,0-.121-2.559,63.081,63.081,0,0,0-3.162,5.479c-.056.148-.146.268-.2.268a47.329,47.329,0,0,1-2.553-4.64,5.177,5.177,0,0,0-.729-1.19,17.028,17.028,0,0,0-.115,2.783c0,2.47.03,2.806.268,2.987s.088.2-1,.209c-.745,0-1.266-.058-1.266-.148Zm21.991-.127c.218-.241.254-.707.254-3.325,0-2.665-.033-3.08-.264-3.336-.259-.286-.2-.291,2.953-.242,3.571.055,4,.157,4.365,1.039a2.676,2.676,0,0,1-.077,2.106,2.523,2.523,0,0,1-.93.685,2.1,2.1,0,0,0-.677.388,15.919,15.919,0,0,0,1.888,2.544l.446.422H34.08c-1.406,0-1.467-.013-1.295-.289.154-.247.058-.464-.665-1.5l-.846-1.207-.868-.046-.868-.046v1.358a3.552,3.552,0,0,0,.184,1.542c.143.143-.1.184-1.1.184-1.232,0-1.272-.011-1.028-.281Zm5.5-4.207a.757.757,0,0,0,.124-1.186c-.292-.292-.469-.316-2.033-.276l-1.714.043.009.384c.005.211.019.573.031.805l.022.422H31.2a4.886,4.886,0,0,0,1.9-.192Zm3.367,4.284a50.177,50.177,0,0,0,3.2-6.374.731.731,0,0,0-.184-.449c-.143-.143.112-.184,1.147-.184h1.331l-.091.457c-.076.378.179.968,1.469,3.4a27.96,27.96,0,0,0,1.821,3.143c.219.167.035.2-1.16.2-1.362,0-1.413-.007-1.237-.289.148-.237.129-.415-.1-.92l-.282-.626H38.954l-.259.542c-.292.612-.332.992-.105.992a.154.154,0,0,1,.153.153c0,.09-.521.151-1.266.149-1.051,0-1.222-.038-1.011-.2Zm5.345-2.639A11.667,11.667,0,0,0,40.622,112a10,10,0,0,0-1.111,2.184,3,3,0,0,0,1.152.115A4.2,4.2,0,0,0,41.812,114.223Zm4.519,2.447a23.078,23.078,0,0,0-.006-6.431l-.2-.384H48.7c3,0,3.824.175,4.6.97a4.214,4.214,0,0,1,.232,4.976c-.766,1.015-1.325,1.167-4.54,1.236l-2.876.062Zm5.068-1.157a2.074,2.074,0,0,0,1.11-1.711,2.512,2.512,0,0,0-.735-2.193c-.439-.421-.545-.446-2.068-.5l-1.6-.06v2.293a13.994,13.994,0,0,0,.115,2.412,8.519,8.519,0,0,0,3.182-.239Zm7.6,1.41a.16.16,0,0,1,.153-.166A21.544,21.544,0,0,0,59.3,112.7a24.607,24.607,0,0,0-.153-4.151c-.422-.261.127-.3,3.413-.265,2.9.034,3.675.089,4.145.293a2.012,2.012,0,0,1,1.186,2.019,1.361,1.361,0,0,1-.509,1.286l-.509.5.624.558c.609.545.624.581.624,1.561a2,2,0,0,1-1.236,2.166c-.553.29-.919.322-4.248.368-2.536.035-3.644,0-3.644-.115Zm6.525-1.462a1.179,1.179,0,0,0,.78-1.375c-.177-.7-.6-.831-2.932-.878l-2.148-.044-.046,1.053a6.033,6.033,0,0,0,.034,1.26c.116.3,3.584.289,4.312-.015Zm.21-3.982a1.133,1.133,0,0,0,.051-1.517c-.219-.2-.688-.251-2.416-.271l-2.144-.025-.047.882c-.074,1.392-.166,1.338,2.179,1.277,1.758-.046,2.1-.1,2.377-.346Zm13.094,5.371c.24-.182.269-.534.269-3.359,0-2.664-.038-3.193-.241-3.4-.219-.219-.126-.241,1.028-.241.987,0,1.228.041,1.085.184a32.113,32.113,0,0,0-.031,6.719.154.154,0,0,1,.153.153c0,.09-.521.151-1.266.149C78.735,117.056,78.593,117.026,78.823,116.852Zm11.506-.05c.237-.263.269-.661.269-3.413,0-2.788-.028-3.137-.269-3.32-.42-.319,4.867-.3,5.807.02a3.01,3.01,0,0,1,2.1,3.005,3.341,3.341,0,0,1-1.806,3.6c-.45.234-1.01.29-3.452.341-2.876.061-2.911.058-2.646-.236Zm5.271-1.344a2.553,2.553,0,0,0-.106-4.11,3.639,3.639,0,0,0-1.9-.23l-1.381.041-.046,2.132a17.946,17.946,0,0,0,.042,2.362c.124.323,2.843.167,3.4-.2Zm4.1,1.327c.218-.241.254-.707.254-3.325s-.036-3.083-.254-3.325c-.244-.27-.2-.28,1.036-.278.872,0,1.215.049,1.059.148-.333.21-.4,6.02-.082,6.642l.217.419H100.69c-1.193,0-1.232-.011-.988-.281Zm3.835,0c.218-.241.254-.707.254-3.325s-.036-3.083-.254-3.325c-.244-.27-.2-.281,1.09-.281,1.2,0,1.334.028,1.244.26-.074.192.408.769,1.861,2.224a26.155,26.155,0,0,0,2.078,1.965,14.993,14.993,0,0,0-.067-4.265c-.143-.143.068-.184.951-.184s1.094.041.951.184a32.122,32.122,0,0,0-.031,6.719.154.154,0,0,1,.153.153c0,.09-.518.153-1.246.153-1.112,0-1.225-.026-1.047-.24s-.093-.533-1.927-2.37a22.364,22.364,0,0,0-2.218-2.073,17.266,17.266,0,0,0,.145,4.448c.171.206.053.234-1,.234-1.146,0-1.183-.011-.939-.281ZM5.1,105.3a1.912,1.912,0,0,1-.1-.767v-.665l62.323.039,62.323.039,0,.69,0,.69-62.217.039c-34.22.021-62.263-.008-62.32-.064Zm.358-6.79v-1.83L7.2,96.673c6.3-.039,9.2-2.555,10.989-9.549.3-1.154.3-1.9.3-39.419V9.463l1.953,1.91C23.223,14.086,43.8,34.378,51.093,41.6c3.376,3.341,6.811,6.721,7.633,7.511l1.5,1.437V85H55.466V57.868l-4.257-3.642c-3.791-3.243-5.32-4.559-6.865-5.908-.253-.221-3.979-3.417-8.28-7.1-6.419-5.5-7.838-6.652-7.924-6.425-.131.344-.168,60.222-.037,60.923.082.442.225.574,1.073.992l.978.482v3.156H5.454Zm99.083,1.792c-.011-.022-.037-.716-.057-1.543l-.036-1.5,1.054-.531,1.054-.531V65.351c0-16.966-.055-30.824-.123-30.8S101,39.163,94.517,44.732,82.2,55.3,81.562,55.834s-1.425,1.21-1.742,1.5l-.575.519V85H74.489V50.529l3.183-3.112c1.751-1.712,5.809-5.708,9.018-8.882s8.456-8.356,11.659-11.517,8.517-8.408,11.808-11.659l5.983-5.912.078,38.66c.063,31.169.117,38.779.278,39.273.11.337.377,1.166.593,1.841.961,3,2.639,5.241,4.679,6.263a10.835,10.835,0,0,0,5.187,1.154l2.224.1v3.529l-12.311.039c-6.771.022-12.32.022-12.332,0Z" transform="translate(-4.917 -9.37)" fill="#2c3178" stroke="#707070" stroke-width="0.083"/>
  </g>
</svg>
