<svg xmlns="http://www.w3.org/2000/svg" width="24" height="24" viewBox="0 0 47.977 48">
    <path id="Fabric_Icons" data-name="Fabric Icons" d="M13.664-19.57a5.2,5.2,0,0,1,1.98.387A5.032,5.032,0,0,1,17.32-18.07l5.156,5.156a5.032,5.032,0,0,1,1.113,1.676,5.2,5.2,0,0,1,.387,1.98,5.2,5.2,0,0,1-.387,1.98A5.032,5.032,0,0,1,22.477-5.6l-.328.328q-1.266,1.266-2.32,2.25a12.29,12.29,0,0,1-2.2,1.652A9.758,9.758,0,0,1,15.07-.352,13.965,13.965,0,0,1,11.719,0,21.208,21.208,0,0,1,5.7-.914,33.419,33.419,0,0,1-.457-3.445a44.111,44.111,0,0,1-6-3.844,52,52,0,0,1-5.555-4.863,53.357,53.357,0,0,1-4.816-5.578,43.7,43.7,0,0,1-3.8-6,33.651,33.651,0,0,1-2.484-6.105A21.012,21.012,0,0,1-24-35.742a14.122,14.122,0,0,1,.34-3.328A9.525,9.525,0,0,1-22.652-41.6a12.235,12.235,0,0,1,1.641-2.191q.973-1.043,2.238-2.309l.375-.375A5.222,5.222,0,0,1-16.734-47.6a5.04,5.04,0,0,1,1.992-.4,5.067,5.067,0,0,1,1.98.4,5.186,5.186,0,0,1,1.676,1.125L-5.93-41.32a5.032,5.032,0,0,1,1.113,1.676,5.2,5.2,0,0,1,.387,1.98,4.573,4.573,0,0,1-.352,1.84,6.648,6.648,0,0,1-.867,1.465,8.675,8.675,0,0,1-1.137,1.2q-.621.539-1.137,1.055a6.891,6.891,0,0,0-.867,1.043,2.011,2.011,0,0,0-.352,1.137,2.077,2.077,0,0,0,.633,1.523L4.406-15.492a2.077,2.077,0,0,0,1.523.633,2.011,2.011,0,0,0,1.137-.352,6.891,6.891,0,0,0,1.043-.867q.516-.516,1.055-1.137a8.675,8.675,0,0,1,1.2-1.137,6.648,6.648,0,0,1,1.465-.867A4.573,4.573,0,0,1,13.664-19.57ZM11.719-3a10.707,10.707,0,0,0,2.824-.316,7.293,7.293,0,0,0,2.051-.914,10.59,10.59,0,0,0,1.781-1.488q.867-.891,1.992-2.016A2.077,2.077,0,0,0,21-9.258a2.038,2.038,0,0,0-.34-1,8.8,8.8,0,0,0-.879-1.207q-.539-.633-1.207-1.3t-1.312-1.266q-.645-.6-1.2-1.1t-.855-.809a2.1,2.1,0,0,0-1.547-.633,1.956,1.956,0,0,0-1.125.352,7.234,7.234,0,0,0-1.031.867q-.516.516-1.066,1.137a9.238,9.238,0,0,1-1.207,1.137,6.648,6.648,0,0,1-1.465.867,4.573,4.573,0,0,1-1.84.352,5.2,5.2,0,0,1-1.98-.387,5.032,5.032,0,0,1-1.676-1.113L-10.641-26.273a5.032,5.032,0,0,1-1.113-1.676,5.2,5.2,0,0,1-.387-1.98,4.573,4.573,0,0,1,.352-1.84,6.648,6.648,0,0,1,.867-1.465,9.238,9.238,0,0,1,1.137-1.207q.621-.551,1.137-1.066a7.234,7.234,0,0,0,.867-1.031,1.956,1.956,0,0,0,.352-1.125,2.1,2.1,0,0,0-.633-1.547q-.3-.3-.809-.855t-1.1-1.2q-.6-.645-1.266-1.312t-1.3-1.207a8.8,8.8,0,0,0-1.207-.879,2.038,2.038,0,0,0-1-.34,2.077,2.077,0,0,0-1.523.633q-1.125,1.125-2,1.992a11.943,11.943,0,0,0-1.5,1.781,6.921,6.921,0,0,0-.937,2.051,10.6,10.6,0,0,0-.316,2.8,18.423,18.423,0,0,0,.855,5.414A30.453,30.453,0,0,0-17.8-24.75a42.485,42.485,0,0,0,3.574,5.5,48.973,48.973,0,0,0,4.5,5.121A50.387,50.387,0,0,0-4.582-9.68,42.461,42.461,0,0,0,.9-6.152a30.237,30.237,0,0,0,5.531,2.32A18.259,18.259,0,0,0,11.719-3Z" transform="translate(24 48)" fill="#f8f8f8"></path>
</svg>