<svg
xmlns="http://www.w3.org/2000/svg"
width="16"
height="16"
viewBox="0 0 32 32"
>
<path
  id="Fabric_Icons"
  data-name="Fabric Icons"
  d="M21-32a10.866,10.866,0,0,1,2.922.391A10.868,10.868,0,0,1,26.547-30.5a11.142,11.142,0,0,1,2.227,1.727A11.142,11.142,0,0,1,30.5-26.547a10.868,10.868,0,0,1,1.109,2.625A10.866,10.866,0,0,1,32-21a10.866,10.866,0,0,1-.391,2.922A10.868,10.868,0,0,1,30.5-15.453a11.142,11.142,0,0,1-1.727,2.227A11.142,11.142,0,0,1,26.547-11.5a10.868,10.868,0,0,1-2.625,1.109A10.866,10.866,0,0,1,21-10a10.781,10.781,0,0,1-3.742-.656,11.233,11.233,0,0,1-3.289-1.891L1.7-.3A.961.961,0,0,1,1,0,.961.961,0,0,1,.3-.3.961.961,0,0,1,0-1a.961.961,0,0,1,.3-.7l12.25-12.266a11.233,11.233,0,0,1-1.891-3.289A10.781,10.781,0,0,1,10-21a10.866,10.866,0,0,1,.391-2.922A10.868,10.868,0,0,1,11.5-26.547a11.142,11.142,0,0,1,1.727-2.227A11.142,11.142,0,0,1,15.453-30.5a10.868,10.868,0,0,1,2.625-1.109A10.866,10.866,0,0,1,21-32Zm0,20a8.707,8.707,0,0,0,3.5-.711,9.138,9.138,0,0,0,2.859-1.93,9.139,9.139,0,0,0,1.93-2.859A8.707,8.707,0,0,0,30-21a8.707,8.707,0,0,0-.711-3.5,9.139,9.139,0,0,0-1.93-2.859,9.139,9.139,0,0,0-2.859-1.93A8.707,8.707,0,0,0,21-30a8.707,8.707,0,0,0-3.5.711,9.139,9.139,0,0,0-2.859,1.93,9.138,9.138,0,0,0-1.93,2.859A8.707,8.707,0,0,0,12-21a8.707,8.707,0,0,0,.711,3.5,9.138,9.138,0,0,0,1.93,2.859,9.138,9.138,0,0,0,2.859,1.93A8.707,8.707,0,0,0,21-12Z"
  transform="translate(0 32)"
  fill="#f8f8f8"
/>
</svg>