<svg
  xmlns="http://www.w3.org/2000/svg"
  width="13"
  height="16"
  viewBox="0 0 26 32"
>
  <path
    id="Fabric_Icons"
    data-name="Fabric Icons"
    d="M28-26H26V-3a2.943,2.943,0,0,1-.234,1.172,3.01,3.01,0,0,1-.641.953,3.01,3.01,0,0,1-.953.641A2.943,2.943,0,0,1,23,0H7A2.943,2.943,0,0,1,5.828-.234a3.01,3.01,0,0,1-.953-.641,3.01,3.01,0,0,1-.641-.953A2.943,2.943,0,0,1,4-3V-26H2v-2h8v-2a1.938,1.938,0,0,1,.156-.781,2.033,2.033,0,0,1,.43-.633,2.033,2.033,0,0,1,.633-.43A1.938,1.938,0,0,1,12-32h6a1.938,1.938,0,0,1,.781.156,2.033,2.033,0,0,1,.633.43,2.033,2.033,0,0,1,.43.633A1.938,1.938,0,0,1,20-30v2h8ZM12-28h6v-2H12Zm12,2H6V-3a.961.961,0,0,0,.3.7A.961.961,0,0,0,7-2H23a.961.961,0,0,0,.7-.3A.961.961,0,0,0,24-3ZM12-6H10V-22h2Zm4,0H14V-22h2Zm4,0H18V-22h2Z"
    transform="translate(-2 32)"
    fill="#0078d4"
  />
</svg>