<svg id="Layer_1" data-name="Layer 1" xmlns="http://www.w3.org/2000/svg" width="141.252" height="98.603" viewBox="0 0 141.252 98.603">
  <path id="Контур_8331" data-name="Контур 8331" d="M27.5,0A52.287,52.287,0,0,1,21.6,18.274C13.337,33.327.944,44.356.049,62.254c-.426,8.573,1.907,16.608,7.172,22.835,6.789,8.455,15.1,11.405,23.076,12.14,21.379,1.963,40.659-22.99,23.064-43.295,2.469-4.876,3-9.8-2.975-15.152a11.245,11.245,0,0,1-5.875,9.325c-3.271,1.8-5.048,2.191-6.172,3.086A8.6,8.6,0,0,0,34.8,57.02c-.086,2.049-1.71,5.03.5,7.363,3.987-4.32,8.233-6.918,12.541-2.216a7.258,7.258,0,0,1-.451,6.672c-1.518,2.8-4.857,5.036-11.078,5.178-5.919-.685-11.214-3.783-12.51-12.343.389-5.987,3.277-12.164,15.553-19.132a8.373,8.373,0,0,0,4.832-6.635,15.6,15.6,0,0,0-4.135-12.825,16.824,16.824,0,0,1-7.5,9.146s-.685-.247-.469-.457a30.853,30.853,0,0,0,1.932-2.814C38.1,24.36,39.462,13.522,27.5,0Z" transform="translate(0)" fill="#00a2de" fill-rule="evenodd"/>
  <path id="Контур_8332" data-name="Контур 8332" d="M134.768,100.06v24.1a41.818,41.818,0,0,1-.265,5.758,7.826,7.826,0,0,1-1.58,3.431A8.178,8.178,0,0,1,129.46,136a12.962,12.962,0,0,1-5.067.907,14.194,14.194,0,0,1-5.727-1.086,8.56,8.56,0,0,1-3.7-2.783,7.671,7.671,0,0,1-1.45-3.617q-.222-1.907-.222-8.023V100.06h9.375V127.1a10.547,10.547,0,0,0,.259,3.018,1,1,0,0,0,1.037.66,1.074,1.074,0,0,0,1.142-.728,13.289,13.289,0,0,0,.259-3.419V100.06Z" transform="translate(-43.371 -38.306)" fill="#f47929"/>
  <path id="Контур_8333" data-name="Контур 8333" d="M174.922,100.06v36.061H166.7l-4.876-16.392v16.392H154V100.06h7.838L167.1,116.3V100.06Z" transform="translate(-58.956 -38.306)" fill="#f47929"/>
  <path id="Контур_8334" data-name="Контур 8334" d="M215.346,112.84h-9.381v-3.277a16.24,16.24,0,0,0-.265-3.876,1.4,1.4,0,0,0-2.469-.111,10.8,10.8,0,0,0-.315,3.431v17.281a10.2,10.2,0,0,0,.315,3.2,1.234,1.234,0,0,0,1.234.771,1.364,1.364,0,0,0,1.389-.87,10.111,10.111,0,0,0,.37-3.388v-4.252h-1.895v-5.474h10.986v19.354h-5.894l-.87-2.586a6.486,6.486,0,0,1-2.419,2.506,6.789,6.789,0,0,1-3.444.839,8.962,8.962,0,0,1-4.425-1.148,8.523,8.523,0,0,1-3.129-2.845,8.919,8.919,0,0,1-1.308-3.549,42.592,42.592,0,0,1-.265-5.555V112.549a35.945,35.945,0,0,1,.555-7.5,7.8,7.8,0,0,1,3.2-4.32,10.988,10.988,0,0,1,6.826-1.95,12.707,12.707,0,0,1,6.838,1.691,7.974,7.974,0,0,1,3.543,4.024,21.545,21.545,0,0,1,.827,6.789Z" transform="translate(-74.094 -37.81)" fill="#f47929"/>
</svg>
